<mxfile host="app.diagrams.net" modified="2023-05-20T07:28:09.542Z" agent="Mozilla/5.0 (Windows NT 10.0; Win64; x64) AppleWebKit/537.36 (KHTML, like Gecko) Chrome/113.0.0.0 Safari/537.36 Edg/113.0.1774.42" etag="Y_HfJHqrgBGTxGiOE-4N" version="21.3.2" type="github">
  <diagram name="Page-1" id="ADzkA_nCB81eZ8KAsDtX">
    <mxGraphModel dx="913" dy="505" grid="1" gridSize="10" guides="1" tooltips="1" connect="1" arrows="1" fold="1" page="1" pageScale="1" pageWidth="827" pageHeight="1169" math="1" shadow="0">
      <root>
        <mxCell id="0" />
        <mxCell id="1" parent="0" />
        <mxCell id="PfEc_GqxXj_l5q8TzJH9-1" value="" style="shape=image;verticalLabelPosition=bottom;labelBackgroundColor=default;verticalAlign=top;aspect=fixed;imageAspect=0;image=data:image/png,iVBORw0KGgoAAAANSUhEUgAAA0cAAACUCAYAAABY+FKfAAAAAXNSR0IArs4c6QAAAARnQU1BAACxjwv8YQUAAAAJcEhZcwAAEnQAABJ0Ad5mH3gAAMZASURBVHhe7J0HmFRF1oYVxQBiWld3zTmsCAKiJEWCIKAgIjkOTA6dc85pQk+ODDkjWUARzDmv2V/XtOaICAICvn9V0+waRhdlBpjxvs9zxL59O1RPVZ36qk6dOgIFBQUFBQUFBQUFBQUFFHGkoKCgoKCgoKCgoKAgUMSRgoKCgoKCgoKCgoKCQBFHCgoKCgoKCgoKCgoKAkUcKSgoKCgoKCgoKCgoCBRxpKCgoKCgoKCgoKCgIFDEkYKCgoKCgoKCgoKCgkARRwoKCgoKCgoKCgoKCgJFHCkoKCgoKCgoKCgoKAgUcaSgoKCgoKCgoKCgoCBQxJGCgoKCgoKCgoKCgoJAEUcKCgoKCgoKCgoKCgoCRRwpKCgoKCgoKCgoKCgIFHGkoKCgoKCgoKCgoKAgUMSRgoKCgoKCgoKCgoKCQBFHCgoKCgoKCgoKCgoKAkUcKSgoKCgoKCgoKCgoCBRxpKCgoKCgoKCgoKCgIFDEkYKCgoKCgoKCgoKCgkARRwoKCgoKCgoKCgoKCgJFHCkoKCgoKCgoKCgoKAgUcaSgoKDQHNjyHPXRhby+O/m42bCbd+foCDywI/m4KfiaByqLuPujZvfjKCgoKCgcZijiSEFBQeFwZ+crVEwYQ+Fz25IXmhO7eNLSheEztyQfNw17Pl6NZqSJuz/bk7yioKCgoKDw+1HEkYKCgsJhzbc8ZOnLiJp/0TzXRQ6OOJJ8+7CZm0bP5B1lAUlBQUFB4Q+iiCMFBQWFw5id/wzQ+wYvL+xKXmh2HDxxxJ4vuHPSNUxa+inK+pGCgoKCwh9BEUcKCgoKhyt7PmP+yAsZWv9xMx7sH0RxJNj5qIGrujh5rtmKSQUFBQWFQ4kijhQUFBQOU/Z8UMXNZw1n9hfJC82SgyuO2PkYxisvQ92kCSAUFBQUFFoqijhSUFBQaBS+5e3H7+fJd7/97yrPtvd5+v6HeOmT7ckLv4c9fDp9CKfcGOfdny8bbXmJ9QsWsuTOZSxfvpw7lyxkwd2viG8g2PMxT65YyOKly1mxYhlLF63gyY8O5brTz8XRFl5av4CFS+5kmfjuy+9cwsIFd/PK3i/Px0+uYOHipSxfsYJlSxex4smPEq/af7Zz17SzucLwKDuTVxQUFBQUFPYXRRwpKCgoHDA7eb4kB/OsO3H2uYjBFU/yUJkebWQeGzYtwNC/G5PmvC5kwu9hO6tTzuTCnPv4+RrIno+WYxk5nAHtT6HVEUdw5FGn00W7kk+kBtr1AsVDzqNNq6M59bJe3Dwslep/HsoYs5+Joz0fsdwykuED2nNKqyM44sijOL2LlpV7vzwvFA/hvDatOPrUy+h18zBSq/+593X7zR4+KO3DCb3y+ZeSmEFBQUFB4XfSYsTRJ598wr333puYRV2wYAEzZsxgzpw5LFmyhDVr1vDPf/6TXbuUIHQFhcOJ999/n3vuuSfRbufPn/+fdrt06VLuuusuXnnlFfbsOZSrHvvJt2vR583jCyFoVk76K0f/5TqMaz/6zwrSt0vHctpfhjM7IQB+zLe8/fBylqx7gU9/vsyx+1/k92zL9QVv/2qWuj2friXnyuM48sjWnDd6Lm/LG3e/y8IJl3DuLRW8fFhElv1KWN2eT1mbcyXHHXkkrc8bzdy9X553F07gknNvoeIAvvz2VZP521mprFMi6xQUFBqZfX5r2bJl//Fbc+fObX5+S+FXaZbi6IsvvuDuu+8mEAgwdOhQ/v73v3PEEUfQqlUr2rRpwymnnMLf/vY3/vrXv3LiiSdyzDHHJJ4/7rjjuPbaa8nLy2P27NlKBVZQOIjICQw5UeF2uxk0aFCifcp2edRRR9G2bVtOPfXURLs97bTTaNeuHa1bt048L5/r2bMnWq024Yj+7//+jx9++CH5rocHO+42o1rwhRjbv0rw2mM4deQCvko+J9mxPpWzjv4bU9f8KLxu20vUTL6FjNpHeWZBKgNz1/Hlj7ujnQ+ivrgtw2Yn4s1+lZ2vVDLkb0cJgdSOa6yrWK7rwlk9XDyyOXlDA2z/5D3+UKRfQ+z8hKdmapgceexXwth+Y8/RzleoHPI3jhICqd01VlYt19HlrB64fuvLCwH6yXufiP/+Ojsf1XNZ28FM//EfQUFBQeF38mO/NXjwYM4444yEXzr66KMT40v5+Nxzz02MQ08++eT/jDdPOOEEbrjhBnQ6XWLC/nD0Wwq/TrMRR1LErFy5kr59+/5nQHXJJZcwZMiQROWrqalJrBzdf//9DZpU9H6/nwkTJnDdddclKrF8H1mxPR4PH3/8cfKTFBQUGovvv/+ehQsX0q1bt0R7k4LniiuuSExqmEwm6uvr2bhxY4NtVpp8rWyfY8eOpUuXLgmHI99HOqNYLMaXX36Z/KRDzLdf8/Uu0U99UsPNbY/npsr/rhrJMK+PK2/iuFanM3lVcki/5zPWpF3Jda5n9obMbV/OxAtuY+ZniWf3smM9qWedzMhF/+vg1z18uVHP1W2PFALpSFpfNIXlH/7GpM/OJzBdeRZTVh+oOtrMg6UatFY/WTeczOmTVv6KYPnthAx7vtyI/uq2ie9+ZOuLmLL8wx/9dr9k5xMmrjxrCr/19Xc956BDmz6UvK9MfikoKPw+pN+SE3Hdu3dP+Jtjjz02MbGenZ2dWCV66aWX2L3712N233nnncSY02w2J8asJ510UuJ9LrzwQvLz8/nqK2XW5nDnsBdHcvATjUYTgyE5sOrfvz/xeDyxpNnQYOr3mBx4ZWZmcuaZZyZmAUaPHs2jjz6a/GQFBYU/ykcffZSYaZOTD3LFVk5iVFRUsGHDhgbb4v7afffdlwi7mzJlSmKFSb731KlTef7555OffGjZumwCpx3TBc+LPw7h3cqqyWfQ6phuhF/f61C3PqDm8rPGsmRfFrptSxnzl6uwPvWj1+3YSNZ5bRk6q2FR8VO284DqEo4WDvjItp0w3vfVrwqM3a8E6HrSQKo+bizhsJ1VU/7GGX9QHEm2P6DikqPl/qO2dDLex1e/+tV280qgKycNrOK3vv6up6y0b9Ofyl+EMR56tm7dykMPPURhYSFjxoyhY8eOiYm+c845h9NPP52zzz6biy++mKuuuorhw4cTDocTE39ff/118h0UFBSaAum3XC5XIoJBRiGlp6fzxBNPJMTSgSBXjN54443ERJ9cYTr++ONJTU1NbPdQODw5bMWRFEVpaWmJwY8Mv5EDILkvoaEB04Hapk2bCIVCiZkBqe6vvvrqRNiegoLC7+PDDz9MrPLIyYazzjorMfmwevXqBtvdgZpccZKOrEOHDol2K2f5HnvsseQ3ORTs5EH1xbQ+P5tNP97rsmMT2ecfzfHdw7wqtdGeT5gx9BTOmLh8b3Y5we7Xw3Rr0wnXj0963fUcjg5t6FPywW+upMiVo882aOl8di8mje5I2yOP5Ki/D6Xm9Z8Gue1+9yEWzJpJdVZX2p49FG/9bJY9+cn/eO/94cDE0Z7PNqDtfDa9Jo2mo1z9OurvDK15/Wchert596EFzJpZTVbXtpw91Ev97GU8+SviZ8emHC44+Q4Wbk1eOITIva533nknkyZN4rLLLkuskMn6et555yUm+6SfU6lUGI1GbDZbYkVVrVaTkZGRCD+VQklGSuybeZaTeDNnzmT79gNd+VNQUJB88MEHCb8lJ+AvuugiioqKmmwyQgqtRYsW0atXr0Sbvv7663n88ceTzyocLhyW4kjGd8oZZ+k85Ozzb4XdNLbJWelbbrkl4cCk0/r229+O91dQUNiL3JAqwwfkAFBONshJh4baWFNYXV0d/fr1S+w7NBgM7NhxCHbi734Ff9djOHnkQn68Y2bzmqmcc8yFpN61NwRwzyd1DD7hGDpMKaSqqiphZbk9OfGk4cz5SbTFl0wf0o6OzueEvPh1tj6XT79zOpC7VgidXW8yY/hZHC36rzYdNNz7xX/Fw56v3uKZJ+4n2P8kzp84g0effIqXP/xfIXv7wwGIo63Pkd/vHDrkruWTPbt4c8ZwzjpaCKQ2HdDc+8WPhNsevnrrGZ64P0j/k85n4oxHefKpl/m1r79l3u2cfIWRxw5hLu9PP/00EcotIxPkPgS5/0AKHhn5IDdtN1SPf83kZF1ZWRm5ubncdNNNiX14cm+tFFTvvvtu8hMVFBR+L3L/udxm0bVrV9auXXtQ9wXJiAc52SEnP2QI3iHxWwoNcliJo82bNzN58uSEMBk1alSjhM79UZMOTC5/ynA+GcqjoKDQMHIQKPcQydUiucJ7MCczfm4ySYtM7HD55Zfz9NNPJ7/hwWHPx1UMbNOKE/qX/fdcoq/uR9fxdK6zP/CfBA3b16TwtzY34Hvon4mwin/+8ykqh/+VNjfG92ab+w+7eN7Vib8IsdXgmsueHXz6VCV3XHA6/Ypf/e9Ky+aHsHdtx5FHtOKMQRW88mOBsPMBVBefztglv5z02bltC1tEHyz74YZtC1t3NrRS80fE0R52fCrKfccFnN6vmFf/++V5yN6VdkceQaszBlHxky8vv76Ki08fSwNf/0fs4jnH1fx19OKGf7cm5sknn2TcuHGJWWgZniMn2eR+2Ybq6x+1devWodFouOCCCxL+Uk7oyZBVBQWF/UMmWpB+S05cBIPB39xD1NSsWLEiEVJ75ZVX8uyzzyavKhxKDhtxJIWQnGGT8dalpaUNOoSDbdIB7VtFysnJYdu2xphlVVBoOchNp1KMyNAfuXrTUDs62CYHon369EnMxskwpQONF99fvl06jr8cczVZQSOZntksX1hI9uCbmFL2+E+y0H1aNYA2Vxh5fN+4f8dDaC49hUE1vwyf27Epm4suVfHgTzUCOx/Wc0Xb42nbrh0ntDmWYy/I4t7kpGPiuTbHcXzbE2jX7gTatjmeU0cvSjy3+xU/XU8cQOXPD4Xdej+hMcMYJgYLcsDQsA3jdu1C3vnFGOJ3iqOdD6O/oq34fu1od0Ibjj32ArL+++XFc2047vi2nCDL1rYNx586eu9zcr+RvysnDqjkN8+03fMhFTedxsCq307s0NjIMJzx48cnQmVk8hC5anQwVk/l3iUZmiNXTQcMGJAIEVJQUPh1Fi9ezF/+8pfEForDZd/P559/zh133JGYZHQ6nQfNbyk0zGEhjmbNmpXo2OXm0/Xr1zfoAA6lyYQQct+TTCeshNkpKOxFZt2R7VZmgPytTJGHyuR+JBnmJyc4du78mbpodHZwf96FtL4gl/vFOH/bh//k8Sdf4eMG5lO+mj6YE/uUsC+R2lfLJ3HeP7Q80ND+mJ2PY2zfAfMTjfH99/Bxzc2cdI2Pl6XA2f0Rb/2rMdZWDjwhw36x52Nqbj6Ja3wvJ8592v3RWzT09fd8XM/Q84Yz69ODJ42k35KRBjKpggx/a6g+NrXJfUhyxVSmF5ahQgoKCr8kEokkBIj0D4ejAJGJwuSE42233aYIpEPIIRdH+4SR3JDaUId/uJicaZAbzBWBpKDwX2EkZ7gaai+Hi8n+Rc4QNrlA2vUS3i7HcOqYJf8zlEtmUuvUO8ZbcoS/5WHM3a/FcN+vbf7dzevxfnTMvpcDzy2wg/Vp53JB9kbxf7t5d44J//2N0ZcJcTT5jD+cynu/2bGetHMvIHujUJ+732WOyc8vv/5u3pK/V+7GgxJSt2XLFqZNm5aILhgxYkRib1BD9fBgmQxplaGtMqRP1nkZOqSgoLCXfcJIjucOZ+QZnDLMThFIh45DKo6aizDaZ4pAUlBoPsJonx0MgbTnvVL6Hn8sfcv+V2Y5we73WJw1irziOJZJE7Ctfi+xEvKrbH8S5423UPbmb961HwhBNHs0nW91UV/hxzvruQMUELt4YY4Doy6dgZedwimXDSRdZ8Q+54Xk8/toJHEkBNHs0Z251VVPhd/LrOcaeL+v1pHRfQzzfjPurnGQ4ThypUiGgxcXFzdY9w6VTZ8+PZEeXCZtkIJJQeHPTnMRRvtQBNKh5ZCJo+YmjPaZIpAU/sw0N2G0z5pOIO3ipTkGJt5wLq2PPIbz+0wip3ATP0oS9yvsZsunn7BlP/XO1qeCDB9XzRu/lbZuP9n+2Yd81vASTxPRSOIowXY++/Czhleo9nzJBu0QUpc2/V4jKYxk6IvMQCf3pjZU5w61yVBXGaouj8OQ/6+g8GeluQmjfSgC6dBxSMSRdCbNURjts30CSaZUPZhpHxUUDiX7JjSamzDaZ/sEktw035js+vZLvvz6W7Zv38a3X3/JF5ubIh3rHj5YbWaKawOfHbytNI3ELp6xX8uIOU156NAOXqnLJLX8uUYIP/xt9gkjmfTjUGZm3F8bOXKkIpAU/rTMmDGjWQqjfewTSDKTs8LB46CLI3m4qzzDSHbYDXXkzcXkmS7S4chT/xUUWjrvvfceJ5xwQuLE8IbaQ3OxysrKhMBbtmxZsmTNiT1sfuedZiiOYOcHr/LGV035xbfzwbsf/+zg2ManuQmjfaYIJIU/I/IMsHbt2lFQUJC80jyRh8TK7Ksy5bfCweGgi6MxY8YkDnc9lGcYNZbJA/natGnDW2+9lSydgkLLQ66O9u3bl/bt2x/Ug12byuTKkVxB+uyzz5IlVFD437z44ovNUhjts30CSdmDpPBnQPot2VZ79erFnj3NcEbpZ8hDYuUKkkz5rdD0HFRxJGdr5aytnL1tqPNubiYPh+3UqVNi/1FLaHwKCg0h2+uxxx7LnDlzGmwHzc3kYZkXXXRRYj+GgsL+8N133yXO8pJ9fXMURvtM7l2QSRqULHYKLR2ZUl9OXr/55pvJK82bHTt2IA+JlZMcCk3PQRNHcpZWztaOHTu2wU67udqCBQs4/vjjKSoqSpZUQaHl8K9//SvhYOQhyA3V/+ZqtbW1iTh02X4VFP4XarWa0047jTVr1jRYn5qLybA6KfLkob4KCi0VKYik3yotLU1eaRk888wzCb+1aNHeQ70Vmo6DJo7kQZEXXnhhYta2oU67OZtWq03MrL///vvJ0iootAxk0hF5irhcJW2o7jdnkxtcTz75ZL755ptkaRUUfsmDDz6YOMdIZrxqqB41N6urq0sMsOS+WQWFlkj//v0TIXUtMWGWTIgkFxrkGWsKTcdBEUcfffRRojMOhUINdtbN3eTA8dxzz8VqtSZLrKDQ/Hn55Zc54ogjqK6ubrDeN3eTEzUyxKikpCRZYgWFn7J161bOP/98Bg8e3GAdaq4mD4o98cQT+fDDD5MlVVBoGcikKdJvPfvss8krLQsZXidXsWXYoELTcVDEkdvtThyU1xI2c/+a5eXlJdS8rLgKCi2BjIwM/vGPfzRY31uKyRVteVimkpJfoSEyMzMT2VXvuuuuButPczW5b+ryyy9n4MCByZIqKLQM0tLS6NGjR/JRy8RisSTar0LT0eTiSB5cJZ2LdDINddItxdauXZuIcZ09e3ay5C2DPVs/5cMvFcF3WLNnK59++CWN+VfavHlzoj7bbLYG63tLsSVLliRSpMrsmQrNk6bqo2QWUjkDHY1GG6w7zd1mzpyZCBeUk5YtDcVvNQOawG99/fXXCb/V0veSyqM1pN9SUvM3HU0ujhYuXJhIH7p69eoGO+iWZDITUJcuXZIlbwns4gVXJ47v7OafjXAyv0LTsOsFF52O74y7Ef9I8Xg8kba4Je4R/Ln17t07ETal0Bxpuj5Ko9Ekkhc0VGdaisk0x8OGDUuWuKWg+K3mQFP4rcLCQv7+978nJuVbOjLbastru4cPTS6Ounfvzi233NJgx9zSTK4ayZnGJ598Mln65s/2u9M559iuBF7ZnbyicNix/W7SzzmWroFXaIy/kgwxk6muZchZQ/W8pZkUgnIG/e23307+AgrNiaboo7Zt25bYk2MwGBqsMy3F5OGY8ngNORPdklD8VjOgkf2WPE5F+i25jePPgFzxlatH8qBbhcanScWR7HB/z4bujXWTuKT1UbQ+rg1t253ISSedyIkntOX441pzVOtLmFT33/Ml1tt6cexRrTm2TVvanXgSJ53YjrbivtYXjqd64y/f+2CZzOylUqmSv0ALYPt95F54HB1sTzX56fMKf5Tt3Jd7Icd1sPFUI/yRpLiX7VaGnDVUx/+nbaxj0iWyzR5Hm7btOPGkk8RA8wTaHn8crUWbvWRSHRv33bveRq9jRZs/9r9tvl1bcV/rCxlfffDOk5EHUweDweQvoNCsaII+qqamJnGy/t13391gfWlJJuu+3MPQolD8VjOgcf3W448/npjk+v1JRuRKY2eOFf6q7Yknc+ppf+Wvp/2FU07eO6Y8trOLF/6zuLWNucPbJPzViSefyml//SunnXoyJxwn69rT4p0OLpdeemkii6ZC49Ok4mjp0qWJ+M/9TcSwaVkcbcpkJk8eTa9zjkkM0BJ21Bl0HaEhvuy/77OhWsfgTmdyrHy+9Wlc2XsII8aMZ5KqgKWbfvneB8vkbPu1116b/AVaArt4OdSNtn8dzqwPlINuD1d2vRyiW9u/MnzWBxzoX0lmwZEJVBqq3/tlm5YR16YkUmWP7nUOx+xrx0ccxRldR6CJL2PTvns3VKMb3Ikzj5XPt+a0K3szZMQYxk9SUbD04CVwGTJkiHL2S7Ol8fsoedjiqFGjGqwrLc3kZJ4MoW1ZyYQUv9UcaEy/JbOOyjDY388ePrm/Gp/bjds4nMuPPzLpr46k9XkD0VTezyf/+XI7eaZmGn0vasOR4vnjzu7ByDQ1JpuL8o0fHnAZfi8y6+SIESOSjxQakyYVRyaTiY4dOzbYIf8v2zBLS7dTWv2nkp7YKZO69T+6555ZaLufSqujz6S/c+F/Z6IPsfn9/sQeq127WlCw85b70f3jeP4+fAZvK1EKhylbuF/3D47/+3BmHOAfadKkSdx4440N1u/fbRtEO+12Cq2SAunIEzuRWbf+R/fcwyxtd05tdTRn9ney8BCt+up0ukSsukIzpRH7qIceeigxAz1//vwG60pLs3Xr1tG2bdsWl0xI8VvNgcbzW3JiesyYMclHf5SdvFp1C387KimQWv2FvgXPsy35rGTHq1Xc+vejOOaiCSx859BWrMrKysQxMgqNT5OKIznA+uOzb5tYVTiKi47bO6g64oijOetmL0vkqtCmJXgHn03rVqfQNa+eexp8/aExuVomv+8LL7yQ/BVaBlufCnHDKe3omLOKDxRHc3iy9SlCN5xCu445rDqAP5JMESrTeDdUv/+IbVpVyKiLjku24yM4+qyb8S6Rq0KbWOIdzNmtW3FK1zzq72n49QfDamtrE9/t448/Tv4KCs2NxuqjHA5HYuWooXrSUq1fv36MGzcu+Qu0HBS/1QxoRL8lEzIcMHu+ZJP+atoemZzQO+YSUpbtXdna88Eypl16LEedcTOlL27fe/8h5Omnn058x88++yx5RaGxaDJxJDd1y5hteZpvQ53x/tlG5hl7cVqrpEA6si3tUwqITriCtq3acsWEEtY0+Lr/2oaKCVx6YtvEzNiJf/kbZ593ARdedBEXXXAmfzkhef20szlfXrvoQi44V1xP3n9KD91eMdbA+/6WyQO65CnkLYs9fHqvhetOOZaz+phZ/taBdAw7eHt9MTZLmMUv/p5Tng/265ofez69F8t1p3DsWX0wL3+L3/tXkodeylnzoqKiBuv2H7WN84z0Ou2/K8Ft26dQEJ3AFW1b0faKCZSsafh1B8tkStRjjjkmkVVTobnSOH3UgAEDEpmg/ls/NrHYPJDLL72C9h2u5uqrO3LVlVdweY/0/+xv3bTIzKAr/0H7jvL5DrS/4gpuyJvxo/c4vC07Oztx3lfLQ/FbzYED9VtbtmxJ+K0HH3wweeUA2fUm9cPP4uikQGp1ci98G9djv+4kjjrpOhwPfZ288X+w/T0eqPehShnLmPEp5DgqWPvq140Wfrdz586E35JHySg0Lk0mjt54441EpZo3b16DnfH+2xqKx13K8YlBlRRIrWh1RGvOGezbj71F91Aw9Axa//0GcuILWffj+9c6uKGteL+jLmXKjJ9u/N6wNM6E9m1p19fD+h9d31/r2bMn6enpyV9if9jN23cV4jQbE9mRDsSyJwxl2MRcjA081xiWPfRyThCdUKuTrmCooZZHPvr9Mz27Xg7SLRHXeyRHX5DDpv0MdT/Yr/spjfU3Eq9XTWXKNDVGY0PPN4JlD+XyE47kyFYnccVQA7WPfLTf2YBkSJFsZ01x6OWa4nFcenyyHYu/RatWR9D6nMH4ftfeojXEp91AtxHeRt9bKA+8dblcyV9iP9j9NncVOjH/nr+jLpXhN3bj2q7XcM01Sevalet6DGRcjr7h1/zCdKTefiM9e938O17TgOnSuL1vbwaNy2n4+f00Xdrt9O09aD+/i56sMQPocW1Xuu4rf9K6dr2OHgPHkaNv6HX7bwfaR8n9N1ar9Sd1Y02FjYy0qdzW6S/JENFWnNxNz7x94mhVlNvObZ2YwLvg+hFMSEnDEF/2k/c4nE3u15Dt8ptvvkn+CvvBH6n/DZl4vWrqFKapDYrf+hGK39p/vyXrsMy6+O233yavNAJfP4j1mnYcuc9fHXUURx53GdOW79/eoj0frkbd5e9cMa6UB97dyp5dX/HyKjc3X3QJQ4uforG+qew7vV5v8pFCY9Fk4kiGl8nVl593wn/INi7AeuPpHJWopMKOOp+RxWsavvfHti7M4HM6MO0nexz22j2Ft3GGGJy1OmcUZRt++pxcsZqfeTWX/Tir1u8wuRH99yVl2MFj+SPpe32vhLA6EOt82dmcc/k19GrgucawHp3O2bvcfGQbzr0xnbrnfhyNu3/sfFTPpUfv/Vu2OmU0i/dzUuxgv+6nNNbfSLy+a3v+cdW19OrV0PONYD06cU7bvU61zbk3kl733E9ipn+L8vJyzj777Abr9YHbRhZYb+T0o/b+LWSChvNHFv/P1d8f26blBroddwTHXKPhzkYWRzIhw6233pr8JfaDHY+RP7Iv1/+ev2P3qzj/LydxYrt2iZX1fXbiyX/jki49Gn7NL6w7V51/Gief8nte04B178D5fz2Vv1/apeHn99O6dzifv576dy7dr+/Sg04Xn8HJJ/60/HvtRE7+2yV06dHQ6/bfDqSPeueddxJ1c9asWQ3WkfvXVZPZ+eS9Aknud7XNY+OmNVSkXc1Jrdpw6agoyxq5Xh4Mk/uO5Mz7fffdl/wl9oM/Uv8bMvH6ru3/wVXX9lT81o9Q/Nb++y0p7i+77LLko8Zj99tzGHVu6/8IpNZX6nhwc/LJ32LPB8y87TSOu8b7i7O2vr03i4uOvZjsDX/oD/oL5ET87bffnnyk0Fg0mTiqr69PbHBuqCP+/baJlaEhnLkvvE52Fn/tjWX+b6f6Xeu/mctvjbDuF89tZPrkS4TYOpJTBgYaWB3ayOy0Ttxg2Q8B1oDl5OQk4l9bGrveXUaOGBiccMlt+Ne9I7rdP8iej9jgH0u/PrehX/TG/qdaPdiva47sepdlOZ05+YRLuM2/jnd+5x8pFAolVlAaqteNYZtWhhhy5r7wOmGt/kpvy/z9noRY57+Jk448iktTZjR6Eha550Luk1RovhxoHyXT1//PDKtrykjpkJxRbn02Pfp14GQhjC654/ASRptWVWHTBP6zuvW/7MILLyQWiyV/iZaD4reaAQfot2QiLHmmZqOz5wvuSruIo/f5qyOP5pyRs/nX/1jS2vWklfatW9Mr/1+/XP3a+QCqi47mhH5lNEY+B5n47Kabbko+UmgsmkwcyRloeX5CQ53w77X1ddl0OakVx55zNe1PO+o/A6vjLx1L8a/uVViPf1BHxlY0cML/piWoOrcW73Ec3U0rfvn8/fdQeHtXxpY18Nr9MJn56vzzz0/+Ei2DPR+vIfvKEzi9j5cHPjvYCSsV9os9H7Mm+0pOOL0P3gc++0NxzXKPoDyrq6F6fcC2vo7sLifR6thzuLr9af9dCT7+Usbuz0rw/RsoGXEWrVqdye3xP9Y2f8tSUlK47rrrkr+EQnOjMfooOdDYn/q/aWWc8Ve0/c+M8ik32PYvzHNjPbm92nN7aG3Dzx+orS5FO3Y4g/v24uqz29CqXX98+5noZODAgdxxxx3JX6JloPitZkAj+C2bzUafPn2SjxqLbbxQdBN/PaoNl/fpydmt5aqWFEjt6GJ5kF/fdSTPTbqa1q1OZ8rqBnZP7fmQsr7HcGSbm6j88MDrpDz0tlevXslHCo1Fk4kjefK2PKCqoU7499jGhQ76//0ojvrrDZjnbWBt+WSuTCy9SqfUitN6GX91ZmzdqlUNZ7Jb4+TGE8R7HHUl6fMaXn3asHoVa//gLKCMVz/jjDOSv0QLYPfbTB96Bu26mHnwq+Q1hcOM3bw9fShntOuC+QD+SEajMRES2lC9PiDbuBBH/79z1FF/5QbzPDasLWfylfsGl0fQ6rReGBtsi+uptU1izOhRjBp1G13/1kq02zPpdrt4PHoMEy21jZatMjMzkw4dOiR/CYVmRSP1UfLMEBla2VD9+KmtoWziFRyXrL9HHH8Jd0R/dH7Xr9jG2glc2PoMbiu8p8HnD9g2LGNW7QwWrbmHirHncdTvEEdpaWl06tQp+Uu0ABS/1QxoHL8lJ6QHDx6cfNQY7OadBeNFW23NOXfM5M2dW3jM04OTk9FLRx51FsPr3xQyqCG+ZubQNhx59CVoH25ovW8b84YfL97jbDI2/OF1zP8gD4Ht0qVL8pFCY9Fk4igej3PRRRc12Anvr21aWcCoi4+jVbuOpFWtS17fxGL3AM78z76F47hoVCGrfoeQuadANEa53+jcMVT8Yr/RgZucfTzrrLOSv0RzZw+fLhnHWSdch+/5A2/ICk3Dnk+XMO6sE7jO9/wfDxsRyJPy5QbPhur1H7ZNKykYdTHHtWpHx7Sq/4S5blrsZsCZ/10JPu6iURSu+nk400aWVIUTYRM+0y1cKNp96ytGYBeP/f4A+dOX/88B6f6aHBx27tw5+UsoNB8ar48aNGhQQiA1VD/+a/v2GB3PRYPHMeC8Y/cOmNpewfj4yt+oj5tYmNOR1u364Frb0PONaRt+tzjKzc1tQeHgit9qDjSW35KTenLls3HYwxf36ul0wlGcemOYp/ZlTtjzPksmXUTrZAa7I9tejX7Tl79c6dr9Mr5rWnPE0VdgerxhcbR41IkceeSxDKnfz6x3v0EgEFAiHpqAJhNH1dXVB7axe10tmZ1PpNWxFzA88vMB0Hqq0zrSLllJj2h1Kt21s9nwk3t+zTZSJyq43G906qBQk5yRpFarE8KwRbDrZQLXtuH8tHU0zvZBhcZnFy8HrqXN+WmsO8A/ksx6I1dPGqrXf8zWUZvZmRNbHcsFwyMs/9kkxvrqNDq2++9K8Kndtcz+lQmLdd7+nCj3G01p/P1G0uThtz169Ej+EgrNhkbso+SeM7n3rKH6sdekMOq0VxjdHkokBdm40MnAs2WYtjzkuAMpZT8LEd1YTW7/a+l6TScuPq01rdqdQweZne/GDMqb7Gyv3y+O9Hp9ywkHV/xWM6Dx/JbMMnrDDTckHx0YW58roN9pR9HmqjzWffoz6bPtGSI3nprMWHkkR/39Vqpf+5kA2vkE5n8czRGt22N7uqG1pe0sHy/f4xj6ln30S3H1O7Hb7cpe2SagycSRPG37r3/9a4Od8K/ZxnoHUyaMZeTQ/nQ5p22iArY65R8MnBpi0Y9D5zYtI666jU7/OTdF2DHn0mvkBCZMmIQ2/huzyZsWk9dJOrLj6Wle2fA9B2hZWVm0b98++Us0b3Y9ZaX9ce2xPtXwArLCYcCup7C2P4721qd+ZZl//5EbsmXWn4bq9X7bxnocUyYwduRQ+nc5h7YyFKHVKfxj4FRCi34cOreJZXEVt3U6LelspB3Dub1GJk47n6SN/0hMyf1GZ9Kq1d+4Ld40IUnydPX+/fsnfwmF5kJj9lFSHMtsoz+tG5tYNbuUgmgAw6iOnNzqSI6/YirVPxId95RP5NLkgeWtTu7MJFcBhfH6H72HsHui3CLE0SWT65tE3P/Ufr84MpvNnHnmmclfonmj+K1mQCP6rXA4TNeuXZOPfi+7eHGBF7tZR9aEm7j85KM48oij+Fv3yQTWvPeThAp7Prmf8py+nHX0vgk92RcMR+dw4HBV8YAUUzuf3CuOjr4Sy5MNrRxt585xpyTEUZ/SvYfLHghyUkOueCs0Lk0mjuShikcddRR33313gx1xQ7be2Zu2rY/l+LYncOKJJ3LiCW1pc1xrjjl/7E/D3zbOYMplx9D62ONoI+5tJ+89sR1t2x7HMa2P4YqpM3/d+ayR5xuJin10ezL/R7a7P2q33XZb4iDB5s9uXg9147hL9TzaolPlNG92vx6i23GXom+EP5I8l0y2vYbq9X7beie927bm2OPbckKibZ5A2zbH0fqY83+WIGUjM6ZcJtrssRzXRtzbTt57Iu3atuW4Y0S7FwPQmfsmRTbOYurlwmmd2BfPun2vb1yTs29y9UihOdG4fZTc1D127Nif1Y17yL/1DI49rk2iPp8g/czx3TCs/u896119aHeM9Eft9vqi44+lddveP3qPvfuNLpL7jYp+TdyvY1bYgFqlQrU/pvNSt/rXsur9fnGk1WpbyMqR4reaA43pt/ZNxv8xtrFw5Mkc26YdJ5/yF0477S+ccvKJtD3ueNqbH/9JlsBdL3npKtp2mxNOFPeemjjw/y+nnsxJJxwv/N11BF4RUmr3qwSulWF1l/1K2faF1R3HrTP3Jy/4byPTeE+dOjX5SKGxaDJx9NVXXyWUtcxa11BHfKjsnoJbOV3uNxKCq7IJ9htJu/LKKxNZv1oCm19ez52PvP+T2ROFw4zNL7P+zkd4vxH+SK+99lqi3c6fP7/Bun2obNMyHV2PlecbaRv9fKN9JmfNZX+l0LxozD5Kbur+33uO/ohtYlHu1Yn9Ru5f3W+0hgrjZMaNG5sQaP/Lxk1UUXhn44kjeQTFFVdckfwlmjeK32oGNKLfeuWVVxJ+6913301eOZRsYd7wdhx51Hlkb2xoJ9UWZg09Tjx/Abn3Hfh+uHPPPZeqqqrkI4XGosnEkeSCCy4gLy+vwY740NhG6ibK/UatOG1wuEn2G23cuJFjjz2WVatWJX8FBYXmww8//MAJJ5yQiOFuqH4fKlvn6/+L8402rawgGF/cKCFKK1euTDjXJ554IvlLKPwZGTlyZEIgNVRHDszW4LihLcd22Xd48UYWRP1UNlliht8vjuTss5L1SqE5smfPnoTfuvPOO5NXDiW7eT3cjWOOPJER8xvYTLX7DcLdWnPkycOZ82Xy2h/ks88+S/itp59+OnlFobFoUnEkHY0ML2uoIz4ktmkRuVfL/UZt6GVd1fA9B2h1dXWJyvrhhx8mfwUFheaF3Ng6atSoBuv3oTEx0Bt97s/2G62ndHRH+tj+d/rk/bFoNMrRRx/N9u0NnEuh8KdBTgo0ySHIG6sYd35rzh9XlRDzG2Zr6Ncnj1n7eUDr7zfZZs7hqBP64dlPcSRDCidOnJj8JRQUmhfXX399Yt/c4cDu16L0bHM0l+oe+eXhvVvuZPxfj+avd8zn5/kefi9r167lmGOOYedOJX60sWlScSTPOpIxzA11xIfCNi5Uc02bIzjiqMuYOrNp9hsZDAb+9re/JX8BBYXmh6zD8ryThur3obF7KBh6Oq2O7kjOYhlGtIllodvodKNhv0///18mZ82VM44UVq9enRhsyD2zDdWTP25riU+4gjPaDyN92ihuHjyVgmW/FhJ3AHZPCWl9rueGXtdy6Rltadv2VM6/uqcYON7AhMBvJyCS2WVLS0uTv4SCQvNCnnXUr1+/5KNDzdesz7qEY88aw8KPfqyAdvBKvB+nnNiNwPMHLmhkdll59IZC49Ok4uiBBx7gyCOPTKjbhjrjprdN3Om8lfaXXc4Vl1/COaedlNjwLe20sy9KHFJ76dXjKVjf0Gv/mN1yyy0JU1BorixatIg2bdpw3333NVjHD4VtnG2kz1mncenAcYwd3JNrb1ZTvabhe/+IyRPGU1NTk7+Awp+Vjz/+OLHyX1tb22A9OTDbyLo757FgRRMdAHsAJkWhLPdjjz2W/CUUFJoXCxYs4OSTT06Ehh8WbHuJ+skdOLvDGALz7uahB1ZTYxzAxedej2HVT7Pg/VHkWFMeXq7Q+DSpONq6dWtikGWz2RrskFuayf1GMmNKYWFh8hdQUGh+yJDQVq1aJVZ+G6rnh8zuWcm82mrqF69t1FTIcvJG9lMyU5+Cwt///vfELHRDdaWlWn5+fiK77HfffZf8FRQUmhf//ve/E35LTuodPuzmy1fuZX51nILCUuqXPcI7W5NPHSCbN29O7LNauHBh8opCY9Kk4kiSnp6eyN7WUIfc0sztdnPcccfx5ZcHuMtOQeEQc+uttyZWUxqq5y3NZFrkU089lR07lJP0FWDo0KEMGTKkwbrSUk2umraUs/kU/rxIvyVTW/8ZKC4u5vTTT1f2GzURTS6OXnrppcRyfXV1dYOdckuyjh07MmXKlGTJFRSaL3IVVM7CyVmphup6S7LzzjsPq9WaLLnCn51AIMBFF13UYF1pqSYnQpSzUhSaO/fcc09iBfT9999PXmmZyNBBuS3Ebrcnryg0Nk0ujiQyi8jNN9/cYKfcUqy+vj4hAp977rlkqRUUmjeXXXZZ4jyVhup7SzEZOihFYEt3pgr7z4svvtiE+44OP1u+fDmtW7dWjp9QaPZI0SD9ltzK0ZK5++67E9lVZSihQtNwUMSRzD0vMwDJs0Qa6pxbgsmNcd26dUuWWEGh+SMPRJUbXOVsXEN1viVYz549GTZsWLLECgp7kSspgwYNarDOtDSTK0byIEl5VoyCQnNHZlyUe79bcpi0DPu94447ko8UmoKDIo52797NWWedlQg5a6hzbu4mZ97kXiOZLUVBoaXw7bffJjZ8ttTN6XPmzElk0zy8NvAqHA4sWbLkP4d5N1R3WortSyIkz/lSUGgJbNmyhXbt2iXOnGyJvPbaa4loB5kNWqHpOCjiSCIrqlw9mjVrVoOddHM2OcsoN7N+//33ydIqKLQM5P4L6WiWLl3aYN1vrrZp0yauuuoqevfunSypgsJ/2bVrVyJrXUZGRoP1p6WYkkRIoSUiz/855ZRT+Oijj5JXWgZyoaF79+6H0XlOLZeDJo4kAwYM4PLLL0/MVjXUUTdHk7GtMvbzhRdeSJbyl7z86issXXEnG+/fyJJVD3LvPU+wfOkG7lq+gTUb7mfdPWtYe/9qlq2YzwN3L2HTXXez/K4lrLx/MeuWzuPhlfO5e8MmFq59nMVLZ7F2mbhn7VoWr1rHw/et4Z7HV7HmgbU8vnwj9625h/ueepx1T9zLkrWruXvpvazdtJKlK2ex/sFVzFu+gvtWr+POVau5X3z2hnsf5Z6Vi7n3wZWsvWs5D6x/gLpNS1myaRUr1y3igQ13c/emNdy7dDlrl6xgw30bWHXnPaxcu5x71ixj05KNrLxzDWseVs7HaInIQWLnzp257rrrGqz/zdXk2RBt27bl3XffTZZUQeGn+Hw+zjzzzISQbqgOtQSTSYRSUlKSJf4vj770JDPuu4d5D95L+fzFzF02myXLV7NmvfAdGx9h3YYHWblB+Iz1c1gw936WLdvERuHP7rp/A489ci/3LFzFw8tW8fQ9T7J++Roe3fgYm8RrN921kg3L7xImronHazZtZPX6u9i0RviqjWt5es3drJu9lpXz7+Luxfeycc19PLBuJcsWLWO18JOLhB9bsnAly6cv5Z5501kn/NmadfeyYPEyqjbMZ9Zy4R9niHtmzWXhwgXcvWY2GxbP597lS7lz2Vzq51XzwGrhu1bM5M6HFidLq9DS2Oe3ZPhZS0Ku8MpzOt97773klZ/yuGhDUhi6XG58/gDl5VXMm7+QlSvFGO6e+7j/3oe5T7TfjfdKe5gN68SY8e57eeGJ53nukad54eFHeOKeu3j23rt46cF1vC7sRTEOfOm+Zbyw8U6eWD2X59Yv5iUxpnx+40oeEW1q46I6Hlwxm/uWiTHmknqWza5gYX0xs6pizKkpYsOqRdSVF1CWH6AsFiDqthJxmSkJeIj7PeQHXPhdFoJ+ByG/a6/5rIS9JmJeM/GAhWK/meKAiZKwmYrIwUlCcVDF0QcffJD4w8oY54Y66uZmcjZdzqpLJ/pbzBUdczBWjNHvxWQuxKDzEBX/X+Zz4TH4UBvysOQHybaoMEdUaEqiBIMaKvPduG1WqkSlKvXlU2atpNCUQkhrF+/jwmw1Y9fkEKwI4bCKCmcV7622U1Uxk0AghtZiID8/RFGpB2c0RMwTwiiuhayZOEsd4juVYAjoydJOIRCN4TDUUBaqw2IxkeVw4YtF8Yh/3QVhUUEDOFRWLOoYsWAhrqiR8riDUo2fqLkKSyg/WVqFlsYrr7ySWPU1GAwNtoPmZnL1WpZHbrhXUPg1Pvnkk0Q9MZvNDdaj5m7xePxXkwjNXHMvWk8+WWY3mSoX2Wla9GkmrGYbBdMXYvfVoBPXU03ZjE2N4DGFMGVMI2A2UOry4862oM3KxOUPY42YKagppLTUS6HfiiZTR4U9nyqnn6AnC6s1j5jOhEOjwTVxDHlTUvEZ/fhTTOTbjTjMajzis0zp2XhidsZnGlDpXRgcOVhy8zCmW8kVfrBAp8Ltc6OzGLGbNGSPGYdVXIt7DZjvGE/epFwMVgMzHAEKzEZMpbpkaRVaIjJTsmy/M2bMSF5p3rz88suJUN/p06cnr/ySRdPL6d9/AP363SSE4a0MGjiYITcPYewdY8gQ7UqdlosqXcXUCdMYfssIbul3M7fdNFC0jUkEdDryRdvJGT2cQF46Mb1oX5PHYUuZgD19Ao6MCfjzUvHmTCOiy8GZmUKeuDdzxK1MvfVmMkcOQzVxNMP79GDUoD5kjR9B+pjb0KdOxJ6TSoZ4XjtpNOrxoxg/sC/Ztw8jb8xIxgzqz4CeXRl6040MG9iPYQP6c1vfntx+47WM7H0N44VN6N2Fyf26knFrL1QjDs6q2UEVR5LZs2cnMuPIP3BDHXZzMpmAQc5OyFmK32L5XRvQqgPEhIq3Gt3kR8I47VqsmgzMOht+i4uMfB96obJzfFoKqiqFQzGhE44m6ikiYNRSW15IjS5OOD0LrzWfwrJSglXisbOMoCGOI1eP2ZGHUx9m5M06MZAVatwZwOj1CjFTgM9pwON1EzblEzeEsWcasRk82GJC6Dj8aAxaDC4d5cY0IkKla9xGgloHvqgDm20a+eUW4STVqLK8TDMGxOu0GE25FHurmB+ZiSdLlSytQkskFoslVloWLVrUYFtoLiZXra+44orEKnbTsofPXn6G75U97s2afWGlcg9SQ/Wpudq6desSq2LTpk1LlvSn3LlgMe6olRzzKCF8ghTareR7dTi1qQSFbzCYVGKgZSc34kRbIPyJbjxBcw5hg4XicAiPx8MUXRp3qKdhiGjQZE3Elp5C0BnEYRQCK8dMsVrP9IJ8XL5MyoI61KosSnQOvA411oAWj8NIZlo6RSELXlUu2Wo1hd4i8nVGzOJzHJ4CYvk2KvKNeNWZeMVgzTzpDtKGjyI1w4g1z0I8EsTjc+LV2/BlmAjYfJS7PIT0WRgs+mRpFVoq4XCYk046qdlnI5VjzGuuuYbBgwcnrzTMwuoCevfuQ8+e1zNk8C0MH3o7I4RNGjuR7Knp6DPVmFUmIZQyGTn0DgZefyND+/Qh/Y7biWhV5BtU2KeNpdicS0yMT43jRuAW4iakmkpUm4Y/ZzJ5I4egHTOMqCYLd9okcocNJpabQbXDRFyvwiIEkF68Tj1aCKPJY8kedRvmqRPRTxyDfsJoymwmQrlZ6MbcQc6IoYwZ0Jf+13YRAqkbg3v3YkjvntzarQu3de3AiGuuYsy1VzHhOmHd25PSuxOZA7omS9u0HHRxJJGZ3eQ5EnfddVeDHXdzsLy8vMSshJxV/19seOg+bIEgAXsUt62Q8vwa3FYrwZiVTL0aT6QQuzuKWmcVDimGtyiOvyhIllOHP+jHnmFHn2MnW+UhXlGKTxcWoiiKqsyP2+wnNtyFzVKJThWjUB3F7w5TVR4n4Ckh02Cg0OMm6FdjNzmIaX24hChyGoNCMEXQeOxE80PU+YpQ53ixa1zoJ2kIRAxE7F7xnUO440Vk67OFA/OSbfWQVVFCerYLi8mLSjiaAlOYGr8lWVqFlojMZCUnA2QYTnPOXjdhwoTE6rVcxW4ytr7GEmNfzjr2JPqWvClkkkJzRcb4d+nSpcWFlcqDbs8555zE5vWGWL16MQ59DH268AkeL+Y0A9nDDGQOz8XlsOMrDlDsL8Qc9ZJj8mGZkkqeMQenEDXhMjcGnwGtz0Kmw8aYlAz0aVaiVhem/CwsUTW1BS7s2lEYHINwzxaDrHAGOVO1lGdbMGWNEo+dhELCdwn/FxJiaKIYoOUIcZYrHqcbNagMefj9pRQKH6kSbdo+LYtoZjY6iwm33YfX6cGVoWLK6NFMSM8kY3w6/lwT6mkqDGPGoxs/HJVDWTlq6cj2K9tuHyEAmnP2OovFkthD9eGHHyavNMySmiJu6j+Qm/oN4JZBtzBq+EgmjZlARkoa6rRszDl6PCYXRpWBlNETuPXGPkwbMQxb6mTy1dmUmvPwpo/DNmk4rqmjyRzSH9XwQejH3IJ9yh2Jf13TxlCoy6RAmynunUjG4Jswjrmd3NsGkz30ZsK5aQSzp+FMGU+GuKYePRyNsOzbhpB1q2jvUydRaTXiT59K2pCbuf36nvTu0IF+Xa9hUM/uwq5j0LUduKVLe4Z1uZKR1wjrcoWwyxjT7QomXn9wDqs+JOLo008/5eKLL+bKK69slgJJr9cnslz91vLmj1mwZBU6uxZdVi4hu5OgxUNxpByN0YZfiBK/04fKVozdEiJijuIMlaGxqrB5/OR41GhVdizOGHmaODnaGFqrF6vXSUYgilZvonCSlproDEz6QsrsVYSN4vlsNWpNOvk1XspihZT4Hag9BkrE/ZVCjEV1TpyuMCqnMLUftVoIrHiUKZMyMIZK8RR58TlUlIZyKYy7CHkr0GZb0YaC5AQDZBgtGL0RbPkBnGY1NVNjydIqtFTefvtt/va3v3Httdc2S4Ekw3nlAYHySIEDYetnH/L2l790tNvee4R5wQwGXNKO1qdczaSKJ/hSUUbNnldffTURztJSwkrz8/MT/kvupfo1Hli3iImTpmAxywm8VDzC5xkNos/P0BFwewn57eL3MJPtNmAPugiYJhMMTMNfmofH7yceLcCqdWA0eZiQZiJLHxB+y4/JlUEg5iLqclAv7lP71HgL3WgsBtJTzFim6dF5skkzZ2EXYkuvMZGn02PyWjFqc1HnasjWpxENuMXgy41Pr8GYNY1cl4FcXS5p0n9NFN9zvEP4uCLGjU9lki4dm9WB7nbx3NRp5FtsRM0mVD5NsrQKLZm33norkVxF7j9qjgJJ7iGS0VarV69OXvl1lk0v5Y7bRzJi+B2MGzmWKeMn7xVGWXmY83S4DTZCjgBeswNtWiZpI0dgSZ2UWAEq1GRQYswS7eoOTONuxTpxhBA8gxjTS4az9UV9hxA/t92EYexwcoVgmtCnJ6Ouv1YImasY2qsL3S87l4HXtGfi4L5MGzYQY8o4TBPHkDboJnSjbhc2nDwhkFIH9CVXiKRwdhoZQwcxWIiiG67qQO9Oneh/bVchkq6mT+d/0LfzZdzc5XJu7XoFt3W9nGHXXspt3S9jRM8rk6VtWg6JOJLILCLNUSDtE0bV1dXJkvxvFj6wglDMhNPhw5WuJ6QNUBAoo6goLkRHCE+umzxTCWZfmRBE1VjVXsIaK9lC3RvrPKjsMWz+CGW+OKX+WoxFJaiEkLF6hWCymijyh5lvKUGvdeEV981zepgXEs4jPyQEk56gcGB52ono/Hq8GSqCuijmbBvBkJeKSCX6HAduIZDcTi8Tp5rJchQQi8cI2TREdBp0Ojs+Y60QR8XYnBEc4j0thfnYavMxuzSYLXYi3mCytAotmf/7v/9rlgJpnzCSZ64dGLt5QH0JRx/ZmhPPupQuvXrTs0t7LjnnNNoe3Yo2Z13LSMsMHv/kt0NtFZoXUlC0adOGhQsXNli/moutWbOGM844g+zs7GTJGubR5Q8Si0QpyY+QK8RPPBYnHHUQsUfwmXzMDJrxhJzk+uQkWwFu4ddKhBgKFjjxRiuxGJ3YhD9yWswY1BZKYvl41GbcmULopBsJ5vop0sRISdcyfkIu0yapybL4cGQYcFi1qB15pGWlMW5aBilZWWRl5mLPyaXAY8EZ0GB3CnGW5WDs1FxGjZiM2ejHEinglqnpYrDnJPOWLGzTDKhy08n1G9BbdbhGT8GXpUefm01O6mQMfneytAotnTfeeKNZCqR9wkgeF7M/rJxZScqkFNKmpJI6eRq56dloslUYVTrsGhNeo52gzSPMjVunx5w6BdPkMYRzplFuVhHJEY/HDcM4bijWyaNJubkfGcMG4xfP68fvDZVTj7qN8X2v57brrmF4z+sY3Ps6+lzbkS6XX8C1V1zI7f2vp/fV/2BQ92uEmOlM2i03MeaG60gZcGNiZWlsr2u5/ZqOTLnpesxTxjHgms706tiRHh06cn2Xq+klhFHPqy/h+k6X0K/zpQzscilDrrlUiKiLGNLtYoZ2/0eytE3LIRNHkuYmkP6IMJJUL78LnctA2FlI5vCRBFVmYu4Qbr8TvxA5AXE9P7oMrbkIl6EGr7MYd7YJt6MSdTyIK1RAfpkOk30iDmc+6XrhCISQ8lhiqK1WPFE7cUM2RS4j9TMqKMuzMsNoJVIao6i4ljKPhwmGaWRYU3HlmAnbivE4ClF7QviNMdyeAqbZ9FTdWUNpSRWugB1n0Eql3YR9bDaWbBd+XwEmUz7FvnIiRrcQYbUY8muI1Rdj9ljJF4JN4c9BcxNIjSeM9rLn3SpuPqkVRxxxJMec058sV4DCmgWse/IdtuxO3qTQopBhpTKFrsy22lzDwe+991569OjBBRdcwNatW5Mla5hnNj6E1xXCrvOhzc8j5vORrcvGmGGkPGYiYhhOoT2KUxshP0fDcquNwmwPAZfwW8YcCqIGstRTyDJOIBTw4c/LITItlyKLEb/DQ8gZwuXSkumdhiaWQa4qjfE5mXimTcaSMoUcMWgKmp3ojblk5mShnmTAo9ei1w0nKj7DlKoiZHdhGSd8YboXi1ZPIFdPxjQd2kwXmXkWLFkmwi4zrjIHZov4TumZmFIyxWAxh5SUydyclZcsrcKfgeYmkH6vMJKsFOO/9JQ0cjNyyEnLQpujxpCrxazSY1UZRHsV7UFnwW+2k+9w4FNl4UqbQDQvlUJNFtaJdzDt5uuZOqQ36rHDmXrrIGFDSBs+BE9Ommg/E9BNHMvEgULw9LuR0f36cPMNPRnUuyf9u19Lrw5XMvC6rtx4dQc6nXcO111wJjdefj6TB/ZmbO9uqEbcwjghlIZ37cC4Pt3IGDGEW67vybVXtqebEEfdrr5K2KXi/y/i+qsupG/Hixl49cUM7nSRsAuESLqQW6+7NFnapuWQiiPJjwWSDHdpqFM/HEylUv0hYSRZvP4hLEVFRCMuyr0WHHoTurxciuuKmZCah1Y4igxbCJvGjTXPiTZUiMlixWV04nI78KZrKa4SoiaoItsjTO0WjimfkMZJxJWPxxyh0qomqh1P3K7HYDDhy45hzrMRCQpHZLNgDheS4dAJcWXEI0SRxafHUxTEoMvDYItgkataFgsq4ZzMUyajFo6uTAgolysqHI4eiyFIfniBEEgBtLoIablOcnNzMEcDqAMBrOWmZGkV/gz8WCCtXbu2wTZzqE0e7jp58uRGFUZ7+YrFY/7K0X85m7PaHM+FtxXymBI/1+KRvuqSSy5pluHgUhjJ8/jkga/7s092xapFqD1mHJEY1hKLEBl63D4VXrsTv96KTZ1HyGii1uqh2G2iSu9hlt4vBk8ZVIS8YjCWKdqehil5U0kZO42wyUNUbRd+xCzEyRQsOdm4/TFMHjvmmB2jOp28bOGLpqpIGzkJU1omvlyX8JkxMnR6MtVGJonXTtNn4bHocWXZ8aQ5CGRIf+QkK2Mq08MBId6ycGhVuHLsqDJSUWk0pE5LR2tWEdboKNLohWhLQ5U7hrS0O5KlVfizsE8gycQG8pDzw5EffvgBp9P5u4WRZEVtCSnjJ5Mp2mHWtCxy07IxZmtwinrvVhtwq8T4TwikmN1NbThMTKfClz4Jx+SRwkbhmjqG9CE3kjG0H4aJI8gcPohx/W8gd8zticQKY8T/TxrUXwij3ozuez1TbhlEn86d6dOpM4O6dee2668X9/QTIqYLw3tcxy1dOnDL1Vcy7vpupN3UhxHXXM2Ufjcwssc13HqNuN6/JynDbuGGjlfT7aqOXNOxA507XEHXf1xCL2E3tr+YAUIkDbn6IgZdfQE3d5EC6eJkaZuWQy6OJNLpSIcjN5zJtNgNde6HypYtW0bPnj0TFfWPpv69a/UqMoX4mVVXK9S6F5PDRXF1RIggGx5vAe6gH39hgIAjTEBvITfkQWPIoCCkIz8WpsrpoURnpsRXjj1fi8buQKVT4xQOyhGwoTVayA+qCZul0MkgVFZI1FZJqbVEiCwfhqCRQJFwSlErBaJBRAvLCBTmY7IGSMkxkmfyJ8LjQv4pRMM5FNtMeP1WZvgKcHh8BEpLxPM+rLYScnQuLC4rOpcdhymVQn+cimAFOk/DWY8UWi5SIJ133nkJkVRYWNhg+zlUJsOfOnXqxPHHH59ow43NZ/W3cOI56Sx5oIBhFxxH28vGUvXc5uSzCi2V5iiQfq8wkqxe9TAZNhs5gSICEeFDxKDKnqdGla4lEHAQ9Rko9uVQEY+TG8wlEC7BmetEpbVhdEZQZ/rJmBol7K5Am2HAmmnAZrWSmzWNQpsOb6oUWF7U09LQZuZiGpstHgvxpasQgseFQ2VDM34qGVmjmTpJh15jIFRYQ6oQSU6PhYDFhio1F6Mrj2zh16box2E0ZWEy68mYMo30sankGbIZPzULzQgnaeluTConk0eNQpc+Hm36HWjybkmWVuHPhBRI559/fsJk+zickPt65cHkMjPsihUrklf3nxU1xUwYNU4IpKlMm5hK+qRU9Ok5YlxposDiIGZ2iv+3UhWIUO7xENXkYRozHM2wmzCNHIJzwgj0tw/CIP7fNHYYquEDyR42gGmDb2Ji/xsZdm1nhnS+SgibqxnRoyspN/dn3E19GduvD+P63UjKwH6JfUVT+vUk/eYbSRU28YZujL72atKFmEq5oTu3d27PyO6duP26q7hFCCQpsob06JFYPeok+tX2V15Bx8su5bp/XMb1V15CPyGObupwPv06nEe/ThcwoPNFydI2LYeFOJLIZU6TyUSrVq3o379/YvPZzzv5g20ulyuRBlKepP/Pf/4z+U1/Pw+uXY3dXoU7L0TqBD1qhx9b2ES6SziJUBHuuA9XlROdX0fYmYW32IO1zIV3lh+NO0hqrgOPxsuELCsGow6PJUBpzIjVkUKmJwVVaQaqGiNlRSb0PjW52hxCQkgV+AKY3Hm4QwYCMiGDVYMmZzJul4mKgioM0yJopviEg5tJmfgOxUVCINVEKI7WYJSpT7NkWEUErzaKS1eEwxojGHNiDTpwWoJoUqZS6DVhcAXx2pX47T8jcvYtPT09sap62223JVIEN9SWDqbpdLrE/hAZBvXmm28mv2njsvNRPZe26U/Fx3vY/fEmvDedxTEndWTa7Jf57YAlhUOFDI0rKytjwYIFySt/jOYkkP6IMJLMXfAQ2qlWMk1qKssjBO0eZvhiaFUafH4VBaEoUaedfJ0fX8CDXR7/kJuK1+TBZrIxKsuEIzQfrTuKKd9HvvAxtQUxDNqpGHVTyEoxMD4zA5MjjcycTIJ6J+6oiyyTA5Nag85pQJ+dRq5DvGckglUXw+XLRy9857Q0Aw6TBYclE5dbT6ExQMBkJ9eaw3j9eHKdXnKyVWJgNwH3HSrU4/WkTcrCqNaSocogVTWFbOdUJuWlJ0ur8GdDZmlMS0tLjDdl5uFt27Ylnzl0VFVVccIJJ3D99dcnkkj8EZZUFnDb4KGMGTGWiWMmM2XsZHJT0nBrdMQsdgptbvItLuYVl1PqcGKaMJaMwX3JGng9DiGIoqnjKM4R47qsKQRTx+NNGYN1/Ajyht9K+uCBTO57I2N6CrEjTP47bUA/tKOGJVafXOJeixBU7km3Yx09GP+UEVjGD8M8diiaoTehFp9jGynep38Pbr3qIoZ0vJhBV1/OkGs70afz1XS+4nKuuvxSrrj8Yv5x6QV0Ef92/8fF3CjuvfHKc7nxH+dwY/tz6SuE0sHgsBFH+3j88ccTYXannXZaIkd9Qx1+U5sM77vxxhsT4TgOh4Pvv/8++e3+GOuXbxSKvZ5IoRd/2MGkHC0qqx2rNYw3EMPq0RANufF7Q8QMWjwuK7ZCJ4Y6D45wGZkZNvQ5IfSZUTzCIQWKCwhFLaRNzuIOmYWkwIrDlU9+sAy/M4Y6zcr4rBzMTguuSC718aBwTMX4rAYiYR+FhUHcJhWezDycWXJFqo7K+DxsGg9+rYcCjQObMSgckgtLuJhstZNYoBSncHyVUXGPJpOqDC/lzjhRT5TMYJBxU9XJ0ir8GdmwYQNnnXVWwkpLSxtsV01t8iwaGeYnM4vJlSw5GG4qdr/i55o21xJ8NbnJaNd73GW5ntNbn0KntBls3vXD3usKhwVycktGABx99NGJs/YOlH0CSZ6ZdbgmaZB+TKbf/73CSLJw9lo0WVohKDSUerIJ+LMo1qeTZ0ph/NQMfGVxykvczA7bKBb+qlwdoTBFR0j4Kq/Lh8YpRJGrBIc3gm9GMZaCOM4cAzWeIDF/Gro8DZ6CArzCRxlydMyPl+AT4skRsxMr8hOOeYkE3ARDHgqL3Hh1IZZULSKi8RMTn+XTCxHlMeKojpEmBnN3TJhCSu54zDkaNNk+7khPxRLIw2q0CqE2hZvNt6MyTUajycIihJfOPglHamaytAp/Vu6++27OPvvsRFt+9NFHk1cPLvIMpptuuikR5SAPZj4Qv7WwPMZNN/bjloG3MnTI7YwePpqsSVNx5KmJmKwU2d0UOzzU+CPETaLtjR3F1Jt6kTXoesLTRlNvVzPdoaXebWRNZRF311ewoqqY+UX5lLuEuDIbKbaaxL8GqrwuZsfCrKwu4aHFs3h82RzurivmnlrxOtEuH55XwYPzq1hXnc+dUSe1hiyiKaPxjruNzP7dGHltewZ3vFSIo6vp20WKo0vpcPlFXHnZ+Vx58dl0Fv92+8eF9BbiqE/7C7jxCiGOLjtbiKSzk6VtWg47cST57rvvRCemScxGX3311YkD5eThjQ05gMa0efPmMWLEiIR6l07vmWeeSX6jA2PFw5tIF+LBGs9F7c1Eb3XjcUfwq6JYDF4sQrSU6cKUmWuYXzwdmzeMxRUky28kx+NFZXdgt8SwTXPgT8+mUlTIaNROtjNATp6BLMtkym0RAtEI050eLDE3aoMeS9yGO+7F4NNT5HUTyHFgTc3G60vDmJOGW+XCmGrEJz7DYHBi1ObjyHIwPRIjKLPoeRyMyxZOxmYjY9JkPHYTIa8fk8FC0GRDa/bgs1SQm2lFmz4hWVqFPyubN29mypQpiXYrz5aQkxty309Dba0xrb6+PnF2mnQu8qC81157LfmNmo5dT1lpf3xPYm/9OAPDDt5ckstJJ7RNHDLb3A8ebAnIGWK5kignuuRK4gsvvJB85sCRAkkmOJCrlPIzGqqbh8r8fj+nnnpqwo/JVOS/lxULlqHJiaAXQsR+RxahUDrxSA5T09Jxxmbira5A59WhcUylRoghy0Q1IbOToM1JkdVLgTWA1RXHUuojJM8qsvsorZ7O9KIK8ivNVC2dRfGiBVTNnU55dRWxkI/amgqqSuuoLihnZlkltcKfLamvZm68ijm2AEsiGiHGjMTdwcRqViCWidtjIVOtZpLOQLBQSyA3BV1KNmqfiZxQDgM1KZjjBWhTNaRo1ExxqslyaxgwbiiuTOWcI4W9fkvuTZWrSHIv0vr16xP7fpoaOWEjV69k/yEnMWS434EytzhEr+t6cn3PG+l340CGDhpKyqhx6NMzcKu1idWjUoeX6b4Q/oxM1LffypR+3bFOHM7cmIONQsy8/OAavvzXi2z9+G22fvY+Ozd/ws6vP2Pr5x/x7acfsuWTD/jmk3/vtY/fZ/O/3+HbD99l6wdv8+17/8eWt1/h6/97gS9fe4bPX3qYj57ewDv3r+TFZbPYVBmj3pyN+fabyBjYizu6deSWaztxc49r6Nb+cq65/EI6C2HU6fwz6HbxmdxwxXn0F+JoQPsLuemKc7n5ynMZ0uG8ZGmblsNSHO3j+eefTwy25EywTD8qs07JOMyGnMEfNTl4k4M4OZg74ogj6NChQ+L8osbMZrLovjk4C8IU1ZaRJdS2Se8gP+zCY3ARcRZiC4dEpS2iwFiZyMCjlqeGR6YTdHso9AcIFwYJGC3CQXmIWz2UBQsw+K1kRwrI9ZpxBTWEco044xEisRDqmBpbyEJ0bgnBYi8em576cD5Fajsxf5hYvl4IHTsOIcjczhrcoXzMHh3BUB4FPgdRrYtKi5linx+9TU1ZVQF5ASsVMwqJF1STlWnHFzKhtskNuwVkOTyYyrXJ0ir82ZEzcCNHjkzM0stZOZk2WKYQbqj9/VGTkyVutztxKK1st9K5yHApeejfweDrOcM56bQJLG8gGuOJxx9LZDWTh83OmDHjoDhahV8if/dLL72Uv/zlLwkB3RQrifI95Sql9FFy1VKuXjZUXw+WyXB0GZYuB3pms/kP+7F162fhM/jI1BXjmmbH6ZssxNB4zKosanxlODU+1FluPHohfibZ8WumUiIGV3PLCyjz+plTFKeobB7Vi4ooLYpS6i9kekUx62bUU11RQKQkRk1tNZU1XuZPD4pr8wiU1VC9eg718+biqa0QPkb4xqIaCqtLqYwGiWp05OdpKLHZqIxE8Wgt1AYKcapVuFw69FYVOdpMcnKt2JwG/I5puGWCoUnTMNvySDFPxZmVhlkIpMx6Izm13mRpFRTgkUceYdSoUQm/JVeS5CqOFE6Nya5duxJ9hAydk35LrmbLlefG8ltzSkJ0v64HXbt049prenB9jxu4bcBgMidMxJqdQ75ViCMxxqy0i7abMhXDqOGYxgwVbSqPp+5eytfvvMj2z9/j+28/4/vvNrNz57d8//02vt+xNWG7dgqT/+6z7d+yZ8d37P7uW3Zt2cyuzV/w/VefsP3T99j64Vts+/dLbHv7eb5742m+fu4hPnjgLp5dXE+5Ji2xx2lSn+7c0etahnTrTL+rr+QGIY6uv/BsBl12NsPan8+oa65gXI+OjO1+FWOuvYIJ3S5ncvcrkqVtWg5rcbSPL774gkgkkhhoycQI8rRjGSdaXl7+h1IJy0GU3E80evToRBiQbAxyMCcbR1OwaN0qbPZS8qxmxuZlYtFZsAd0ROIhSrxWAsU2TJ4wXn0V3gw9kwwqHIEoYb+dYIEPnW0cuqypBHNymR0twqn1CEdVgtXlwOtIQ6OailfmqI/PoFw4oVg8iNlronx1Ke78qRS7jdhTdFQZXcQrAxQUpaPJTMfrLiZd5UAfVlNYZqU0bMeS5yJPE8JlCBKyRPE6hYCSh8rm2MkbmUmJo5JSjfjtYwaytBnkCZHk8urwW5RsdQo/RZ7mLdvZ6aefnljVkaspckVYZnyUYXgNtc1fMzmJMWfOHGxiYCRXd+V7ygGpnDx57rnnkp94sNjOvZnn0eaGQt7+FZ8mV7/loaFyFW3QoEGN7mQV9g+550b6j6ZGrlbKVUsZdWA0Gg9KpMPPTa4WyXB0GZYuw9MPhLXLakifqkKT62PSBCcpjmyMdjWmlHSK7YWUO4MUOApwmJ2EU6zUZutxj8tmblkhtfNqCUYD1MeKWTWzilk1BVTMEb6pLJ+qfC/lVRHKF7kpLwwxZ2kJSxabKZuzgGBRLe4yE5X1VXiqKiifvhBdcCbe4ijllhJm2ufiyvYRKxRiae58PLYg050F6PVOimoLUTt1ZPjN3DJxNA6LHaM+A/u0FJx6DU7DFOaXeMjX5lBp0xEqz0OnHZcsrYLCf5F+S2aLkxPysj3LVSW5H0hGEv3eLRZygub1119PRCWp1erEeFP6wmnTpiUm/xubeaURevXoxbVde3BNl+50E/8O7N2XaaPHYBPjx4jJTLHVQYVoH27hO3UjhlGsy+SJlfPY8u5r7P7qQ/Zs/YofEuLnO3YJ0fb9ru/5Yed34tp37Nm+ld3CftixLWF7H29h97bN4nWb+WHbV+z59nP2bP6IXV/+m+8/f4vvPniFHUJ0fffaM0IgPcInj23k3ppiHONvRz/yViYP6M3IG7pza5eO3Nr+MiZc0xF172sw9euKZdD1WIf1wzS0D9qbe6AdcA16YQeDZiGO9iHVtVw5kupentUglbcMl5AqXy6HynTbcvAkw/BCoVDCWchKLhM9TJgwga5duyYSLMjXyUp/ww03JLLjyfCIpuSeux7Ba6vAFdVjklnmhPix+JxEyyOJ7HFajwVrXQ1aexRdbgr6fAfjnA4KaiPYDRocDg3uQh91UZcQPrVkT/Jh85VRFq3AmpeDXa3FYwnhM5YS1pdhzzUKgTMNR8xJllFLmiGboN+NTW0VYsdDwJuHQ2XBo3NgiwaxR204rWoqPXHmemspddowZGTjjFvRROzi93QTdOiotscTzlJrsqAqdmGyR/DHTBQFcgh7DMnSKij8lJ07dzJ//nxuv/32xASHbH9ykkOurtx6661otdqftFvZJuVePznIHDNmDJ07d060V/k62X779etHLBY7KIPeBtlyF9POPo5uIeFMkpd+DbmKJidzDiShi8L+IfvxQ1YnBNI/yfp7zDHHJDI4pqamNvnxFDIBivR7MvOWXC2SAzApzA+UJfPWYdNEMdpKmGIpR2sJkjZenzikNayLYskMkKmJMTp7DLqRORR4XERsbqqDPvLL44TF71ASK6eiNkBBhZXCwjrKFwaprfOwamUVd62MCv/lZNYCIaCW2KhYHqe8NMqiyigl4Qg1xZUUxWZSKDO0Ct8VKCqjvmYds2sWUVdTTllJBfk2B9OtRpwpagpswp+GXOhzguI3sKGbmEWpXkdN0ENYPJbCbYbZR8DuIpSWR8SYjc+r7DlS+HWk35KiRvqtc889N+F/5IScnATJyspKCCb5vDwmQiZmkWm35cS7XKWWvkv2+/vGmzLEVe4rkodJf/nll8lPaHxml4To2b0n3a7tSdfO3ejWuTuD+wwgN2UaHr2BfKuTuBBG3rR0DKPuoNykZVlJmM9ffppdn33I7q8/5QchcvbIlSBhu3fuYNfOvUJon0D6QYqj7eJxwraKe79hlxBUu779kt1CGP2w5VP2fPOReK9/s+OLd/juozf47r1X2PbmC3z3xvN88+LjvLpuKdG0cZhHDsExaRQTbtyb0S6zdw/sg2/Cd0tfvLf2xj18AI5RQzCNGIB+6A2Yb+2Jc2ivZGmblmYljn7OV199lZiBlg5JZsq68MILE2pfhrPISizTIcqQCqnWZdicdCJz585NzPIdzFCX5cuXoHJ5cRbpKA75MOty0AtRlG5II8/gI+IQKjpYSb6M5fYL0eGwk1MlOv+ZRVTFSrBZA/gdNoIRLblGK3aPD2ssgsrmojASIxqJ4Mj3k++K4BJCK9upRR0OMDMaJxovQBMPobIahKByYZYZS/xefOo6YuYl6PVhosKBxHxm8frp+NUBPH6tEDsaampDpHkNWIWQ84pr1cJp+Y3CAXmdpPnDGKcW4HYW4inUEI7mJEuroPDbfPrpp4mzkeQhd/JAPjmwkytB7dq1+0m7lUJKhh/Iw5dl6MEfzeDT2Ox6xkfn0wdS+a5yttHhwMcff5yIJJCiRA5KDjWfffYZwWCQM888M/GdBg4cmFgtbUjc/FGTq6jDhw9PtBV5BIacAHz33XeT3+DAmb/gXlJGZzEsd6rwOdrEXtWwwU7EoKI2qsWpd6DKCuHOc2DWCPP5CEZnUVBXSXTebGpm1AmBs4QZy4qEz81n7uylhGdqqF/kFu9dx/KqMubMEAJpQYwFi+JUL/VSPStMZXWMuhk1VNdWUFu+QPiVYvzTC4kvKaJcvPdc8f+1BXEKXRXMqBTiKxagzGDDOz4Td6YO63g/Wnm2S+pw/Gnie0/TERB1wxowEzUF0eZ6sI7KI2PyOELRscnSKij8b/b5LTmJJ/e4yvGmnASRAui4445L+C/px6SQkum4ZeTAokWLDqrfmlEc4Pqee/ccXdepG90792DEoGFY1aIdWJwUOQMUWm240qYSzEplQczHgwtmsu29t9jx1Wfs3vIVe7Z+zR65AvTd1+zeIf5/x2YhjIQgkiJJ2J4dQhBJUZRYNRICStiubd+we5u4/9svxOs/Y9cWuU/pA77/8t9s//RfbH3/Nba+/RJb/+85tr7+NB8/cS/Lo3Z8k4ajurUv2YP7oBrcF8dtg3AO7odj0A3k9bmO1H49SbvlJlJv7U/aoF6oB/fAqoijlsOKNXeTYckkw5uNVpeHPWgntySArtCPVQiVCmuEYKg84XCycvNwmFxM9bhw2aNEjF4MGUIYaS04izMoDQYw1RrRmPMIWizEHVqMZjXakAq9RQicwjLUUQ9TfVpsonHqg24yC91kOQw4C4KE42GqXGFyU3MIV1ZT7IkSsDvQGnQYbXZMhQEM9T68UTOhoJkUQyYOea5E2EhdZSk2u4rckHA6BYUUuGNEXDE8pjxcxcqeI4U/D3JW8Y8i04vLVWw5y6jsR/rjyBlYi+gD5YZmOQFWU1NzwJlFGxO5kiRnlWWEgpw9loOpm2++ORFaKmed9ze0VIbo1dXVJQZbcqVVrrjK95PJiuSetu3btyc/sfFYMnsVaXdo0XkdBMMeDNk23Dk63GlpVMZCGLMdlEbimHMs2B1GfO4oDrcNY7GLmjsXM7O2jPq6ZdSIf+eWR5k3q5T6eVXMqsyn3FFCVYUQRNO9uIqE/7EGWTy3kBWLCgnOrqJ4+lxmVtexfvpi4uJvWrm0ihlzXCyeHmFxqYOFRUVUh2sJegOUl5dRV5ZP8eRU/G4ddn8hOuFjXZap6KemYrW40ORqyUyfgttoYewU4V9tPnIzMykw6pOlVVBoGdQUeOglxFG/PgPo0bUXPbr0ZOywkbgNZoq8YSoCUUrkQc5ZGeSrsrhTjAefWbWY74Q4kvuFdn+7Vxzt2vol30sTImnXdimQhBhqwGSInbRd27awe+tm8fovxes/F+LoUyGOPhTi6AO2f/I2295/na3vvMzWN57l21ee4Mtn7+fFZTMp00wlbUBPdHcMJu+W/miHCKF0/bWMvfpyRl/TkTHXd2d03xsY1bcnE/teR+aAruKebsnSNi2KODoIPLxmNTGvD5/dzGwhinxuD3qrFZVPOJPcycTlIayZeehtBrz6IFaPG4s7gtlRQLpRCBy9F58jiD1golAXQOuy4shwYktVC5tKtMCCqUaIJU+IurkxikrK8YT8eAIeLF47roB4jcUvrBiveQbx4CwKC3wUC6dS7o1id8l9Tfn4nW5Ka4N4RYPxl1lJsxjJDYvvFgklDo4tjczE4S3DERTCqH4RUWuAsNaPKi+HQEjZc6SgsD/ITfIy5lzuR5Kb+B9++OHkMwr7i8zsJEMt5R6bIjFYboxQsqbk5ZdfTuyblSE655xzTkLcyNDSyy67LLGyJCMfZLi4DP+We2HlY7lXrX379onVVHm/nJWWK61yxfVA9xT9L+6auwy7sZicdB2qSZlMm6Qnb2IeTo2DaLicAm2QfIeZbJcerc2CTe0h7HMQi7soKohzz6pF1FUtoDKUz4z6IioW1VMaL2d+YQ1VgUr8cT/lc/IJzKxndf16FlTWCZFTTbi+mJL5UcpDJcwRfmzW3PnMWFTN7LlllATtrJtZw4q6auZNn02w0EPdonLmVAapl98hmkueWcfYyaMwB/Tkjp9M2mQhknIN5Kfq8WWmEXIaMJhcOFL0uNJsydIqKLQMKqIuul13Hf37DqB3jz70FOJo5C3DRfvUUegOUBWMUSHGn8GcDJxTxlHnMvHIwpl8+/Zr7PrmMyFspLgRgkjY99KkOPpOiJ7kCtE++4k4+m6fOPomKa6++I842iXE0Y6kONr29kt8+/qzbHnpcT57ahMvrZjFHK8O4+hb0I68Bcu428kYcAMjO15GvwvP4dbOVzO8Vy+GXX89t/a6jpHXd2FKn86k39Q5WdqmRRFHB4Gn7ryHsE7PTCE2ip0eSh0+oi4hXBxWog49VeEIYbefSIEfrzNGpKiYWKkQIUVVWOIF2MJhVHodRaVVVBVEUWvM+AxhAsIxBW05BAty8c614Mp0MLMiiCdbng0RxBcy4w55yDLZsHpD2O1e9OKz3bUBDPYcaqP1uN1W/JHJRDwm3Go7+WEDzjI3OouGiZM1pLmLsBqKsacVEtTFsAWKKQjHCYYiqLOcGEYZyBOOMWadniytgoLC/iD3Ick4dDnwlYNmJfX3/rN161aWLl2aSNXdHJGhd3K/kNxfN27cOIYNG5ZIWCJXmWSdGDp0aGK/nd1uT+xb+uCDD5KvPDjcdedcdOZM3E49NqeOFMcUDNY8cjJT8YQL8Ap/lW/X4DEZsFnEoMsznYDDg3dWhCKZka5uFtULZjOzsoLlsxYxf8EC6sJ1zCqaTbwqQml1mMoFM8guDbCguIbSojqiNTNZuKSEVctqCfhnUl5aw+pl9axcWkO9eM/ls+cyJxBhjq+AhcUVxFxuasXra6y5ONKzMDvUuK1mTHLAZdMTUXsTB9KOt6rI8uWiLzaSO3U8Rlc2JiG0zDp/srQKCi2DsoiDTh070rd3f/r3HsD1Xa9n5JDhmPM0xH1BqoNRyp1OPGkpOCePSSRjeHThDCGOXuX7zR8n9gxJgSRD5HZt3czOrV8L+1/iaJsQR+L6ViGQvv16r7ja8hk7v/qQnTIVuBBH30lx9K+X2CrE0eZ/PsrnQhw9t6SWamM6gdSxOCaNRj9qGKkDezPw8gu48dILuLlLZwZ3686A67ozqFtXhnaTK0kdSLmxY7K0TYsijg4C64Vzi5mcBAxa6iqKCLjtFEXKSc/NJpTvwWnR4fWISisqrisQJOQL44z50HkLCJt8QuiEcOiNOGIOCmakkhPOw1BgQmvSE/WJ614zwRIT3pwc5nhczPT6iGUVos4O4jTaifkMGA1ZeO02pqZNRu/3kms24TIHcIUDVAiR5p+qFp9bREWVj3h5AfOilbjGhTBp41j1ZUIoRcizO/BEQrg8NuJFTgqd4nNUeXhdBjwZ0WRpFRQUfg/yIEK5ybesrCx5RWEfckVIHq0wfvz4wypkrqWzZtFCVI7JmIQYigSd5LjGkm6eireiAKsnH4c5gkOnQZWqpaqkmDJ/nJrSCIvvXMac5bOpWrSCmbOWsXpBMeXVy1iy5m7qYjPweYuIlWlYObeCoplzcFcGmR1zYS8uQl1cQn1RRDxXQ1lFPTXLCpgRdzAjWkb+rBLqFuVTI3xhXSRObWEFXkcJ02vnsqAsSCRFj11tJCD8mkf4Rl+eDt8UF6k52WT41EwTQk/nN1Pt1qDLGcekzKmM1XiSpVVQaBkUB21c1b49N97Qj4F9bqZP9z4MG3ALxuw8yoIRasMxKpwObJPG4pk6ljJ9Fk8smcU3b724d6Vny6dC4Hyxd7/Rtm/4ftuWhP1cHP3HZNIG0Ufv2ipEUkIcydC6r/n+m8+FOPqYXZ//m12fvsP2f7/BdiGOtklx9PzDfPb4vTy7sIryvEn4J4/EO2Uc2hHDyLp1EAOvvISb2l/G8F49GNm3H0Nv6M0tPXswtGcXbu/VgXG9rkqWtmlRxNFBYOHa1ZQE/PjdVsIhG0azhwKPm0Asn5ScDGKhOBqTeG60HV80RJndzFSVEEyxKIU5XiGqXDiz8vB483HH0sjwpjA6Nx2b6PSLAwZi4r18HguhTCN1Dg9FJgNFqiB5+X5UFgsxl3hdaT65IQtavx+HJUDYV0Bx1E1F2MP0UBFBpx1/QYCCfB8Rk5HgxBh15hnoM9y4g8VM0howqCwU+iKEVQ78WVoKisRnefNQhacSrfYlS6ugoNAYyL1Jf8bVJLkPS6Znl0kGZNicTGogD0s8kH1eCr+PRfeuxWowYJmmJcugYULuWFItGZgDIcxZeopjBlx+I/6wn5DVit9rpyRUzFzXUqryQ5SXVTK7cAnV5X5KaxcSzI9REJsu/n8O9Quj3Fdbyfz86VQUFTFzXiEzlpRRfmc9heJxTVUd84UYihSEqBe2ad4M5iypZ+mdUYptRlZVVguhVYDPKYRWYRkFXhvRTKvwkRMo9KsJ2EyJsHO3xk6afxrjXaIc5iAmrZpIwEaGMRt7xIfJrWRYVWhZFAUstP/Hldx4fV8G9x9C7243clPPPuRNTaMsEKZWCKRSmxXrxNFYx95GuWgLL65ZzHfvvsKOr/4tRM0ne1ePZHIFmWThu71hcz8WRLu+2/IT2/3ddiGOvhPiSDz/7Tfs+uYr8T6fsWuzEFpffMjuz97l+w/eZMc7r/CdEEdfPfsgHz+8nufmV1CYcgfeMbdRoclFP+I2cm4dwm1dO3Fr16uYNKA3mbffRtqI2xnZr48QR125rVdHRvfulCxt06KIo4PAqg2LiPnsFGrdRMtchEwxwjkeSsKFRMIhnKEgLkcE1zA1JTE/BRobnqCdHCF4DDo9RpUBnzmE3xTHF3CTMjYXizFOZrZwAplayrxm7Do19W4X2uwU4SzMLCz34Y5rCJYZ8cRMmAtDqM0uMgxmChzluPUBiqIOwmqjcDKVqJxu7BY9bhkmEXKJ94uhS3XicYXJd1qZUVJE2GoUwspApTVMUOOiqDyOO9NMnt5NidGZLK2CgkJjIMOtZHpmuf9Ebsr/MyRvkGWUqdtlqKE8rkHur5FZohQOLotWLyJt1AQ8U7JwRYx4XWqszlTK6svwOkMU1TpwmLRENHkUGA1EoyohPITPccwlUFDIzAW1zClfxoLpdZQVCaGjFYKpqEr4oyrmVtYwOxBkUbSahb4qCqJO6moCzF4wn+L5NZSV57NgfhH1hXXMnj6DVbUlrJg7i7nzp7NsyWyKwmHKImZmzZrH9JW1lMX1zAxVkK5KJ+7SEzNMJeCxE9F7sQeFMCoOkav14rSX4fbbMATUmKNebLm6ZGkVFFoGhUIc/eOKKxIJGYbePIy+3ftyU48byUtJpdQbosoTolBvwDFpHIYRgxPi6PV7lrP9/dfY/uUHe8XRFimONidWgnZt2y4EkTQhkLZ9m0jxvff6FnYK8bQzIY6+E4+3CYEkD4JNiqOvv2D35i/Y8+VH/PCFeN8P/8XO915j2xtCHD1zPx8/uIY3V8xkrjGD8IQRlGSn4Rw/FuuEcYy9/gbG3NCDtME3kXX7cLJGjSJl+DCGXn8dQ3p04PYbFHHUYpDiqNBoTSRVsDh9RHwz0KSIzlqbStCRiztaQEiIJ/OEDOw+M4WhKEG3Hl2pjckmFVbhnExuIwatEWuBQ4irQgrKahg5yUL2RDVOTTaFQrT4DOmodSZcVg+BUBFWnwdTxMVUqw5NUDoHC6U+K5Xi/dOcZjJ9DkwuP06zH6tdvK/NhN2Qi8GpxxM2k5MrnU4pdk0WZcKpBYwqoloHsSyraGhqpjnyyM31UJgTp1o4HgUFhcZDhpEtXrz4P9nO5OGeVqs1sd+mpbBNONWfI9PfPvXUU0omv0PIhuVrUE/Toc9U49Wq8eRMI6jXkJWaidYr/Eowi+kx4Y/kgape4ZscJqLlBejrlgkfVU595Rwq588k7IuzuKSauoIaCmti+GNuquOzqKosYmZBMTW+SuZW1HLnrFnEaopwl4j3KSlg+sL5BItiFJe7mF9TzupS8f/hemoX1mDy+ITwKqEsUEos4qfO6KbMXYHWlkOWKg2jS/gpvwFvzmQiwidqpqjQ5QSwOyzESlWY7enk6fIIuZVoB4WWRTxg47JLL+XWm4cyZvhYhva9hVt6DxDjzTSKHQGqPVHytQbM40ajvm0QFeY83n5oPd+99wY7v/iE7z//mF1ffsrur74QYulLtn/9LTu/+Y7d3whB9MVX7PjoU/Z8/iV7Nn/F9i3CvtvM90JIfb/1G76Xq0abv2bP11+z+7PP+eGzL9j18YfiNe/x3QdvJVanvvu/Z9ny7H18et8KPly3gI2FLtyjbsYzYTjuKeOxTZxMyoBhpAwcSt6osegnTUUrhF3GmDGM6H8jg7t35tbuijhqMcQXzaHaECM3xUpYrv64o1hdVtRpE6kSosRqNmILqBLiRK+fSnraFHyubDJCJjJMBvThHGJFZopLiqmsmp3Y+BoI2DHJcLiiOma6KjBkunHYXFQEyhLheDmOQrLsJeQaQmR5hWCKaXF683Ab1MK52Ml1BhibosVhdhGy6qmoiOAoDOAUoshk9xN12oXjKaIoKr53lgmvcECeQAiLP4Q5x0PE7SU3okJr9BJXOfG4NcnSKigoNDYvvvhi4rwnmb3sscceS15tfsi00w899JDovwKJVNRS9L333nvJZxUOF+5dsZq0XCPZTgelHuEPvHYMHhtmi5+MPOFHCu0EdLnCJ1gxqDPR6LJwh5zkL6ykblk9laVzqCidS33JPGpDfvx+BwGvGothGqqMXOaXeZlRV0hBqJAFM+YTLSggUl1AIB6jYkYZseoA4aoYVbXV5AeFQIoHWewSoitWRHmoDld+CTUzaymPBKm1hCg1RJhhNZAfcqCqtAgfl4ndk4XDExG+0UvA7xI+cCw54ntmWTRk+HMpNikrRwoti2IxLrzyin8w8rZR5EzNYeqoyUwRIsmeq6HI7adEtOWI8CPmiWMwjBlOjVPPZ88/JkTMu+z49EN2fvxv3nrsQR5eupBN8+exvK6eufEyZsfyWSDa6PrqGt558AE2v/YKuz77gO+//kiIqo/Y/eXH/PD5R/wgXr/z7bd4a8MGHqifwdLCfJaVFPHMisU8umAGr6xaxJcP3c3nG1fzwV0LeH5WKfbh/fFPHoU/fQrezGxUY1PIGzcFR7aKoMGKU6Unb9IUxg+5maE9ujL42vbJ0jYtijg6CNxz/z3o3WVCGM3CHovjzzOQY7MTLy/CZVJj8FvxBdVUCNFS7TXi0KpwVttJiwmh4gliKQgRyveTp8ojIyMbs1aLNkuLLi9Edq6LykwPeXkO0nxubDkx1OXlQjR5MKusRGQogVW8h9skHJoTb0EErS6ILdNJ2BXGqNHgNegoFWIoI28KWms2GpWHsDUgHKGXnMw8XI4qfCo32SojqeEYI/RWVE7hdMwaPDodM4qKcZsUcaSgcCiQ59/I9M8yocMLL7yQOF/ncEOKInlivExfLQWRPCA1MzMzIZQUDj9WrbqLURMn4jbYUNk16LRZePUmfLZ8CmsrKQgWUOUowanXEdI6mB7wU+B0s2hVKdNrSola8/G5I3jVavSaCWQXuXFkWVCNNpEzyo5vWgb+oJloSTUV0+sIllRQXF1HfrGBpXfGWbpoCZVVNqKuTAr1wpdNS8M/ciKxKcLnTKsgzSTeR5vHvMoK8kvdROI+pptTqLZqcVhzKdUbCasMeF01ODTiOV8GUfFYpXaSZnVhKtJQ7J+SLK2CQssg7rdxdYcOTB4zGY9RtDm1FVu2jkKHl+poTIzViijzOIjqcnCljmd22MW3b77E9x+9x/effMAza5ZTYzNSazYww26hRKvGPn4c2QP6k9OvL8GxY1kTDvDOPXex+53X2PPh//H9h2+y59+vs+fNF9n1wpO8Mm8WFVOnYL6pP7n9+4rX9UE78CaCY+4gOHI4s7W5vDK3nvfXLOSNJdPxjxpMJGUs4ew0IgYj9jw9VmF+k/ieLr8ohxV1ylQmDh7IiF7XMaKnksq7xbBu5RqmBYpQ6b2UTo8SMNhx++Zi0NqxWvVo3U4KC13oRccechlwWp3kutXYYm50Lg9qn4ssixWzWY+nyIjW4MJfEMOmDaLPdVKsC+F0l5LrFY+tFYwzySQKfkqFWKoQry3RWbFnWwlo8onaa9A5q3EbQxicFjJ9JrQBIYaCPjylNmwWM65gCI+3AKszH7cQYM5cN/YsJzazEEtmO7cLhxcUTs2XYaFU42Du9FIii5S0qAoKh4Jly5YlTmw/+eSTE8LjxBNPTBw2+swzzyTvODjIMMBXX301cWCpPOT0x0jBFovFmD9/Pu+++64SMneYM2v2DFSaLMIhJya7nmzzNJw+J36rn8JIITOqllIRWpgI9Z40Io1Qjo6CQIzyOQUUB8vxuRz4iryEPC5mVM+kdsZcXOLvH/AXE7fUUOyxUlEUFn6wmBkz1hAxV1Lmr2BpfZxFNT7ivjDRQBYzS/w4phmESNPjEp9RnWfEOLmYqK8UnSqNBUKkFZsszBcCq2Smk0rx+fG4h6Kwh7jwo0FTKTaVi3LhTwN5Duw6v/CrdiaYxOAtcnuytAoKLYMSIY6u7dyZtElpxMWYs8RXQMjoEuPAMJuWLOW7D//N8+tWUeUwkK/OYFV1Cd+99ya7P/+Ar//vZZ5atpB37l7Dtmce59snHuHzRx7kvXvW8/y8OawJ+Fgv7IGifN5fu4LvX32OPe+9yu5/v8bON55lxzMP8dGKhdznd7FMp2FeXg7TNWqWedxsiIRZ7/Gw3u1ioVbFWtGXvLVsDv9aMYfCiSOIp02iyqSn0GLDZ3bhNDoIOHxEPCECNjfa1DSmDB3CmD49mNy3R7K0TYsijg4CqzesI7M6hD9sozAaINNZQK61hOJoFI0+T4iQMMZiN7aAH2fYjd+Rj1qlwSuUvkYdQuM1Y4q7yPfWYYsXojMUoK+IoA+FSNMLpa21kKN2oBEK26MpwGkpIOAqo0wIpHJbDnUB4SRUVqHE/aKyBdDHxeeafKhyXZgcAYxBO4EK4TQqvWi0NmLl4jNtAWIFdUQnhaiwB0idkIszv0TcLwSdEHPe/KBwjGH80SAWl1l8dk6ytAoKCoeCPXv28NJLLyWEycSJExNJHH7Mgw8+mDhPSa401dTUsGHDBp599lm++OKL5B2/RAoeeZaQTIogM+f9XNQ8+uijdOvWLbESJA+1leKsbdu2iWQSCs2XO2fUYLHkoE1LpS7iwWZREc/3Y83UM69+Pm5rPjZXCQaPD4PwIVGTm/LpQlCFjRR4YtQVlhDwFhEN1uCNzyFeGadmXgGVNQXEMi1Eneli8KYjkB8hUlzM9MJK4vXlFNTGKJnhwxW34CjVUz2nnOJ4jOrCQpweO37h8/IdJZSrImIwZWFOuJB6ZzHVgXKmVqpRzRavLXGSVe0iI2wRvjCINVSEs64ad2kMh8uG3ZvN1FgWhrgxWVoFhZZBsc9K92u6kp2SSU1BJdMLqsi3+ihx+nll3d38c8li3r17LWuLYxSpMtgwu5YdH73Ljo/fZ8vbr/HlC0+y/bkn2PzQJt64czGvLl/GswsX8FBdLffG4zxWWcnzs2bwr7tWsu2VZ9klV4xkqu43nuezTWt4rrKQxwqC3B8N80h5GQ9Pr+WR6moeLynj5epa/m/GDF6oLucR8fmv3zmbt1fNo3zaeBZZDLyxcjWL4+V4DHacJhdhr+gbfFGC4rubsvPIGDWCSYP7kjmkb7K0TYsijg4CM1YsIT1gJ5qWi91sEJ1zAL/XR7XbgM0jnEBFDZqwFYPJTKhMdOCeQsqEY9FpHagmZWH2ZuEqcFMVryc7z4bOUU12iRVT1EiuKgtfMILLVoTbFyDiL8AjVLtdbSVg8eDM0WMwO7AH8zEUClEUcmARTikSKiCiKcWVGcSkM2EPGPE4hbMSCj9/VhFmtQfDNBWRFBdRrRej2oTOV4g524Y/L42QJ4rV6hWOR1yfkot/kpKtTkHhcEYKp7FjxybOVDrppJMSQkba+eefn7zjv8j9QEcdddR/7tlnPz+L6fXXX0+k3C4WA1y5gvX888+za9eu5LMKzZU775zF1JQUvBo9TqdL+KUQxniQ9FFTqRPipM4ZpDwuBi7BAIVFYZbmCxFTUUSkukIIo1LmzJ9DQc0C4kLETA/PwefR4DNMYcqkKUTSfbhTplBfGsAR8FJU7CRiyGXpgoXMnyvFUAG2QIhAdSEqXw6p6jwmTc0UPigTnc5GkcNCZUR8vquIsMWJO+ykoCCErVT4KyGu4vlFGIqr0JTNZ3KWm2m5BWSGQ7jmyKQRuVjcQvRFNaROUyb0FFoWpX4bPaQ4mpJJdX4FM4qqRXsJkm9y8O/19/JMUZxX6uq4NxYiNGU8jyydz7YP3mPH5x+yTQidr158ik8fupcX5s3i4ZoaSlRaUvrexOhu3fFNnsI8l5vnFgmB9eB9bP3Xa/yw+RP2fPMp3739Ku+sX8Gz08t5vKKY5X4f6Tf1Z2S365jUrRveocMpGzOW9XYrz1cX889ZFfxrzXwhjhYwKyeN12fN4v+WrmB1aQ3mdA1WjRhn2kNCHOUT9kUw5alJHTOCCUP6kD5UEUcthiUP3YlWiJpAToygL0iJw05Aq6LKPhWbYSo5djumGi/6mBAhwmG4dW5K7FH8WpuojIU4THZyNWbsRid2fZgsQ4g8QyFFpggzqoSjKrNhDGagiqZj9cSEmIqgKbJgLnSQ5cpDF9GQW2wmw+kjI6uAwqh4b7edWLCEXGMMg7+WLKODWp8Lm1eHr6RAOMUArknZFOY5RcX04XAY0DhLhHATYspmEZ8XTWzA1Vhyceut5E7LTJZWQUHhcEeuAH311Ve8/fbbfPTRR8mr/+Xhhx9OZMpbvXp1YoVJ7g16+umn2bFjR/IOhZbMnNnzmThiPEGDl7A3gNbnR6M1i74+SGmsmuqqCLWrCgnV5WOIZFEY8eKtF89Nn0lFcTnx4koCOh8VPh011VFK43Zm5VkoMJiYZa1lta2YuK+S8vp1hIJVVMRnsH7JfJbMzCfmCRALFRErKCAc1RPzu/FazOizbcQCLsymyRQ5neQ7QhSVVwh/FCOQHmam3cfswmoqIkKkiQFh1FuGL1hA0BVHl2LElqPHFjVjcpuwZk0jYs5OllZBoWVQEXLRvUtXUsdNpcibT0UgTpFdtCeTkzeXreGTWfP5aP5Cdj71BEtFu3p2zQp2fvZRQhzt/PQdvn//Db55/imeWzCfaFoqy4tKsEyYQu6IUTwwbxFv3vcAL919N9+99y5bP3iHPVu/Ys/2LXz377d5/8ENfPHQRl5eupC3N22k2ulm2qCbiaans8LtwTd4MKvMBl6fV8snG5fz0YOreWvNQjYE3Hy+YhVvLlzGvVWzsGfoseRa8Zj9BJxh/I4AZrWW1LF3MGZwb6bc0jtZ2qZFEUcHgTmrFuOwmwhp1OgnW3DbhUiKRPAaHEwdOhJHaib2sBAzoRAVaV4KTAHUhiB+pxAxE2y4x6nJKSgjFHfisuaTYswjX1WIdnIGBp+VLI/o+CNmSmb6iIjnwxOyybOk4ygTDk2fi9auwRh2orYayc814RNOp96cT766kDSdnfxwDeEs4Yxyaqn1lGP1xsgUDjEuBFJtpB5T1E6mfyoWr4tYUQ0uewF+4Xjs9ghWoxufKIdFq2T+UVBQUGgJrKldhs4sfJJTh99lQq23kCezm+Y5MfudBGfks/CuSnxmLTNcFsrz48yqKaWuoJDi6XGqi0qpipcSmRekctF05pa4qXfauWt2PiurSqnV6VhaMou51YsoLYwTLI1TNcdPpNJDfFZNItQuWhCmurJQiKti8vMdFDhN1JSEhBBzU1NQxZrZ85g7fyaLlq2lqnAuxVY/RYYQZc5C8i35BNXFBE1lRIUYC4aLMKboSDWlozI70Gn0ZE9LTZZWQaFlUBpyc02na5g4ahx+k5tid5R8W4CwyctD9Yv44p6H+OqBh9nz9ps8tWiOEDpr2PXhu+z+4mN2ff0pO7/8mO8+fpfNb73Gv594hDfuXsfrd63lrQ2b+PdjT/DFK6+w85OP2Pn5J+z47GN++FaedbSV7R9/yBfPP8O2l59j+2sv8umjj/PJA4/zrnjtqwsX8lx9Pa8vnM+nG9ez5ZmH2fzCo3z41Abeumcpz1SVsGPTA3yz8SFWFVVjzzNj19rwmlz4rT48QtiZVRrSx49m/K03MWnIDcnSNi2KODoIbHhiE/kVHnSGHDwlfkx1YZxzAziClQS9JdT4yrDmepmqtWLK9QjxUU2ur5wsvZP8LBVh0akbHUaK/MJR2Ty4YwbijmJiNWXESovJSFFjz0pnRnEMh8lBkVs0CrOOwqBQ/Vo9RlcuxaFSTGlOymxWIdBUuP1BvCo9boeViDdEaZ4fa5qWkkgxqnCE8Kxiioq9mAx6gvVRPLPjWJxugkEvHr8XgzufbOGM/NEIBS4/Ln1+srQKCgoKCs2Z+fPvZLJZj0GtJWhxUVfiIWQ1YHc4sdmFsJlZgcuhZZYlyExNEWX5deTHC4U4sbBoZQ2zK6u5q7yK6XWllMyvYvbsaiqKClg4I8aMqJPpkSIWF1WxfPo8olEhquqqKaqIYY85iBZ6qJkRZUaZEDtRIZby8ykusrJ4UYjaUhf1gajwTfnUL1pLQbiQ0vwwlf58ZojB4Byvg4rCMIZgmAl2G57CYkxqO1U+O+UuO1pnKlkuAyVuBy5RHgWFlkRJcK84GjVsBNYcA0XOcMIiZh/zIqV8/ujTfPfMC3x+//08Mr2GV9au4vuPhDgSomj35i/Zs0XYN1+Ix0IoffAu37z2Cl+98E++eullvn3rLXYKEbTri0/Z9dXnfC/+/WHrN+zatpXvP/tE3PMcW197gd3/fotvX3+VT598hvfF57x99918/MB9bH7ycXa/+k92vfkS2157lo+f2sg7G+7k6apSvrv/Qb4S4qjM6EKfpceuE+LI6MRrdmM32DDlaciePIFJtw1iwiBl5ajFMP+uFcREp19gy6AyYMdtc6I1yTMjQjhVXqHqjbgsTtLUJgwG4Qy8+ehiopJUVImOv5zK4hosGisBsxmrpwhnPIbXU0p2yI2roJCcDBt5VgtOvxGz1oKtxEk0ZMeZV0jaNB15rgzKPPlY9XEhapxEbHHKKkJYYjmU+NU4jTbiHi/lhUaicSPOoIPC6nzMDgNBZxSDw0ygIEiOJwOjLx113hQ8VhUGYy5O8Tq7yywcmnIIrIKCgkJLYMGGjeijfhymIDGdLrHRe17UijvoEwKmMJFYyB6JMD2/hjtnriMk/EtlSRXL5s+kLOBnUbiCdbEa6ivjFJZHCRY4KZpfS1V1ATMr8qkorePRu+5mZmEJxfHplAvhVCoGSdXTy6maHiPuU7OwJp8FVfUUhWuIh/TMnO+jqNbKHPGed85ZzMKFd1M/fyVFBTIsz41fbSOk1VPkLyDbYiI14sHgieK0uogI/xp3eHE48xJJGYI5VnRWT7K0Cgotg+KAm04dOjFs4C2Ys3SUeGKJ0LqYNUi+qO9PrlzDrlffZMfTz/PuqjW8uOJOtr//lhA8Hwn7XAikL4RA+krY1/zwjbCvv+KHL78U/wr7Rlz/5ku+3/w5u8R93wuB9IO4b48QR7s/+5SvX3yOzS8/w65P3mbP15+w58svhJj6iB3vvMPOd99m1ztvsefdN9n5r1f49lUhjh69m3+tWcRTFaV8umotbyxdjSdDTV6mGkOeAYcYyzoNdjGmNWPIUZGbMoXJw29l7EBl5ajFsPyxFWh8XrI0Ml56DhZrvRAtIbKmagkKYaIxTsJiNFAXCROOeqgoiWP1puMqD6EKOlGHhXgyaxPptlNEx64vjWLxevCIzr44vwKDUwifWdOx5wtxow6J9/CiE+rbk+1GNymbaTYtXnsR6jsMxFzCQYSsVBeHsQSs5GWPwlViwOTMISt7Ki6/k1yDAa0qDZVHhV7vxO6JYDXn4woEqCr3Y1FnYczV4bIFMerd6HMsRByOZGkVFBQUFJozS+bdSXZATaQkgm1CJhG9lYg5QKG7CIPOiLfQy9K5dSyYExb+QYiZDAfzjNOpKqmmOh6kvqaUOcI31cXzqRdCqMYXZ3pRPTPmzGLR0sWUlZUyvbqWBfVzKPRFmFFRT7S4WgipmUTDpcyvrqcmGhZ+Ko7ZbqO8QrznjBLilWYhwCooKa4gWpJPQXkZJaUV2C0OKoqrKKmeRaC8HqMpTCwvH3eqlzyTh2yNhvFjxqHONFHoqCSoLcCiUlaOFFoWUhx1bN+RIf1vxpJjEMKoiOmiHRY5I4RsXuryi/j25TfhzX+z5eEneHX1Kr7916vs/OQ99nz+mRA1X7JbCJ7vv/2GXcL2fPutsC3s3rZZ2Nfi2ld8/40QRl9/zs6vPmO3EFB7tol7Pv2Ib156lq9feYodnwjx9Y0QW+LeHV8JgSTed9fnnyTOUtr94Tvseu91vnvjeT568C5eWzKLfy1eyHePPM6Tc5ZgSskiMy0HnUonhJEVp8mJ0+zEojWhz8ombexoxg3unyxt06KIo4PAyhWz8Ib9hEVHb/LmiI47BXtOFsFUPcV+P1lRM2PSVbgzDaRr9ZgKyrEFHKiMWsxBk3ACTqJWFQG7ECSRcgx+DbagB68QSw6zBXVZCaaaKL4S4QicIZzBKNNMRmK6AJ6xBopiZfhtDkKeIMXOQgwFLuEgbOjy8jDacnHNDOIUgstk91NiLRINqZRSvUM4tThxRwlhexz7lBCePDthd674HmrsQtFbZDrwbBUhgxuPzZYsrYKCgoJCc2bt9Flo7Hr8YR02rTGxd6fYPJ0CtZ9ZkdkEHB78eZnMjOkpLXZRXRCjSi18R5EQRN44EX8RtWV1zCyrYdb0UqpjJSwpLmfxgvkE8mOsWSlEUUUp5dXTuWvefOrKZlFRW0D9wvkUxOpw24sI2wqorppLqKSGYH0di+rKmFdbSMXsCIECOzPiUSqqY9TOD+D3e4UoczEnXkZIb8KhtWK3+YWI85HlMpKap0E3LZU0vwmTVoXN5MeRq6TyVmhZlIQ8dLzqagb1HZBYOSr3FzKjsIoST74Yx/mI2b28+dBT/PD+F2x5+kWeXbKEz196ml1CtOz59EN++OrTxKrQTiGQdm3dwp6t29i99f/bew8oOY7zUNeyLNkWrefwnN71fdfP4To8x2vLvs++DpJlS7YyKTGCBBa72LyTY09P6Onu6enJeXZmc0AGEZnBTIqZBCMAgkTOkQABEthF0HdrV2tbiaYsEzhPcH/n1Jmdnpnuqd3u+v9vq7rqDBeEHF1456QQp7e48PaJ2fdcmBl+J7adP3uabwj5ObvlZU68+ARn9m5m6tQBpk4fEyIlXj91QoiU2O/x/Zzf/ybnd7/G6deeZt8Da3l+pM7eDes489RzbGyO4Wntpa/HIa7PEKoUJRaMEQ+rIr9UZtsh28JWFlz7pbnaXl4sOboC3H/XXbMLu5ZTaSFDnVQjErWoRl6bmf1nEVo8SjQYItOVw+gti0BkIvs0nOIxEdcwg8KgnU4CdtHgO4dn9zUzzXdnj/hsxEu6kCYR6iYrhKovkiYslQjoWbxxnbgcIpSNoTZqzPd4cLgdOEJBkq4Itt4oBV0jXTNxl1UhSiqjyTwZTwIjnKPkLNK1IEFYbNOcAQr5ND1eIWaOGAmXIiSqiKtTJeQzuGm+9V84CwsLi6uB1ZOrcTi6cHb0InkCJI0qk1KRkNNNLOkjEnYIeekW4pNhdGiIRKaGOTCGks6zRIjRZLRIvVxjvDzJqtEm4USN/kZDPM/T7C8yOl6kNFwhXxeJW0rIU3kJzVSBUrKAYgqxag6SyafE/ofob45QGV9GbUmexsp+hsdMJqs6qys10qos9hdmvO5lOOGhIOJdPmuSbSbo8naQqJZILK7gc/SJWOnAnjbodPXhFfFMcViTCFlcXZSFHM0Mq/vM33waX6dztudovDg4O7QuKydI+RU2Ll7L1K4jnN9zkE1CTA48/RhTOzZz8aAQJCEwF04enu0dunjmbb4x13P0z2J0aea+pJPitRk5On2Ci2dPMXVOvO/kEabeeIUTzz/G6e0vMXV0N9PHDnLhxHHxGfF+8frF43uZ3r+F6e2bOLXpYfZuXMVzY/2cfOxR3nryeVZkqvg77HgcPiFECorIc0M+WeSziniuIbuDOBZ10nb91+Zqe3mx5OgK8MSatUR7Zv7AZRRVw+O3EZQDaDkPoVw7tVpKnLhBEhFVCE2aSC5HrNyPq2IgRVXyqoeAFiVcCOP3DeBV/YRjMfxCjNxpJ/XUzKrC7Xgi7fidBXFCZYj7JJy+NEFfgEzGw/jiYVpiMn5T7OM6mc5IYnY4w1AsSSPfwBEO4Ql2U/FEkDrCGJJBpkXC0RVHzqVJiu9rxiL0SH0YZopcoYEUShIOaXS1dRHwB+Zqa2FhYWHxw8wda9fRokTps8eoSwVyMYnlq6q4Ex14J0NI3k7k3kXEhfSM55dQ9/QTS8RJD+XJjC+lXyRkcdlklVxkjZGmJmLM8lqTZfkkkxWNVM0k30iRKqQxC8Pcs+x+lqWyjBaTLJnMkUjbqZQV6pkyzfwklcUj5CZrjK3KsKKRpJCQWTYoREnVWVXPUs0EyaSShMT3DMSimMm8SKpiaNE8C8MxQt4U0UQSh1cnLGJcIlojqZTnamthcXVQS6n8yR//KZ/+q0/hFXLUNMssrY0xYFYpykkyHoWRTI0ze44yffAoe555mj2PP8A7W1/g/L7XuTgznfeJ/UJ+jggxegtmBemUEKVvTtTwDSFGl04cnZ2w4eKpY0KOTnJ++jTfeOsQF958hbMvP8XUmy+Jfb3BhUP7uHDkIN8Q7710/IDY906m977CuW1PcfzZe9j/4O08v7jBqaee5MAjT5N1hvC122dHJc0sH6DKMYIeCTk4cx0nCHsl3J09tN9y81xtLy+WHF0B1j3+FEYhQ0D2k46kCIYDyHmvCADF2QVhY8KKQ0GFoGFDziYIKmE6FnTg9jjoc4SRb43QL07u1KiTnqhGRy2Ov2LS6lyIlOlDyQhJcnvxSUGykTi63EfGTBK394vP1QhpEvWShFGykxsuEGlT6Orzkpf8BBcFSckNUmFRNHEC2nRkKU0prmCKEzUtl1kkTtqwLlOqRciX+qjFEiKgVZDcacb0CUqRHMqi6FxtLSws/mOcZtNwimWvX5x7fhm4uJsJt84jP4TLFp18pE7+3oNcxt/Of3qaw008uorN68cuS4STMQZXj6ILKWmTHfQaInkZS6GPVKk3x8nHsuQUk/5minQqzYrqOIP1EYqlHBMpU0hRlbFykSVCnqrZHKUl46xavoKmkWSkprCuNMz4iiTNQTcTiTbyHi+VZJPx8ASjWh3FzFKoNTD9PlamMow1SkwsE8LVn6GedFNMK5Q2LqUwmiLm76C/w0bUO4SWH8Rn5FFFHHUEg+QyCYYTUSFLATL92bnaWlhcHTTE+f3Hf/gnfPJ/fQpPl5CjbJ3lzcWM5AZnb6lI+ROMFvo5s/8o5w+f5NirW3j5rtWcfE1Ize4tXDq4g0vH9grZEVJz6jDfeFuI0OnDTJ85yPTpg5x/64D43F7e3bF1dlKFCztf5cLebUxteZ4D993OyxM1jj92Lxe3b+Xi3t1MHd7NhWP7uHRkLxcPvMn5nS/x7muPcvjJ1ezdOM5rq0Y49fyLPDR2OyGRb9pbOom4JdJaBjORR4kmCcs68ViSmBTF32ejt2XBXG0vL5YcXQGWr1pFqKSQFo12QioTC8n4AwtJi4DhdijIepJAJIk/rBLNOIgXTfxZnUJeBBx7kHywl2Y0iN7txdR0fEENKVejL5Kl1xlG1aJ4nO1Iskks2Y9HNQn4Fbx9Hfi8bcRiARQlTTKlEjKc5MQJl/ZFKaoBAnoeuSODs0VjMDuAXjTQxHdRvGnSkkFRCTFULwiDVwiJ/QSS3eICzFK3G6h2iVBPjIwSpCdgzfxjYfEfZ5rNtVu5KbeJd+e2XBYuPEPwT69l9PTc8x8mLh1ig/N6/Pce5dLcJosPlrWDk4Tnd2F4Q6RDMXRdR9E06pUazvYQkttLIDwzxC5EvlwhJuJItGCQHRtm9dJJMnGVwYaQ2JWDDBeyDFVL3L18lNWFDIvDAwyZQm7CacbCEZEMBRmdWdconiKjh5iQNBGfCsTaUzRKDZZMDlGaHGd47SRmVWNoaJBCpEw+kGPJyBj1RpbJSZPKMpH4pVWCDo1mskEgEBQxL0koGKcYKJAOa+IYUQbsPgLdvehuba62FhZXBwPZBJ/4kz/n7/7603i73QwVmtw+soIl1QmaRoN8JENJTbHlqec5u+8YZ3ftY/PGDRx+4RHObHuJc7u2cH7/di4c2cOF4/u4cGI/U+Lx3PE9TImfzx/dz7EtL3NHvUyxt52dd97Ogbs2sHVimKWODmoLbxDbVjC9/TXO7d/J1MFdXDy8h4sHd3Jxz+uc2/qckKH7OPr1Ney4Z5zN65bxwpq7xLWcINDhxN7aScgRIKVmyaf7SZs1TKNCKlkiIQQp5PLi7OiYq+3lxZKjK8Cau5fRKJv4OnowpBhRX1AYcBcTxWFUQ8eTjdMr56gVVmMGWkUwspEwNZJ5ISgeNwMJNw0hREO+EEZEppTXMJQ8cW+UYJdbyE4GJR4jEXBSKKdJhdJoYRmHsw9fpAdV7KPbnhQSFkJPiCCilPF2qri7c7jtfkL2EAnNRykihCruwZtScMz34ejzocf85D3iPa4UKWNABKJB1GgVoz1MLVHGF/OgxjuIxFJztbWwsPhBOfNYkL/7apMdl7tb5IdZjmY48ziBf7iR0V1W/9Hl4K7Vd9C2cBE+m4uEPYjmiyAvcqMEVfRUnfkiJkixOFnFQ8HjIeNMk9WrVIZHmFw8wtDAGJVKndTiKsPDBfJFk/HagEiqhhk0Ugw1V1AQCc/EUJVSfz+FSp50wUUq5yGd0ikZJqPBCYarY2SzUWoZk8lkjkYiyeSSJvVilAdX9LNhTY3BUgw53E5fMo4a9oiY50WWnegBH1osQzRfoZCdFDHQj6yESQU05JCE4bPkyOLqYkxcZ3//d5/li//4JXy9HvozNZYPLGFpbYIBc4BiLCeu5bAQJJO7F69mw9A4G8cH2f31+3jrlac5/fomzu3eyvTBHUwf3s30USFFosz2/rx1GE4c49yBfZx543Xe2vQsb2xYy72qxmMpk23jQ+zbsILzm58V+9jCu4d3MSVE66Iol/Zs4+Kbr/Duy1/nrSfv5MjDt/PqmgmWJpOUgwaaUyHQ68XR2UPAObOEjEnB7BeC1CQrSsasY8TShN0zQ+v65mp7ebHk6Apwx90TVCI6erzKaL9JPOwVVh+jEZ0ZK51H9buEgCRIdPQT6JQoFG8SgcQg5tfINCr4vDHKUkbIiZ/u7AL0iotmTGU4rRPvUgm1ZnE6THRFJlZPk8hkkdx+OhxhgnJECFQQKVwkWjDR5BSxhT4MQyNqS2JX4/iFSCV6ZPQumZCq44368GsBOoTMyX0J4nKDXo9ORFEYiMQIhCO4o2HMQp7s4iJatBtJ7M/CwuI/wPTL6H/7N8RfujC34TLywy5HXOL47fP5xPxVHLG6jz5wlt6+HIcWxeX2zMYSV1sfCTlJvjGB7siR6IrT1d2BWwviNyI4PF762mWS+gCamUNVUqTTJRLZLOF4lFI+z2hllIKRYaRWYii3jLFSjWqhTn5klNBwBbmkIWk+eioZ0u4ck9F+1tXLTA6IuJUrUSuUuGPpJMNjQ2jFvIinMovzIUbHRcLkvBHJXiHYG8dtiviU6iWWc5DM5vFqaXSjTrJap1qqYIpEzt3jxohakwhZXF0srmb52nU3cvPXbsHTLfJKNctYeZjx4giNZP/sP9I1f5iQzUvMHiThCLAsl2bHY/dw/EUhLq8+w9kdr3J+ZgickJvzR3YzJcr0TE/SiZmhdieEJJ3gG8ePcH7vTo4+/zSvb1jPnnvv5J1nHufUkw9z9tXneOeNVziz6/XZnqiZHqNLuzZzfstznHxqI0cfXMPeO5fw5NIx8uK7pPxJFLe49p1B3H12Ai4fqqSTiZfJius2bfRj6lVU2STkDONst+ToquHxh9YSjyaE/ZbwR50iaEhIfTFkXwhFiInXEcfTq+L36wQUYdFGL9WgHb0nRJvcjVJKUEpmiTiihPSF+BIRIn196KUiWXMVuruBlhDBJZAQ8lTFn63R1ynjDjfE/su4+kzSqSI9khCgcALHjT0YegLZWaarp49KMYmjvZ2sL47jZjs9cpCAGSatZPH1ZIQYlflSu4uFri7yESFjbgcBEXAW+B2EDJVC2SRct6bytrD4wbnE0SXX8+tfGubQlUj2f+jlSDD9BN4/+FMim66ATP4n465VS7m1t43RdE4IkhPnja0kQib+VAWPT8QOl0hoggli/gDRgBs9laI3LkREvC7LKRrN1UyUV4mkJks1V6AiRKlfxCJV1rG7AiweX85Qo049U6OZWEqlmqdSHqBZWEGwOkisx2Q4Uxev5WjWDfRkmV45Qbq/SXWwTHpxgvgSJ7XJHrT+KBlFxvTIJPrz3GB6sRszs9aFSEdj2NqFwMlRIl6FspmmUBDxqlcmp8bmamthcXWwtJ6nZX4bbfMXCYmwE/fFKOsFIUZVqloZM2QQEdffjBxF+4LojiA1kYO+evcaTmz6OsdEOb31Bab3CqE5vJPpQzuYOridqZleoKN7vzkD3fGjXBLlG8cOMbX7Tc7ueoPz4vHCm5u5sPVlzghhOvXCM5x59UVOb9nE9I5XuLTjZc6+8jjHHruDwxtvZ8/6pWwcmbkPyiDhM1FEmxL2y/idLsLeIFpQxRDtjRHNkxSSZKgl0XakkN1RuhZYw+quGh6//yERYPx0dNtRkyEKKYVEJIDTExZ//AKtLQlcpTodySAjYwMiKIwTDQbIG0mCKSe+YdHwJw3Sziz1/Aj1RhNjUQjVPSNZrWiyH1kSth2NEhMNvpkoEI3HiUSWEgoW6HEncXu85KoqTltAGLlBIVZgtJEkU0wTbJ1ZUFZF9atk3SpaPE2vN0bYFiPSFiAmJeh0BQkaQXwxJ0lVplar0a0mSJTSpGpNIgPSXG0tLCz+3VzaT/8//grXjh+f23CZuRrkiGme9P0ev+14hB/CeSX+f82DD9yJVNdRoj6MYoKcSKQqjoRITHxkcg3ckRwRJYXiTpAJREnE3ATUNOFckVROxINMA1PEnUZxgNuHJ2iUqpTtGlEpx8DqcUaXD5FvjKIaKYYLI4wOi5JXmahkGC0l0ZUwkmwjaSaICLEZ6l9CaXiM+tCgkK5+htMZlo6LpK/qIup3ojhiqDEfXZKdaEEmnU4JoTLR9AySW8NXLOHs9tHj9dEbCxDXSgQM11xtLSyuDpY1inS299DV1k3vwm583R5xjUbIhJJk5TSqkKWwS+SLDj9hcU2rfQFMh5unVi6enYb7+AuPc+LlJ5ne9RrfOLyDC0KOzh96k7ff2MTxzc9zbq+QpX27OfP6Fk6/IkRo0yZOinL0yafYv/EBjj3yKG8/8QQnHn+UQ4/cz7GXnhTvfZ4LOzfx9qYHOPjwag7cu5Jtq8bY0OgnH0mKHDaM4tdQpLCQHw9Rd5CEf+Y2kTi6yD0T0SwJJS/amIwQpygLb144V9vLiyVHV4B7l27EVBsEZR1TF8El0itM2Seep3BIw9icBdw2D56OBQwmc8TF87iw6aDioMeUadHqGEaFpPi8r5rBJ2w7K3kwUjKZZICcEUe1J8RFkCXiihBWvMQMhYxq4gg48SiKCDRlSoZBKBwkJisMNPOUo+0kwgrpQIFMdAyPOz4rZO42G/FImmTIQLm5nTFfBFPIWilnoJpZepx9eI007lwOWyYyu4ZSIKDP1dbCwuK7eYe9mx7i/q9v463Zjo4LHN61hzOzrwk3OjLE53/2kxR2f2e30WlevWcpy1bezuo1a1hz+0qWLb2XzbMfvMShZ9aybMUq1qxdy+pVy1n7zMHZT70v3yVHl+k4l5lzd7bxX3/XyxPTcxssPhDuXr+WrwZbCGQCJMazaAmRqHhi3GqXcNlCIo6liIerQjxMXB19VPIm/UMloqZJbnAErTHCiqHljFWqpBIy1XSCxVKGWrBEpVBFCfdSrFUxYpXZ5SP6zSJpLUSjbLAqmaG/P0m5bKIHgpiuFMFUkuGhKksqRQYyZUYKgyh2N4mgjUpYJxsdICh1i/36GBmKkNDiBNoMwi0a3rYgtyySSIaLItFK4c2WSMaKGOI7W1hcTUxWsrQt7GDRgnY6b2vH1e5AFtes5hay4dOEeISR7F5R/ETtMqpNIu3ycVejzMGvb+T4c4/ODq97Z9smLux7XcjRdi4dfIN3tzzH3kfv5dUNa9m8bh1bV6/ljZWreX1iGdtGV7Jz8Vr2rLyD7cvW8NzAMF9v9rPrvrs4/upTnNn2HOd3PMeRp+9k/0O3s+fu5bw42WRpTrQr3jDudg+ySybqDRC02ZF6XcQcAVSPjBYUua0s8s6wKUoS2RuhdV7bXG0vL5YcXQGeuvsh9PQQcblKY7CJFLiFsKeLjDFIj79GeyKB4VUY1sKscadI+iqkawqOkp3ehIotIIJEtEFIUojkVdR0FlOxzU7baMo+oqoIXGEhVf4ksaiJNFqiaNQoR0rk4woxqZegK0R/egRVVymIAFOKSeScKdRASgSmLHJPDiUyiJFNU1BjxEIJMrqJfV6HOFHDxNwhQiLIGYUUvk47dbEfKezEXvVhKwnjjxfmamthYfGtnH55hI5P/x2tmdU8cM8A3t4Sdy1ZyB9dO8jhORc6t2Eh/+XXe3noO7tALh1kTfB6rv3M7/OzP/oj/MiHPswv/qmLdbMfvMBLxc/zqx/7UX7s536bv/rHL7Oo8fI3P/d+fKccXa7jXGYu7S/zqZ/6KzKXfQaL/1w8cPdGIUZRISzR2d6jUMRORnFQjQeR/V58uozPrYufs0jeDG2L/ET8QXLazDpCMQrlJksa/QzrRRFHEvRndRbX6iyv9NN0FamURXxaPE7VHGU00WB8oMxws8JEssxqbYDRTI2RbJOBXD+pYj/Fwih3jY0wXtXF9gqjpQbNbJaikDbDzCFpCeIFnUg8TqHpQw7KhFszRG9yEfEVsHelUaU0LqcfpV/IlGbSERmaq62FxdVBM5/mtltbmD+vhbZb2+hr68Pf40W2hYi6Iki2AP5utxAQL4ozhO4UcuSLsKpQYMc9azj+9AO89fzDnHrlcc7teInpfVu4cHgH54/t4+KJQ0wf2s/5/fu5tPcg39h9iEtv7uP8G3u4uH0vF7btZPr17UKkNvPu9q1M7dvOOzte4503X+bMa09x5LH1HL5/BdvvWM4joyOiLckScSri+/mFFM1M+uUVsdGGo6MXb5eTkN1HTHy3qD8mish9RfE5JDoWdM3V9vJiydEV4OsPjRLO+Cily/ijCl6/C0N1ikbdhWyERGMdQ3XbaJoGg3qJWCqH0RABSHOQFtYc86VEA69h1oWECKmJSkn6cxGSRgRFCs0uHpsWwpOS8rTP3LCmx4gnNULuPJInL06sJD5bHEdAId9M4Y83UPQqqY4ELa0uVBHUKn4TIxIkNvMfNXcNh9NHny+E35dATaTJRAcJRZs4hDD12TxEIwmcsQZ6vR+vIr6/GZmrrYWFxT9z7qUCn/kvv85tqw78y7TT727s5Tc++hH+PLFlbq2ei+zI/C+u+essO98rx790hLt6f4+f+NCH+Miv3sjk7BsvsnvZrfz3//YFaq/9OweWvdewug/6OJebc+tZ8Mu/wqK7rYF1HySr1o1wQ0yhSzFoCbhpjXUSdPRgLpTIKSrhdBwtJGKTt0Rbt4mzT0VfZCMltuthiZAcYJlZ5/ZUlfLQALVsg3UTk5QGihSTBfTxIWorxzAKJTyZGI2yyp1L++lPqFRknTsGlrGyOc6GlWsYqA0wXrydpfkik9UU+R4hXIb4OZ/FN69LyJiCnDBIN8W+hBSlnXayXRHibSKu+VzUIhrBvgDecBf+hoYWDaCIBPErHdbC5RZXF81Ciltuuo1bb1nAglta6GrpxtMlZMgmEXbKBHp9s3IUEsKkucS1IsQjJ6nc0WjyzJIh9j9yB8eeuo+TLz7Cma3P8O7OV5gScjR16hDnzxwVj0eYPnFMCNNRzu86yLltu8X73hSPOzi3dRtT20TZLsqeN2dnqju781XOCjk69uxD7LtvOQfuXsILi4dZlS9TjBYwZZHrSgayMyjEyImtvUfIT/vsfUX2tl78fV5CQuBC7gh+RwhHt5dFt3XP1fbyYsnRFeDOO9ZgZlUcjutEcMgRkGKEZQUj38ug6UbxzyPUlPGIEztdraFHvfiVXgKOGCPeOAnfIlQ9gRSPE8qHMZ1OSjGTeCRDNG4SThTwixPMW05Szej0RxMkvArxDhPpthhpTxLVmyakGth0F/aaRHpAEZ9ViYcVciJADYaaaL0ZMukcSlxn5fgA3mREfM9OYrq4iJJ+ygEXKdmLajMpeookYsPYykKqioYIhKW52lpYWMwy/RyxT1zDz3y2n28dLTf9mJPf/Ohv4nzsn8eCTfOo4ze55svj/zLM7nsyvZn653+ZDwtx+fgnJNavcfOnv/KXRL9+au4N34Nzh9lz+Nzck2/h37rn6IM8zg/ENIefHcW5wOTJ9xsuN/0Ent++hs8NvTW3weKDYP2yJbT1OOgrF+guJOhLlehsNelaqNPjjOGWItTSZQqZKpJTxLJUQSQ5QYYNHSMTZn7PPPIiDq0u1lll9mOaNRpKjWJjFVJjkPzAYpJGP7GBMq6UxphR4MF6gmY6QUXPU9c0VtxeIV+Ps7hUoRYKMFTIofWEmBTSNCqLuBZxI/u6RQzLEdWTyPkIXb12bDYH3laduNdL2K/g6XCg9PWQb+kQiZafqohjCdNPm883V1sLi6uDgXySG6+/hdvmtczKUfv8DpztjtneGckuEejzz06ZLfX50NxhsiGVcjTJi3ffy5qczmvrlnL48bs5+dyDnH7tSc5uf4nzh7YzfXIf028fZOrkQc6fPMKFo4c5u2s3J1/ZwuGvP8WZFzZx4bXXuPjGVi6+uYWLu7YyvXuLEKUXObPlGfY8uI7ta0fZtnyQ+ytFRvQcJUW0H2qVSrJKfKZXqNeDbVEfnS2ddNzWTvdtnUKQ+vB0e0QuHMJrC2Lr9LBwnjUhw1XDqsV3okfSSP4AQWHp8egktl4RRMwYtbxMI6OhJU38Qkx68lEChSBxLSySg26GhXTERINeb8Yp9ttQ0n4Me5SUM442syBsSoiPlhH7iuB0R4mW4zTNIildBCu9SDNcox41KellqpqBmonj6HeTywdxGG7iM0PolDjhYAq5W+f6RT1ExPvVUBrZrRK1B4mEingDGplgmL5MgHh9kqJLoxDMo5Rz6JkCWnd8rrYWFhYzHF92A7/w4Z/mK2NH57bMcJHXjf/JR39+HqvfmdvEFPcs+hV+5vrl77vw66UTD+D542v4kBCXD33kN2hZ8689Ut/NNE/7f49fadnAd2nL+0zI8IEd59/JqUfLOF2SaE/+hp/5xfmse78dXthE+A8/xqdKe+c2WHwQPPjAHXQH+rhRluhd4CXY6iHTLROWGvha6/QEMzj7uoV8tLHIcQPeuJeQ3UPfzBolGZ2iEiMTSrBidIDRZJqxZIWJcoOsXiPfTDMx1qShJxiaTDO8KsudpSYTjRSrVgwyUs2yZqCfmh4hE3YzZIQZL+rURTy7v3afiGlLiTg9DJV0ouLR3ZvBExHJXjaCJOJeSFGwdRUpGmmSQT8hv4zbZSejKiy6wY7XWyHizVBMWQuXW1xdjFeys3K04LZWWuYtpF1Ihr3Nhrdr5j6jIJJjpgSQZ+/pCZMKKlTVNK8/+nUemRhifcHgtdWTHH7kTt567hHe3vwMU/u2cP74Ts6/tYdzJ/YydWIf548dYOrAHt7dsZ1zr29hetsWzm59lbPbXuHc9leY3vXq7LC8qTef4+Smh3ljwxK2LG3weDnJasOgoeYoqxVySlHIUQ0zbM7ed+QT0ubqduNot+MQ39smiqvTjc8mEXRFcQrJW3Bz+1xtLy+WHF0B1q5+TDTSdYL+IMlEhGjUJ4JMnIjbmJ2yMGnUsUs5QoU8tUYeSfbR63Lg0oJkhqpEFDtZ1U1Y9pP0esmmNfqFzKR7Y4SLKRzpBFK0m1gyjl614Vd8hITgzAxvCESiVOomppmkI2rDEVNp6fBTq/WTrSuYGZVeT4RENUdY7CMv9pcM+cmN6agjYSKmRlANorWbJNubyNF+Am4hTB4XRW0INdFg4QKThNuSIwuLf+U0K276OX70xz9Fee+3aMWlIwx+7ho+9tnGt0zZPcUD3b/KNV8aE596f849Yue//9jMfUHX8D98D/HWe1nLxc3of/bTfLb/0HeLzfvI0QwfyHF+QM6tb+GXf+n7kaNnkX7/Y/x9/fDcBosPgo13raSWyeNIeOkTMScTChFtX4RdJFfBaAJ/MIS9vRNJieBJxPBqIXTJJuJRhJDPQHHGaeZNcrKK6XWwshqh2ZiZnCFPsagyXEmJ50XqwxorJ4uMDwzTHB8UEpRiOBHm7olRiv4wKwb70UsBJuthyqk0NX+TfDxH2uGlbCpIITtyawglKGJVLkRATmH4kwRvVUhIGvaIE6cm4fD3ERQiFRcJWCJVRq+V6e28MkmWhcWVYriYYd4t82flaOGtrbNy1NvSg6/bR8Q7M519hLA7JEREQpmRo1CcipZm6+NPcOj5p1iZUlmfjPHKshGOPHYvx559REjOy0wfeVMI0i6mhCBdePsQF04e5MKxg1w6Jtr8I/tmy8y6SFMH3+Dcga2c2/sa03te5d3NYr+P3cWry4Z4YSDHUncPyxNJ6lqRolqiIB7r6Qb5mam6AwmRV8a+2UvU48UjpMjZ4cLd5RHXrvjePhWfI0LrrdY9R1cNazesRgvIouF2kYi3kkouRI90knJq9Pb6CahlQrpJOCZkyNDobusiKIUpDplIuTQum4tBITgzi7zOjucO+fC2uogHJPyam0g6Rj4bYay/ipzxEhCBp1wuElR6cNpkbHZxDP/MUDs7gUUesoFB4toIaRFs8rpObyxMOONET3TQp7tJGQq3dfaQz8wsRBsTn4/i6tBYIg8Q0wzcMzPc1WMksjFyIpipWj+ZdHauthYWFlzcIoThI/zY7/i+fWjYO2u49Rc+yifU1+buN5rhApvCf8jHPlVi//vYxaWjG3H9yX/lr+bfyB9d8yE+9OH/iy81X+fbRp9d3M1jS8cYbXTzZ9f8V74UH2Z89TP/MvnDLO/Xc/RBHecH5PuWo6kH6f21n+Fry/6lG87iA2DdqjHSahRvOc1CrQ2v2kdLTze9DhuxngidPT4KQk5004laknAnJMJBkcCE41RFslPP9jOYTqGIOBLz9bBiPM3QRJlqvUiznBEi5aJ/1SCZwQyLRxp0K07khkytUKMg52kk40wWPawRn2vO9DLV01TjJWKdKlUtR8gukihvEo/Hiy/gwicruPUALjWFlCzhC+n4vEHccRHPyiEGq2k6417Shg3DtFMoyqjqlRmeY2FxpWhkU7TMb/02OepZ0E2wL0hCTqDKmsjpooSFHEVdIUwhR6V4im1PPcvbb2xh+8a7WSXyzFURH483CmzZsJwDTz/E2T1bmTq0namje7h0+ggX3z7OJVFmFoU9f+ow0ycPCXHaz/Tx3Zw9sI1zezZzfucrnHr+ETavXswzzRIbRP5bW3gz6/IFaoYQI7VAUcjRQG6YarJJKppHDSYJe8W1bZNmhc7d5cXbHUD2xIkGDIJuhfYWaxHYq4b1d40Q9XbNykQmOjNrXJSk10bTFyKhGyQKafrSN9PW+hXCapLQoj6SUQPN00s5nCRil4nEZOwenXihjqdvET3dHXT5A6TNLD6/g3AiiKnPBKcw+cEBovYiyaQQMj1KMBvAK4JH560LqfnWkPbm6XQGSZlBsS8bWrRBXMiNX0iZadbRjH5aW3vxqaoIJhqBoIpXSFxSXEgtM7MW5apE83F6bXZiYR9dEYlMvzZXWwsLCy6+SeovP8JH/6GfI98iC+ce7OXXPvLr2B7+9gkETgx9no//UYR/cz3TdzaR+fT/zR/23SUE5AJvjlzLr/yYEJeP/SHO+0Wwmnsbl95i+/NP83Di7/np/+c2Rp54hmdfO/DtQ/b+LTn6II/zA/J9y9HpxVz3M7+L731vTrL49zC4uklUcxOXZNpCDiJeJ+6giDHhMk1/mbiIM8HOVlSfA9XU8cdiJEXSlRbJ2UAlyyoRTxYXS9h72oi7HeL9IkaU4qxuFhhRTDK9TkaHy2hailqqSl7IT6mikyulyYl9jA4IGWpITN6ewzC8qKEgy4YGKeeL4rhtSO4UWWNMxD0RnzQPwaSfSD6PXB6nN+rEEVRIZ3LEtRBaoAefTWZhp4PBjI16zkc+FmJAtSYRsri6GCznWNTa+a/D6uZ3YGvrm52QwYgkSUQTxAOx2d6jsHOm9yhENqyz44WXhQDtYmrbFnbesZqVIQ8jrm6WaxJPLhvhwAtPcv7gLs4e3sO54zP3HR3jwowYvXWCsycO8c7x/ZwR4nTuyG6m9mzjwvYtnNn0NJvXLOGhao6Rvk7KN1/Lg6bCXdWKkKEiJSFIpUSJZnaYitEkHS2hSilCQoB8vQE8nV6c7R7cnT6xLS7aIpN4KIWr78qsqWnJ0RVg/Z0PogYyJDSTXDBE3yKFhEth0MxQzCVojAiJUW7DJU7G3qCLbl+cQCBFWO4m5uvE8CsEYyoddpOumI+oz41N78I7KOMV+xjoHyGsqMhKiIpDJR4xcQjT7h8exh110eZaiC8eJzOQJ+BIkWgJorTaqclhkkKSkt4AlbJCLi6CW2JmLLkkBCpK3GHijnSxwN9G1O+iJL5DIRwl0SkRi8WFzSviAusSx3Ci6zfO1dbCwmKmN+jZ0B/wsf9psHWui+jSiUeQ/uzjfPjnbmLld0jJhRej/I//83qWfc+enEtMHXmW+td+jV/8dJEt/+IBp3hM/jM+/qEf4Ud/6Z+obf5WQZjmEftv8os3r/zekzx8Tzn6gI8z/S6nT5/i1Kn3Lqffmf6eQ/G+Xzm6sCnMH//Cjax4jx4wix+MtRs3MGjoqE47vqiffDRMLBFFiqVQ5Pjs7KSZrGj/1SS9LV5MfYCyI8DSUmN2vaPbl+cYHqoQEAKSk2N4ujzYut0iroQxvTKL4zkmhDwtH1pGI1tm6egy1t4xTqWRYnG9n2YxxUSzQSlXIu5dQF9vC6GYjp6RaWpBBvID6MUhquUmSlLEKrkHxW5HNrOkq2kSPoNOhw271yfilId4vIJ/vohdIRu1jEpJz5BXrX/oWVxdDJXytC3sYr4QowW3LKSjpRNHp7iGe72zPUa6rBP3xwiJvC/Q58Pd7ZpdS+jA1u2c27ef6d07mXpjK2/es4Ehv4NCVwuDXgcPDQ9w6LmnOfLqJk7t3sbZ/eJ9h4QMHdjN+SN7xc+7eGfXVt5581XOvPYCx596lBeXjrEuLnLS1lvJ3nIdD4k2Y9vSQe6ulqkLOaoadaqJGs3MEOVEP+lYgXjQmJUjT68f+yIn3S199IpcNeCQSUTSZHTRHoSMudpeXiw5ugKsu+sRWq6PYSYNzJnFt6KLkYQVZ1Iq3TEHvkIPmXCYzkAYqR7l5pzOomScBdku9KYIRLYA2VweR0jHJYKGFI0Sy6pE0xp9niARETRiGT99mpuc3yQhBKYjERDCpZApGvSEnHS6bQTF6zM/z8wfbwaCZNQwuWQWMyculPgi9IKKS3ZTSAdJdPmI98m0ds2nT3IRDfUSUWWK4QD9fWEKWZ2CWiEd0YnkFVIJ51xtLSwsZnnr6yQ/95dcby5n5VACvz9O25//BD/59zUOfKcRTD1Iz2/8FvZHv6MHZPpxPL97DT95zcf5+E99jB//8V+j+/65XqfZ1z7GT/zkNfzUxz/OT13zMX7y5+b+SXFxM9qf/R98pn7we8rHd8nRB36cd3jYuIkvf/lLfOlL712+fJ2LZbu+e/7y70+OLnGg9g/8/Gf7v/v3afEfYuXkYoKtXtIihoS1OE6Hi3hUQc1k8Ls8mPk0jQkhIukMmahK0J8jZY9R8JcwmpNUVlUZXTxMstYkV8+ST0dxRLwE4x5K+RRGySCVk1EiEpMjBVIifg0t1smOpchXxH5FHFxaFpIT1UmrCo5be9FyIjnK9LGk4SfXFDGpqeJJG3TVS/jiKoOSTjDnI1B2oyseZEnD7VcoxaLYfE7sCx1IfjuqiK9dQtbCWmquthYWVwdDhSI337CA66+bx63icdGCDmxdduxCkDw9HiIumZBDwt3loru1Z7ZnKaWmOX3oBOf2HxCCtJeze3Zw5o3NbLlnPROyj0L7QordnazNpXjm9mW8dv+d7HziIQ48/yQnZ2TptU289fKzHHnmUQ6L7bvE554crDHQ10Hyun8id9O1PJxT2b58kJ1rJriv0U/DrFA3mtSFFA0XxmjmhikbVYzwzLI1Cr6+ALZFDjpu66JTFE+3V+S1SYpGiax2ZdbUtOToCrB63QZkpSaCS5iUf2aIQI1wj12Ysls0/rIQFQnDJhpzv4SUTJMcF4GmJFHJx0RA6Sas9BGK2SjWNIJGH8FiCMOMotkjeDw2lKRCLGXSI3tIefswNQ8en48lY6MYUgxNDhNPRIRI2cR2x+wCr2Y6TsFIoik6Ya+bTHJmAb80XkkEp2Qd2evBGQjh6jUJd5iYalEEujylgoTS3kMxLWGKfedKZQL9NSStOVdbCwuLf+UcR7Zu4uU9Z7h0ZjXzfv6j/InyCt89em6ap3y/zx8Gnv72+3p+QC4davKPP/0J1Ne+uU7Rwe07vn2yh+9jQobvh/c9zg/I9yVHlw4x/KVf5dqxI99bAC1+YO4afoyYu0DIa6O3q4WALYwULRBXTRSXjXDAizlsYBg6kaCQl6CBIiSo1L+MieUPUm8MMJpqklWKDJcKVHQvgUQXgbyLQDBE0Bmk2CuTdYaQwm4aWQd1OcTSapFmIY6m+0jpMmowhnehib+9jNoXJhf3MzEQpVHpoCKOp6ZmRGsFdqkiRE4jlg+h5xwigfJTSWiokhPTExCxNU44EhVxLEk0n8GhSIQbubnaWlhcHTSzeb76lXmi3MJtN7bQsbALW6cDW4cN18zCqk5JXMsB7EI8Ft7cxq1fm0+zMsD5t89y7vBhzh48wPTBvUzt3c7bQnpeXbuCFXGZdMs8Yjd9lWxXG6MRifv6qzy7bClb71jPtrvWsXntSp6fHGFjIcWk14H6lS8g/cMnaSy8gXtVidcnBzmwfgm71y/n/qEhakZFlAY1vc5ocZzR0rhoA5pklCyapCOLdsHd6ZqdTKJ3QTfeTpErBzUhUEWqqfpcbS8vlhxdAVZtWCrkIY3fH2EymyEezpD1BclGXSTlCAP9UeK+hZT1MoacwJ0K0trZjq+7h4GhLJKQp6TfIBvJM1/YeKjoo1YKY2gymhFAiUUIalV8QngavgWMSCEUEcSi/WmC0SSKJBPKhXGlDNIiYHQuUtDyERIZL3oqIwJHCXnmxrxigXkdbpyeDL5QgKDpwu9LYwTDRN1xisk8Az1xst0aKTNFb5uNgMeP1F0WJ/OSudpaWFh8L2bXN/rIr9Lz4PdesPTi6wU+/Uc93P8BzC0wdU87/+3XenhAHOri7gn82sPfPuztA5Kj9z3OD8i59Qv4pfeZyvvi9pnfVx8PfBA2ZvFtrKqumx054A6FSERj+Fv8OCM6tZEcRo8DwyfkItZLyesnm/awoKMXtTHEXSvvYf3oMsqp3Owij+XsCCsaS3iwNoHpFzKUyBFZ5KL9Zge+GzTMhS68di+FoITHs0i87mVxVibm9WJbtJCMGUFqS5KPmRQLCvVSnNFGkupwgPrSNKmhMEokQ1DJi++ZIZJK0qJEiCwvo5e9JJzd2HrCROyS2JdKXDEJyn5iM6Mt8vpcbS0srg7qqSxf+eJNXH/dbcy7fgGtt7bTvqCTroXdQo5cQo5C+HqDdC7o4+Zr53P9l29h1ZI1XHhnirPHjnL28CEuHBPl0B6md74+O0TuNSE0d6RV0q3z6Pv7v6X305/E9ZnPoN10C4MON+NeF+NuB9W2BUQ+91ncf/0XJL74eVY4bTySDPPKUJm9q5eyf91ydqxdzgOj4+QU0T7oVQrxMoO5IYbyw9TNGpmIyDdDCVRfDNkeJCCkSOr0IHf7MAIzw2Hz1MT7rgSWHF0BHr5nKY54nmw8ixk0REOfJRnwE+2xiWQiSWkkjlGX6RGvLdBsdIogESuUCIXD1DQDPV5hWFh2ujuHxy+EKqFTzsWop0MEfLeRGG1SrIlAkbORC0cYDY5SD9fonN+GT0hNttmgIyfRVc3SqftRlDIhn4MeIVqqCBYOd0RIlobTF6atL8ZN7TFsThNNBKpERcNjdNBvGEQ6YngWBIiY4rtnAqTzVZzFCHa/xlDZGqJgYfHeXGSz9gk++jPXs+w911I9xzORT/KFypvfMpPdD8bF3ePc+CdfJDpcQ4uPsek7BeIDkqP3Pc6/kwsvTRD2uen47G/zsz/723y2w41PnuCl7+pqe4u7O/+Cmxa/x7BBi/8Q9w6tx9nhwR0WMSraTTHSg1Pr5gv/+AU0VaHVJV6LOBnPmQSEHDnzIoYNVBgbWEpj5VLSxQGqIvGp5GqUcjNTeKfIjA2gGEWS4SjO7k6C852YmkyHO4jPSJOXI4TmdZPsjFC5uUqmI0/OMOkT8aqaUgnrEaqFGGvMPOOpCoosUfaGmXBppPQyfbYomnivGpfxzkwmIWKdGRLS1R0jHqlSiYiYuCCG1O5hMFEgKlXmamthcXVQUJN85Qu3cO0Xb+aWr7Uw/6ZW5t/YOttL1NPag18Ix8zkJO239nHdF+bxlc/dwBOPPcv02WnOvn2Sd44fZfr4ES4c3seFAzuZmrmPaOsL7Lx/LQ/25yh0LMD+d5+k8/8Tbe/v/B43/NbvcNNv/Qa3iNL6B/8vgU/9NYv7unlIV3hAi/Js1WTnykkObFjD/g2r2b3hdjat30AmmiQj8uBMJEtJK4tSJBfLkBZilBIlGYjPTrsfn5llzxZC75PI+IUcKWnKenGutpcXS46uAA9uWIWarxPq1Ui6DcywRjVhiBM5gdOu4vMHuc3RQ7tTJlr0EY3aKad1srJMzptBSZQIOLvIejUUWysJf5qJZQOUk1004jH8QSEtkp/ORC9yMkqoWyfaFsEliYAiTjh3t4fbgnZ6svHZoQeaVKCU1pBkB8m4SaU8QD5nEI+rSFIab6RBrryGWq1OZjBNsOBDd8dQAwaBUApdThKSIuhBE3vIgVNIXzBqLahnYfHdXOLwxjQ9LV/mj3/+w/zoT/0O/9TqoPH0e3SJvPMsiWtvobHt35q27vvk3FEOHH2P43xAcjTLv3Wcy8IlTmx08flFq6x7jS4TK5dM4Ap0o+QNgmEv0biLUNCGp7OLgiJilhrGU81i641g+Gyobi+q30deSaHpgzQLG7hzYCUjNZOcHmbpYJ3JiTJDQqZqlQKVbICY2k5Y9eO2BQnODO02JAYUk4Y9w7hNCFV3lLQcxidkORDuQBsxkfMtPL6iTDHowUyq9DvE8TpTdEfiuEMBIpoPRZfwRT2UEknS3ji+3iTetplYKOKXkG1/q4dEqEBc7N/C4mqikkgLMZrHdV+6lZu/uoBbb2jlthsX0nJTG4tua8fT58fVHeTma9v4+7/9ihCpm9m+bQ/npy8wPX2Od04e58zhg5w/coCLh/cwvX87U3u3cu7NF9n32L08Mdo/O9V3adFCtBuuR/7iF4l+/p9I3/hVhrvbWR8J8lBK52GRvz5TzrJlySD77lzHoXvu4uCd69l751q23n03D6+9i6TII9ORDNlohqKSIx8xyYYMspJOKjizPlqMtCNCTpSCK0Y5mKAqcs2aYcnRVcOqVWtFMImhtCfICPnQ/V4U2UtPWwu9svjjjzSxlzLIIhCkKgEa6QLRkILf68Ht0vC6krjsEjZPlKIvRUqroGZSJEWA0eMG0UyCQMCHZJjEszpKLEApVCKYGyaYSGFIBp1xETxqGsN6BjUUQ5bCuHudhPpCNMwA1Vgvg1ETw2Oga0nC+Qg9cpRsJYkhC0EL6iLIheivzkwBnicVCTEkbN8XFWYvxGhQnMwWFhbfzaVzJzl+4hRnzk1x7p3TvHX8BGf+Dfe5tH8DgZYoG49exsz/wvPIf/5VJn4Ilwea2jxI16Iqm6yljS4bk2vX4/Q7UdJhnHkhMlEdM1BGaouRi2Tpiej8Y08vtzqD+PraZmdazYWDrEg3mchOMpxbzeJSmVSmj5wWYlzErIlijVxRETEuy5LKGLJp0iwtZ21yjIpZI+aUmMyMzA6TazRy1NYPoYlYaIqYlvO7SYR9NAyF4UiCNcMjpENJ8j4hU8F+Qn4TLRyjni+Q9QeoCCHLZpwMJVNkkhnK4SJOXx5F0UkmDdwxhbLfGlZncXVRN7PccN1Cbr6+jQU3d7BwXiet88TjzYvEY5vIOfuYd/0iPvM3X+Vv/uIL3PS1Vo4eOcnUjBxdnGb63TO8e/Qw5w7vn52FbvrQLs4deJNz+2ZmontJCNJ9vLp6Kc9NDvHC4mGeGW3wyuQIW5eO88r4EC+ONETp58XRutg2zM4NKzm48T4O3Xc/h+66k/1ClDZvWMvRbW+ycmQ5ql8jL8SoYVYZzvQzlKoyYJRoCgFq6gWGYjlGozkmlAITRoXFhQEmK0Nztb28WHJ0Bbj9jvvpsgkZ+mKLaJwd+DvmkzFSJOoFjP44Pm1mqFoWZ9qFoySez5fJhTRccRfudIRA2I49Kh7Tqdkx2hFPAElXkONp/CJYuL02iqqDbNhESjdoVMLk/S66exR6OqPCzotE/AaKy8ukEJpYi0QomabH9OOJduOPtRJx3spgJc5gQqejYxHt7k4WCKHqkzKEr9Px9qWIiQAT97YSDkRQR2Tx2RRyaoBuVx/lTvtcbS0sLP6jXDq1i12XU46YZv+Wbbz1Q9jzcm7/bg59ELNWWLwngxsmmO++ha5mkK9FXBixcXztdYLeECGpG1tE42tfdfPVeTnaexKzMWDZSJLBRoPE6joDi2usMeJMNNwUG1USg2WGlg1+c+mKpQOsLA6R0TNUmw/yaPVuBoMBFpsphsbrRMdKBBU3+WIGm5ojW5mkEEgw2muwPpFiIl2nf0BHdgeop6usFUnWsFfEObtCxO5GL+oUNZ0V/UOzM1zFFSFeXoNMQkjZuBAvV5ycu0AkbMmRxdVFM5PllhsXsWBeN4vm2+hosdPZYqNtVpIWMf/GNv7pU9fxV5/4HH/1559jwa3dnHrrDBcuXmLqwnkunJ/i/JlTTB0+wPlDQo4OCzk6tEMI0g6m9m3j3Jsvc+L5RznyxEaOPCbKI/dx8vEHOf3kIxx76F7237OeA/esY88dq9gtyt67N3DgwQc4sPEBDt9zD4fE85dvX8nR7ds5svMQSweWkoumhQyVmcwPsKw0PFuWCwFaWRnh9vwQazIDrM0Ps646wd3jq7l3+Ya52l5eLDmysLCwsLCwsLCwsLAQWHJkYWFhYWFhYWFhYWEhsOTIwsLCwsLCwsLCwsJCYMmRhYWFhYWFhYWFhYWFwJIjCwsLCwsLCwsLCwsLgSVHFhYWFhYWFhYWFhYWAkuOLCwsLCwsLCwsLCwsBJYcWVhYWFhYWFhYWFhYCCw5srCwsLCwsLCwsLCwEFhyZGFhYWFhYWFhYWFhIbDkyMLCwsLCwsLCwsLCQmDJkYWFhYWFhYWFhYWFBfC/ARQOVgOR5J/vAAAAAElFTkSuQmCC;" parent="1" vertex="1">
          <mxGeometry x="10" y="151" width="782.31" height="138" as="geometry" />
        </mxCell>
        <mxCell id="PfEc_GqxXj_l5q8TzJH9-7" value="" style="endArrow=classic;html=1;rounded=0;fillColor=#d5e8d4;strokeColor=#0d5d4b;" parent="1" source="PfEc_GqxXj_l5q8TzJH9-8" edge="1">
          <mxGeometry relative="1" as="geometry">
            <mxPoint x="791.1500000000002" y="337" as="sourcePoint" />
            <mxPoint x="31.150000000000205" y="337" as="targetPoint" />
          </mxGeometry>
        </mxCell>
        <mxCell id="PfEc_GqxXj_l5q8TzJH9-12" value="" style="endArrow=none;html=1;rounded=0;endFill=0;fillColor=#d5e8d4;strokeColor=#0d5d4b;" parent="1" target="PfEc_GqxXj_l5q8TzJH9-8" edge="1">
          <mxGeometry relative="1" as="geometry">
            <mxPoint x="791.1500000000002" y="337" as="sourcePoint" />
            <mxPoint x="31.150000000000205" y="337" as="targetPoint" />
          </mxGeometry>
        </mxCell>
        <mxCell id="PfEc_GqxXj_l5q8TzJH9-8" value="&lt;font style=&quot;font-size: 14px;&quot;&gt;&lt;b&gt;Forward Process&lt;/b&gt;&lt;/font&gt;" style="rounded=0;whiteSpace=wrap;html=1;fillColor=#0d5d4b;strokeColor=#333333;fontColor=#FFFFFF;" parent="1" vertex="1">
          <mxGeometry x="70" y="322" width="130" height="30" as="geometry" />
        </mxCell>
        <mxCell id="PfEc_GqxXj_l5q8TzJH9-13" value="&lt;font style=&quot;font-size: 14px;&quot;&gt;Trainable&lt;/font&gt;" style="text;html=1;strokeColor=#333333;fillColor=#179c7d;align=center;verticalAlign=middle;whiteSpace=wrap;rounded=0;fontColor=#FFFFFF;" parent="1" vertex="1">
          <mxGeometry x="340" y="130" width="70" height="30" as="geometry" />
        </mxCell>
        <mxCell id="PfEc_GqxXj_l5q8TzJH9-15" value="&lt;font style=&quot;font-size: 14px;&quot;&gt;Fixed&lt;/font&gt;" style="text;html=1;strokeColor=#333333;fillColor=#0d5d4b;align=center;verticalAlign=middle;whiteSpace=wrap;rounded=0;fontColor=#FFFFFF;" parent="1" vertex="1">
          <mxGeometry x="340" y="284" width="70" height="30" as="geometry" />
        </mxCell>
        <mxCell id="PfEc_GqxXj_l5q8TzJH9-16" value="$$X_T$$" style="ellipse;whiteSpace=wrap;html=1;fillColor=#8bcdbe;strokeColor=#333333;" parent="1" vertex="1">
          <mxGeometry x="22" y="170" width="70" height="70" as="geometry" />
        </mxCell>
        <mxCell id="PfEc_GqxXj_l5q8TzJH9-17" value="$$X_t$$" style="ellipse;whiteSpace=wrap;html=1;fillColor=#8bcdbe;strokeColor=#333333;" parent="1" vertex="1">
          <mxGeometry x="250" y="170" width="70" height="70" as="geometry" />
        </mxCell>
        <mxCell id="PfEc_GqxXj_l5q8TzJH9-18" value="$$X_{t-1}$$" style="ellipse;whiteSpace=wrap;html=1;fillColor=#8bcdbe;strokeColor=#333333;" parent="1" vertex="1">
          <mxGeometry x="427" y="170" width="70" height="70" as="geometry" />
        </mxCell>
        <mxCell id="PfEc_GqxXj_l5q8TzJH9-19" value="$$X_0$$" style="ellipse;whiteSpace=wrap;html=1;fillColor=#179c7d;strokeColor=#333333;fontColor=#FFFFFF;" parent="1" vertex="1">
          <mxGeometry x="650" y="170" width="70" height="70" as="geometry" />
        </mxCell>
        <mxCell id="PfEc_GqxXj_l5q8TzJH9-3" value="" style="endArrow=classic;html=1;rounded=0;fillColor=#ffe6cc;strokeColor=#179C7D;" parent="1" source="PfEc_GqxXj_l5q8TzJH9-5" edge="1">
          <mxGeometry relative="1" as="geometry">
            <mxPoint x="31.15" y="108" as="sourcePoint" />
            <mxPoint x="791.15" y="108" as="targetPoint" />
          </mxGeometry>
        </mxCell>
        <mxCell id="PfEc_GqxXj_l5q8TzJH9-21" value="" style="endArrow=none;html=1;rounded=0;fillColor=#ffe6cc;strokeColor=#179C7D;endFill=0;" parent="1" target="PfEc_GqxXj_l5q8TzJH9-5" edge="1">
          <mxGeometry relative="1" as="geometry">
            <mxPoint x="31.15" y="108" as="sourcePoint" />
            <mxPoint x="791.15" y="108" as="targetPoint" />
          </mxGeometry>
        </mxCell>
        <mxCell id="PfEc_GqxXj_l5q8TzJH9-5" value="&lt;font style=&quot;font-size: 14px;&quot;&gt;&lt;b&gt;Reverse Process&lt;/b&gt;&lt;/font&gt;" style="rounded=0;whiteSpace=wrap;html=1;fillColor=#179c7d;strokeColor=#333333;fontColor=#FFFFFF;" parent="1" vertex="1">
          <mxGeometry x="620" y="93" width="130" height="30" as="geometry" />
        </mxCell>
        <mxCell id="B5CV1MzqKo0ey8wIoFzI-1" value="" style="shape=image;verticalLabelPosition=bottom;labelBackgroundColor=default;verticalAlign=top;aspect=fixed;imageAspect=0;image=data:image/png,iVBORw0KGgoAAAANSUhEUgAABPQAAAJaCAYAAACofxnLAAAAAXNSR0IArs4c6QAAAARnQU1BAACxjwv8YQUAAAAJcEhZcwAAEnQAABJ0Ad5mH3gAAIQJSURBVHhe7d1vaFx5oub3SwhhQxKyhMAmr7JvAvtqWaI3qxdeBCZmm+CwYJFcF2lo0YERhhFrMqKXUZqlxYBRJ40wrPALr3zpKMO2MMyVXzTy0vguTdSsURMcNTRXDYNMDMXFRGAoMEuB4ZfzqzpVKpWec+qcU6fKfs58P/Dl3nHbKrmqTv15XKr6swAAAAAAAADABoMeAAAAAAAAYIRBDwAAAAAAADDCoAcAAAAAAAAYYdADAAAAAAAAjDDoAQAAAAAAAEYY9AAAAAAAAAAjDHoAAAAAAACAEQY9AAAAAAAAwAiDHgAAAAAAAGCEQQ8AAAAAAAAwModB7yRsLyyEhaTtF+kvfahebPe+z4WFtXDwOv21PyXvzsPx1xth5aPF/vlw7UbY/Sn9b2iMk/v943Hh1wfhPP01AAAAAADgg0Fv1J/yoPeuHQ7upkPeSB/8ZYbSGPQAAAAAAPBWbtB7cxaOHm+F9Y9b4ca1weizGG7cboX1+wfhRI5gDHoO2o9X+n/3a2th/+dO+qvTOX10M/marbD/Mv2F6PwwrMXT+eo4/YWCOqdhPw6O90/SX7jq/MlaevmVKGvUetcN7ef7Yes3I9f168th9fO9cFz3deP1Qf88KVX16yiDHgAAAAAA3ooNevFHMR+uhqUro8J4a+HwykLAoPfhOw27N/uX0crjdvpr0zoPh3fj19wOx+/SX4p+7J/Ha98Wn5LOn++G1ev976/uQW/xy+PQTf/80Nvk/Pj06qsVL1oK69/WdT4lqgx617bC8ZVvvBgGPQAAAAAAvBUY9Lrh5P7ycEhYurMdDr4/CWevO6HzphPOX56Eoyc7YeN2HEDUEMag98EbvGpuYTHs1PWeee+O+5f73cNLo9HZN63kdG6G3V/SX8jReXkUdu8spZdJWs6gF7r96+Skzl/shOXe1xOX87vTsHsrPa3rq2H3+7Nwng5n3VcnYf+LwbGwnFyfKy5q49515fd5pfOTsPM/9L+3tSfVpzgGPQAAAAAAvE0e9H7eDTd7A8ZiWPvm7OqrmUa0n+6FZwx6foavEKvx7/1yP7SSr3nz0Wn6C1EnPPttPJ2tcJRzRTr/YSdsfDIy5F1vhVb6CsLcQa+Q+D30X323fOl76xv90eMD+SK8kYH71m44HX314Yx1vtsIizWcLoMeAAAAAADeJg56/fdBiwPHdjipNCIw6H3wZjDonX/b//HX7R/TX+g5CTvx/eh+dRDyfmB1ODgtLIWVewfhtNMOB79Of23aQe+X3f6r865thGdv0l8bKvijx2+PwlbvffUW53edHr5ycDFsfDfdexwy6AEAAAAA4G3ioDd88v/xfjhLf60cBr0P3gwGveOv+l/v0nsqtg/CanI6iw/yR7mTh8tjH7JyXtOgd/F11KvzBt/flQ/yuKIbju71v87lVyDOzvD9AWt4VSCDHgAAAAAA3oq/Qq/y2HN10Ov8chi2Rz49dPGj+Cm5h+F00guPXp+Gw96n7C5ffEBH75NHd8LhLwVetfTuPJw82Q7rt2/0f3QxaenWatj4+jicx5Gk4KDXbR+H/XvrofXR4IMTlsLynY2w9/1Z6OSNLb3T3wkbd0a+/2s3Qiv+2R/auT/OPEl8v7m9z1dHvqf0fL23H45eqvNmZCTLqvDgc/HKtvIVeT+9ega9bnL59n58XL46L1Fi0G3/YbX/e/POo3edcPb92Cfl9j4VOl7njkK76AXeTY6h3vlb8NV5r0/CwX1x/Xze/04Z9AAAAAAA8Db5PfRe7YeV3iiwEBY/3Q0npX/a7/Kg136ynv1pudfXw2HGTzqe/b41HOF0+Z882v3jflgffFKqaPH2Tjj5ftKg0w2nX+d/2u/i3f1w9jb97aPah7mnX3lceXsW9j8b++CIKy2G1ldH/dFyqMZBr3MSDh7shJ1BX671h7NPNi5+LWnjk/h1b4a1L0d+74PDcDpx2Kpj0OuEw8/6X+Pmw4xX1f0yeL/ISa/QGxn0riXXm/TXRk26vpUZyDtP1/t/5uakV+d1w9njnOMrXg8enIQjBj0AAAAAAKxNHvQS7SdrF2PatVbYfHKa/0q0Sy4Gvc2v4iuklsL61yehPRi93rbDyaOLr7/422dBbYa9VxUlpx1f2XT2+mIB6r46CluDTyXNeuVV+yCsDV4hdWsz7L9oh87gS7w9D6dPNkMr+e+L1wavaNJjy+nXg1FxOWw+Hvk7dM/D2fc7YSU9jZtfHV9+td3IJ6cufroTjl+NfP+d5M8+3w9b9y5/Gmwh3ZOwM/y7J5dL/J6Gf7F43pyE/d9dDKHL90/0qwDr/pHbn3Z6p9n6ZvSHtM/D4d34feoBLF8Ng97ww13Ww6G6jkTd5LrU+z0T3kNvZBxcWNi+8vfpvtjpXZ96//3Weu+Vm4NPyu19om1yuRzc3w6HRc7reN1JX/24/jR/TR89Tpe/2A8nrzqhmx6n3den4aB3XVhMrufp98agBwAAAACApUKDXtR+2h+9+iNG0vWVsPX4ZOxVX8rFoBdfnbX9XI0S8ZNDBz/auxGeid9y8u1+9o/kvrx4FeHVH0m8+FTThVvb4US9ei56tZ+OWjExbA0+TGFhOWy/kLNYbzTq/56VsP8q/bUoHbhyx6QKTh+ln7YaP5F19PTGXAw9y/rHW2se9PqvXlsMOz+lvxC9O+5fDzIG23zTDnrxPe/614HFL8fG1ku64fjL9LqS+Sm3l4ezK4PeyMia+WrNEro/bPVP69pWOM7+xkN48yxspMdn5nCbaD9O34svxqAHAAAAAIClwoNeT2fwKp90EIhdXw273+e9/9vIoPfZYfaY83I/tNLfV/7DM87C/sf9P3vlAxeGPzJ8M3uIS50+zHq/wIuh52bOWDI6PF16ddrwvdn0WFlJ9zj9pNWFsPZkwizzLjl/ej/umpw/ahCrddAbfGDE2N81vXwvv2qvqCkHveF1IGPQHDX6as7eqx6Pw9nrTui86YTzl8fDVzyufLLS/z1jg97wx2OzXi1aSnt4uckP8RjRfpx+PzeT7yfvaj7yij8GPQAAAAAAPJUb9AZeX/5RztjSZ1mvRroY9Na+zZkPBq/gSio/6GUPPuffpq9Iiu8/lv5apqwPRRh+b4sTv7fhBw58dZz+SuLNYVjv/fn4o5CH4Sx/Vyzmx3Ij4dk3rf7vV+fDVIPeeTj6evQ98bbCWhyMbqyGreGvJX3eH5xavx35taRnOa8svDDdoDccaj/ZD3k/SDvQ/Xl3+OPTqqXPDkN7cP5fOj/jq0H7v0cOp2UNf0x47BWfV6Q/zpz83iKfusuHYgAAAAAA4K3aoDfw+jjs3rn4QIbFuwehfeVHcC9/KEa2Yr+v22mH0+fH4fBxHITiJ962Ln2y6/jgMxwvivyoZ9agNxy8SjQ2llx+H8IbYe3+QTiWnz5bzHny9Xpf6+P9UOg1b8O/29X3fJtq0Bt537nyFX3F4hSD3rvkepWOc5Peg+6Szlk4+nojrN4aXL/jp9Ouh+2n/fePHJ7/d0ff+/DiOlzo02gnOLmfXq/zXtnaU+50GfQAAAAAAPA23aDX0w1n31yMVVc/TKCeQa/z037YuD0y3GWVNegVGYJmOOhFnV8OwtYnlz+RdvH2Rtj7sfysMhyUio4yWX+3qM4fuU1fuXb51Zjpj0RX+kCMqPqg132evgddnT/unDh5kP4I9qVXxBW9rhcw8iPVk0e6cqfLoAcAAAAAgLcaBr1oZHC58oqx6Qe97ovt9MMmFsLSJxth+/FhOH5+GtpvOqHT+zHf7MFnOF6M/ghslomDXg2DV6Lbjp9yuhZuDH+sczGsPDrNeW++qz6YV+iN6f9o783L71XXeRY24te/d1Tq73ih6qA3eD+/aU5buXjPxq0fRr/qyHX4x/SXKoofhtG/vLbC0cRvvNzpMugBAAAAAOCtpkFv5D3argxG0w56F2/iv/Iwa/TKHnxOH6Xvn1Zg+Op8t9H/vePD1siPlU471Fzyrh0Ov0g/qXbi+6RdVm7wCeknz2acD7UNeoP3kBv7ntJX7a3+ocg72CkVB72Ry62OH4EdGry33ZVPnr0Y+qp9+MfAyBBZ6FOBL46Ryad78T5/DHoAAAAAAHiqbdA7/iodCa586MKUg95wbGqF/Zfpr40b/eTOscHnYvhayf7zPZ1w+Fn6Na4MWxeD0uKXxzW+0isx8mEguR8aMm7kgzYmvjfcyKfcyg9NqGvQG7xf3aX3lRuMvYth56f0F0qrNujN5Mdt37XDwd30x20fXj0vhx/AEY+DK+8nWVCpH7eNRgbAT/bDWd7pjlxvGPQAAAAAAPA0YdA7D4f3d8Nxe8KE1T4Ia+kAcXXwqmvQy/6E2UsfODE++IyMI/pDO/oufQ0xbHWerqf/bTls/5gzssRX3X39rPhQMjLoXf7xzUm64eR+Oh5dS77fnFf3Df9uye87VINdXYPey/3QSr7O5dEw41V7pVQb9IYfKvGr5HJPf20q7zrh+H76ispryd9Hfarzq/2w0jsvF8Ly/ePeB2iU9mI7vS6uhoOC3/jFeLkY1p5k/KGRMbIXgx4AAAAAAJYmDnqDIWX43nUvzsJ5fO+6N+fh7MXR5feCk4PRlINeOAt7t9Kvf2szHPx8HrrpSNI9Pw2HX62ExWsrYSX9UUc1+Jx/ezHWLX66E45ejn6Ns3D0cDUsLSyGrXub/a+hhq1LY8hSWH14FM5eXyxU8dN3T55sh9XryX8fG0rOv91IP9X2PHRGRq142odfThiI8rxNzrPBeXOtFTYfn4T2yAl0X52E/d+1Jg89NQ16gx9ZHn9fuZ14/ZhqVKsy6F38+Kt8VWKW14dh6/O9cPhzO31/xkS3E9ovDsL28BOdl5PraPY6OToOL93ZvXR9C++64fzlcXLcbOtxNTH88fUrr3bNcx4Oh9fPxbDyILl+nqffY+80j/qfSJ1cz7a+6H9vDHoAAAAAAHgqPOhNavH2ZjiUrxKbdtALlz4U40rXWmHnxdmEwacbTh+tDEeWqy2GtW/OeqfT/98Zw9bb07D76cgrnGSLYeXry+/1N/wAi6yurYTdn7MHolznR2F70qf/xrHvac6cVtcr9GamwqA3+CCOpFLvnzc8LzK6vhr2Jl5W3XD2eD0sqT8/LOu8HnmPu0Lvnzdi0vXz2lrY/2N8ZWf6vxn0AAAAAACwNPk99N51wtnzg7B3bz20Pl4eGSkWw43brbB+by8cvGhfvALpiukHvZ7Xx2Hv89WwHF8BF3/f9eWw+vleOO6NIsUGn84vh2FHfI2jl+lsMmnQi951Q/v5ftj6TevSp9TeuL0aNh4chBP15+IrCR9vhfVL599SWP54PWw9PgpnpVYbIV5G3/e/p+Hfrfc9Ffz6TRz0ftpJB9yxT9ydpNsOR+OX1bUboXVnI+w8PS33I7SvT8LBg42wemvwyr6FsPhRK7nO7eQcM+krGpPfW+qVhQPJdeH06U7YuHPx/S/dSq6bX19cDxj0AAAAAADwVtuHYgAAAAAAAACYPQY9AAAAAAAAwAiDHgAAAAAAAGCEQQ8AAAAAAAAwwqAHAAAAAAAAGGHQAwAAAAAAAIww6AEAAAAAAABGGPQAAAAAAAAAIwx6AAAAAAAAgBEGPQAAAAAAAMAIgx4AAAAAAABghEEPAAAAAAAAMMKgBwAAAAAAABhh0AMAAAAAAACMMOgBAAAAAAAARhj0AAAAAAAAACMMegAAAAAAAIARBj0AAAAAAADACIMeAAAAAAAAYIRBDwAAAAAAADDCoAcAAAAAAAAYYdADAAAAAAAAjDDoAQAAAAAAAEYY9AAAAAAAAAAjuYPe3/mXn5Nx//n//k/JvP/sf/2fybi//ev/kcz7Tz7+78i4/+i//0dk3n/4j/4bMu4/+Pv/NZn37/9X/yUZ9+/9p/8xmfdnf/ZnZNysMeg1ODUQkVdqJCKf1EBEXqmRiHxSAxF5pUYi8kkNROSVGonIJzUQkVdqJCKfZo1Br8GpgYi8UiMR+aQGIvJKjUTkkxqIyCs1EpFPaiAir9RIRD6pgYi8UiMR+TRrDHoNTg1E5JUaicgnNRCRV2okIp/UQEReqZGIfFIDEXmlRiLySQ1E5JUaicinWWPQa3BqICKv1EhEPqmBiLxSIxH5pAYi8kqNROSTGojIKzUSkU9qICKv1EhEPs0ag16DUwMReaVGIvJJDUTklRqJyCc1EJFXaiQin9RARF6pkYh8UgMReaVGIvJp1hj0GpwaiMgrNRKRT2ogIq/USEQ+qYGIvFIjEfmkBiLySo1E5JMaiMgrNRKRT7PGoNfg1EBEXqmRiHxSAxF5pUYi8kkNROSVGonIJzUQkVdqJCKf1EBEXqmRiHyaNQa9BqcGIvJKjUTkkxqIyCs1EpFPaiAir9RIRD6pgYi8UiMR+aQGIvJKjUTk06wx6DU4NRCRV2okIp/UQEReqZGIfFIDEXmlRiLySQ1E5JUaicgnNRCRV2okIp9mjUGvwamBiLxSIxH5pAYi8kqNROSTGojIKzUSkU9qICKv1EhEPqmBiLxSIxH5NGsMeg1ODUTklRqJyCc1EJFXaiQin9RARF6pkYh8UgMReaVGIvJJDUTklRqJyKdZY9BrcGogIq/USEQ+qYGIvFIjEfmkBiLySo1E5JMaiMgrNRKRT2ogIq/USEQ+zRqDXoNTAxF5pUYi8kkNROSVGonIJzUQkVdqJCKf1EBEXqmRiHxSAxF5pUYi8mnWGPQanBqIyCs1EpFPaiAir9RIRD6pgYi8UiMR+aQGIvJKjUTkkxqIyCs1EpFPs8ag1+DUQEReqZGIfFIDEXmlRiLySQ1E5JUaicgnNRCRV2okIp/UQEReqZGIfJo1Br0GpwYi8kqNROSTGojIKzUSkU9qICKv1EhEPqmBiLxSIxH5pAYi8kqNROTTrDHoNTg1EJFXaiQin9RARF6pkYh8UgMReaVGIvJJDUTklRqJyCc1EJFXaiQin2aNQa/BqYGIvFIjEfmkBiLySo1E5JMaiMgrNRKRT2ogIq/USEQ+qYGIvFIjEfk0awx6DU4NROSVGonIJzUQkVdqJCKf1EBEXqmRiHxSAxF5pUYi8kkNROSVGonIp1lj0GtwaiAir9RIRD6pgYi8UiMR+aQGIvJKjUTkkxqIyCs1EpFPaiAir9RIRD7NGoNeg1MDEXmlRiLySQ1E5JUaicgnNRCRV2okIp/UQEReqZGIfFIDEXmlRiLyadYY9BqcGojIKzUSkU9qICKv1EhEPqmBiLxSIxH5pAYi8kqNROSTGojIKzUSkU+zxqDX4NRARF6pkYh8UgMReaVGIvJJDUTklRqJyCc1EJFXaiQin9RARF6pkYh8mjUGvQanBiLySo1E5JMaiMgrNRKRT2ogIq/USEQ+qYGIvFIjEfmkBiLySo1E5NOsMeg1ODUQkVdqJCKf1EBEXqmRiHxSAxF5pUYi8kkNROSVGonIJzUQkVdqJCKfZo1Br8GpgYi8UiMR+aQGIvJKjUTkkxqIyCs1EpFPaiAir9RIRD6pgYi8UiMR+TRrDHoNTg1E5JUaicgnNRCRV2okIp/UQEReqZGIfFIDEXmlRiLySQ1E5JUaicinWWPQa3BqICKv1EhEPqmBiLxSIxH5pAYi8kqNROSTGojIKzUSkU9qICKv1EhEPs0ag16DUwMReaVGIvJJDUTklRqJyCc1EJFXaiQin9RARF6pkYh8UgMReaVGIvJp1hj0GpwaiMgrNRKRT2ogIq/USEQ+qYGIvFIjEfmkBiLySo1E5JMaiMgrNRKRT7PGoNfg1EBEXqmRiHxSAxF5pUYi8kkNROSVGonIJzUQkVdqJCKf1EBEXqmRiHyaNQa9BqcGIvJKjUTkkxqIyCs1EpFPaiAir9RIRD6pgYi8UiMR+aQGIvJKjUTk06wx6DU4NRCRV2okIp/UQEReqZGIfFIDEXmlRiLySQ1E5JUaicgnNRCRV2okIp9mjUGvwamBiLxSIxH5pAYi8kqNROSTGojIKzUSkU9qICKv1EhEPqmBiLxSIxH5NGsMeg1ODUTklRqJyCc1EJFXaiQin9RARF6pkYh8UgMReaVGIvJJDUTklRqJyKdZY9BrcGogIq/USEQ+qYGIvFIjEfmkBiLySo1E5JMaiMgrNRKRT2ogIq/USEQ+zRqDXoNTAxF5pUYi8kkNROSVGonIJzUQkVdqJCKf1EBEXqmRiHxSAxF5pUYi8mnWGPQanBqIyCs1EpFPaiAir9RIRD6pgYi8UiMR+aQGIvJKjUTkkxqIyCs1EpFPs8ag1+DUQEReqZGIfFIDEXmlRiLySQ1E5JUaicgnNRCRV2okIp/UQEReqZGIfJo1Br0GpwYi8kqNROSTGojIKzUSkU9qICKv1EhEPqmBiLxSIxH5pAYi8kqNROTTrDHoNTg1EJFXaiQin9RARF6pkYh8UgMReaVGIvJJDUTklRqJyCc1EJFXaiQin2aNQa/BqYGIvFIjEfmkBiLySo1E5JMaiMgrNRKRT2ogIq/USEQ+qYGIvFIjEfk0awx6DU4NROSVGonIJzUQkVdqJCKf1EBEXqmRiHxSAxF5pUYi8kkNROSVGonIp1lj0GtwaiAir9RIRD6pgYi8UiMR+aQGIvJKjUTkkxqIyCs1EpFPaiAir9RIRD7NGoNeg1MDEXmlRiLySQ1E5JUaicgnNRCRV2okIp/UQEReqZGIfFIDEXmlRiLyadYY9BqcGojIKzUSkU9qICKv1EhEPqmBiLxSIxH5pAYi8kqNROSTGojIKzUSkU+zxqDX4NRARF6pkYh8UgMReaVGIvJJDUTklRqJyCc1EJFXaiQin9RARF6pkYh8mjUGvQanBiLySo1E5JMaiMgrNRKRT2ogIq/USEQ+qYGIvFIjEfmkBiLySo1E5NOsMeg1ODUQkVdqJCKf1EBEXqmRiHxSAxF5pUYi8kkNROSVGonIJzUQkVdqJCKfZo1Br8GpgYi8UiMR+aQGIvJKjUTkkxqIyCs1EpFPaiAir9RIRD6pgYi8UiMR+TRrDHoNTg1E5JUaicgnNRCRV2okIp/UQEReqZGIfFIDEXmlRiLySQ1E5JUaicinWWPQa3BqICKv1EhEPqmBiLxSIxH5pAYi8kqNROSTGojIKzUSkU9qICKv1EhEPs0ag16DUwMReaVGIvJJDUTklRqJyCc1EJFXaiQin9RARF6pkYh8UgMReaVGIvJp1hj0GpwaiMgrNRKRT2ogIq/USEQ+qYGIvFIjEfmkBiLySo1E5JMaiMgrNRKRT7PGoNfg1EBEXqmRiHxSAxF5pUYi8kkNROSVGonIJzUQkVdqJCKf1EBEXqmRiHyaNQa9BqcGIvJKjUTkkxqIyCs1EpFPaiAir9RIRD6pgYi8UiMR+aQGIvJKjUTk06wx6DU4NRCRV2okIp/UQEReqZGIfFIDEXmlRiLySQ1E5JUaicgnNRCRV2okIp9mjUGvwamBiLxSIxH5pAYi8kqNROSTGojIKzUSkU9qICKv1EhEPqmBiLxSIxH5NGsMeg1ODUTklRqJyCc1EJFXaiQin9RARF6pkYh8UgMReaVGIvJJDUTklRqJyKdZY9BrcGogIq/USEQ+qYGIvFIjEfmkBiLySo1E5JMaiMgrNRKRT2ogIq/USEQ+zRqDXoNTAxF5pUYi8kkNROSVGonIJzUQkVdqJCKf1EBEXqmRiHxSAxF5pUYi8mnWGPQanBqIyCs1EpFPaiAir9RIRD6pgYi8UiMR+aQGIvJKjUTkkxqIyCs1EpFPs8ag1+DUQEReqZGIfFIDEXmlRiLySQ1E5JUaicgnNRCRV2okIp/UQEReqZGIfJo1Br0GpwYi8kqNROSTGojIKzUSkU9qICKv1EhEPqmBiLxSIxH5pAYi8kqNROTTrDHoNTg1EJFXaiQin9RARF6pkYh8UgMReaVGIvJJDUTklRqJyCc1EJFXaiQin2aNQa/BqYGIvFIjEfmkBiLySo1E5JMaiMgrNRKRT2ogIq/USEQ+qYGIvFIjEfk0awx6DU4NROSVGonIJzUQkVdqJCKf1EBEXqmRiHxSAxF5pUYi8kkNROSVGonIp1lj0GtwaiAir9RIRD6pgYi8UiMR+aQGIvJKjUTkkxqIyCs1EpFPaiAir9RIRD7NGoNeg1MDEXmlRiLySQ1E5JUaicgnNRCRV2okIp/UQEReqZGIfFIDEXmlRiLyadYY9BqcGojIKzUSkU9qICKv1EhEPqmBiLxSIxH5pAYi8kqNROSTGojIKzUSkU+zxqDX4NRARF6pkYh8UgMReaVGIvJJDUTklRqJyCc1EJFXaiQin9RARF6pkYh8mjUGvQanBiLySo1E5JMaiMgrNRKRT2ogIq/USEQ+qYGIvFIjEfmkBiLySo1E5NOsMeg1ODUQkVdqJCKf1EBEXqmRiHxSAxF5pUYi8kkNROSVGonIJzUQkVdqJCKfZo1Br8GpgYi8UiMR+aQGIvJKjUTkkxqIyCs1EpFPaiAir9RIRD6pgYi8UiMR+TRrDHoNTg1E5JUaicgnNRCRV2okIp/UQEReqZGIfFIDEXmlRiLySQ1E5JUaicinWWPQa3BqICKv1EhEPqmBiLxSIxH5pAYi8kqNROSTGojIKzUSkU9qICKv1EhEPs0ag16DUwMReaVGIvJJDUTklRqJyCc1EJFXaiQin9RARF6pkYh8UgMReaVGIvJp1hj0GpwaiMgrNRKRT2ogIq/USEQ+qYGIvFIjEfmkBiLySo1E5JMaiMgrNRKRT7PGoNfg1EBEXqmRiHxSAxF5pUYi8kkNROSVGonIJzUQkVdqJCKf1EBEXqmRiHyaNQa9BqcGIvJKjUTkkxqIyCs1EpFPaiAir9RIRD6pgYi8UiMR+aQGIvJKjUTk06wx6DU4NRCRV2okIp/UQEReqZGIfFIDEXmlRiLySQ1E5JUaicgnNRCRV2okIp9mjUGvwamBiLxSIxH5pAYi8kqNROSTGojIKzUSkU9qICKv1EhEPqmBiLxSIxH5NGsMeg1ODUTklRqJyCc1EJFXaiQin9RARF6pkYh8UgMReaVGIvJJDUTklRqJyKdZY9BrcGogIq/USEQ+qYGIvFIjEfmkBiLySo1E5JMaiMgrNRKRT2ogIq/USEQ+zRqDXoNTAxF5pUYi8kkNROSVGonIJzUQkVdqJCKf1EBEXqmRiHxSAxF5pUYi8mnWGPQanBqIyCs1EpFPaiAir9RIRD6pgYi8UiMR+aQGIvJKjUTkkxqIyCs1EpFPs8ag1+DUQEReqZGIfFIDEXmlRiLySQ1E5JUaicgnNRCRV2okIp/UQEReqZGIfJo1Br0GpwYi8kqNROSTGojIKzUSkU9qICKv1EhEPqmBiLxSIxH5pAYi8kqNROTTrDHoNTg1EJFXaiQin9RARF6pkYh8UgMReaVGIvJJDUTklRqJyCc1EJFXaiQin2aNQa/BqYGIvFIjEfmkBiLySo1E5JMaiMgrNRKRT2ogIq/USEQ+qYGIvFIjEfk0awx6DU4NROSVGonIJzUQkVdqJCKf1EBEXqmRiHxSAxF5pUYi8kkNROSVGonIp1lj0GtwaiAir9RIRD6pgYi8UiMR+aQGIvJKjUTkkxqIyCs1EpFPaiAir9RIRD7NGoNeg1MDEXmlRiLySQ1E5JUaicgnNRCRV2okIp/UQEReqZGIfFIDEXmlRiLyadYY9BqcGojIKzUSkU9qICKv1EhEPqmBiLxSIxH5pAYi8kqNROSTGojIKzUSkU+zxqDX4NRARF6pkYh8UgMReaVGIvJJDUTklRqJyCc1EJFXaiQin9RARF6pkYh8mjUGvQanBiLySo1E5JMaiMgrNRKRT2ogIq/USEQ+qYGIvFIjEfmkBiLySo1E5NOsMeg1ODUQkVdqJCKf1EBEXqmRiHxSAxF5pUYi8kkNROSVGonIJzUQkVdqJCKfZo1Br8GpgYi8UiMR+aQGIvJKjUTkkxqIyCs1EpFPaiAir9RIRD6pgYi8UiMR+TRrDHoNTg1E5JUaicgnNRCRV2okIp/UQEReqZGIfFIDEXmlRiLySQ1E5JUaicinWWPQa3BqICKv1EhEPqmBiLxSIxH5pAYi8kqNROSTGojIKzUSkU9qICKv1EhEPs0ag16DUwMReaVGIvJJDUTklRqJyCc1EJFXaiQin9RARF6pkYh8UgMReaVGIvJp1hj0GpwaiMgrNRKRT2ogIq/USEQ+qYGIvFIjEfmkBiLySo1E5JMaiMgrNRKRT7PGoNfg1EBEXqmRiHxSAxF5pUYi8kkNROSVGonIJzUQkVdqJCKf1EBEXqmRiHyaNQa9BqcGIvJKjUTkkxqIyCs1EpFPaiAir9RIRD6pgYi8UiMR+aQGIvJKjUTk06wx6DU4NRCRV2okIp/UQEReqZGIfFIDEXmlRiLySQ1E5JUaicgnNRCRV2okIp9mjUGvwamBiLxSIxH5pAYi8kqNROSTGojIKzUSkU9qICKv1EhEPqmBiLxSIxH5NGsMeg1ODUTklRqJyCc1EJFXaiQin9RARF6pkYh8UgMReaVGIvJJDUTklRqJyKdZY9BrcGogIq/USEQ+qYGIvFIjEfmkBiLySo1E5JMaiMgrNRKRT2ogIq/USEQ+zRqDXoNTAxF5pUYi8kkNROSVGonIJzUQkVdqJCKf1EBEXqmRiHxSAxF5pUYi8mnWGPQanBqIyCs1EpFPaiAir9RIRD6pgYi8UiMR+aQGIvJKjUTkkxqIyCs1EpFPs8ag1+DUQEReqZGIfFIDEXmlRiLySQ1E5JUaicgnNRCRV2okIp/UQEReqZGIfJo1Br0GpwYi8kqNROSTGojIKzUSkU9qICKv1EhEPqmBiLxSIxH5pAYi8kqNROTTrM3+FAAAAAAAAADUhkEPAAAAAAAAMMKgBwAAAAAAABhh0AMAAAAAAACMMOgBAAAAAAAARhj0AAAAAAAAACMMegAAAAAAAIARBj0AAAAAAADACIMeAAAAAAAAYGQGg95Z2Lu1Fg7Pk//33UnYvr4TTvr/ASY6f7UZlh70L7XzJ2th7dt4YcIHx6A7jkF3HIPuOAbdcQy64xh0xzHojmPQHcfgn4oZDHrJFWZhIzzrJP/v64OwtrA9+crz5iwcP9kJG5/eCIv3J/zuF9thYWEht7UnOTc4r4/D7m+Ww1Lv9y6F5d/shuPX6X+rxXk4+PXV7+lyBc6TEScPl9I/txYOav1etXijffPRae//P7k/4fyM3nVD++fDsH9vPSxfr/Y9nn+7Fhbj3/HXB8k5mOPtWTi8H0+nf14u3VoP20/PQjf9z7WY9jqWfI8H91bCjWvx98br2HY4epX+t7mY8TE40DkVl8Vp6LxL//sl9R8Xpbw7DydPtsP67eTv1zutxXDjzn5yVzdB9yTs3Op/f9sv0l+bg7kdg1NeVzsvj8Le56vD68DC9eWw/UO84hVwfhjWB5e9us71rrvpf7/Sev8ByiXv+Tp2SYVjsKbbjUn3F/H6dPV86bf0sNy5U/a+Kft2/jwcfjb4PuZ1GeUrfQwmzn/cDeu3+ufJ4kcrYePxydXbw59208cfxb7mRLO8jYq3Ky8Owl5yu9L6aLF/+STH+PrDo9B+m/6eD9acjsF3nXD6ZCuspOdPvNy3nmTdD6aS+9ujx9th487gsWhyf/TpVtj/qYbrw7iqp1Xq/n02ZnYMZinzOGGe50+F06rzdr6693A/WOb2sMrj3oHkunL88OIyiS1+1AqtOzvhWD0EqnJaVW5bajavY/D8+V7/vInn5bUbYeXzvULPzac53ju/HIStwWn2Sq5vH7fC+rft9HdcNtVty3szv2Ow0vnT1NN6D+of9JInacMrzMv90MobaJL/vv6rjbD1+DCcvkoeOCY3HPKJ3ag/7oXl3z4L6vYyOn10M/sGp51cma8th82RG8Tu6+TBzqPNsPuirkmoE559sRx2f0n/57jOs7BR6QlLPCjnM+idPFhMz8NuOLqXd6fYCUf/YjWsf7ETDp6fhfPucbXv8U1ynlzfCkffb+cPem+T8+D2Wtj/+Tx0BwdT9zycfrMWWsn1prZRb5rrWPwe72yGw9EbifOjsP3JZnj2Jv3fszbrYzBqH4b15IndZnLD1k7P+G77JOx9ltxIystiVsfFZN2f98Jq8kBr4+ujcPa63LXk9NFyWPnmqDcUzXPQm8sxOM119V07PPtdK3mysx0OXrRDZ4qDLz5gzB70ylwn3t917Ioyx2BU++1G9v1F0QflxWWf1iVFbudLX+azU/wY7Gs/WQ+rj0Yf6HXD2eP1sJI+GRpX1+Uwu9uo5Lbld0uh9bv9cPKqc3Gf+7Ydjh+shMVbyeX0IY96czkGu8nluBwWP02exA/vCDuh/WI/bH15GNrqQf/LvdC6vhp2v09urwfn37tuOP/5IGzeitc5/WSykqqnVfr+fTZmfQyOKvU4YZ7nT8XTqv92voL3cD9Y6Paw6uPeoeSxxm8Xw/KXR8PLJFPl06pw2zIDsz8Gk7/ng1ZYSv6eRy/TZ13vOuHs6XZy25U8rsi5OZzmeA+/7Ibla/H5ZNYzvcumOq33aU7HYKXzp6mn9Z7UP+jFB+Qfp/+iFV/pdPcw/8ozIvOJXWFnYf/jVth/mf7PS+KTvaWw8Z06eLvh+OFeOB1eYLPT/WErLNw7Sk6xrOTKOK9BL3kgsPVD/A7jK14Ww85P/V+frMr3GO8k0sslXl9ybmzOvl4O60/V5dcJh58th70/pv9zpvKuY/EOeCW5wxOXbnJDulrpcq9g5sdgfDCzpJ8MvGv3rjNbz8v9TasfF/m6yd9/+dZWOCp6BoxKLrOVW7vJ7UL/lV/1PlnON/tjcIrraryM7yaX/zf1vDK2vkEv36yuY1KpY3AWtxvZ14P3M+gVvJ3/kAa9Msdg/L7l3yn+vVfl/UUtl8N7u41KHjN9dTOsPK5xfKrbPI7B+I9/vfM//d+jXh2EHfl4M0fvH523wnH5A768zNOq//69qlkfgwPlHifM8/ypflr1385XMO/7wYq3h6Wfe6YjyXGF54yFT6vu25aKZn4MxmEt4x+Huj9uh5uf7Ad5LzPF8R7FoXL1DwXvv6Y8rfdqHsdgpfOnqaf1/tQ/6I08WO98t1HqRnLqQS+5YFo3kxvA9H9eFp90JHfY8lLrn/bsH6TEK8FCxqg4SZWxrIrRO8LTsHuzzGmW/x67P+2E1uAGZuS6c1X8vlYz/7Wm/YfV+Tx4ybuOxVcADW44r0gefP1qJeyP/uvArMz6GEwezKxfS+6AMx7MlD+OpzkucnST6+Otjdx/fcl2Hg7vtpIHL/E2odyDw+nN4Ric4roaL9/lGv91KvP6Eu9Maxt3ZnQdy1LmGJzJ7Ub29aD+J3qTr3OFb+drvcynUe4YjK/a7j/pEZInJYtfHl95wDj95fA+b6MSyd+r3O38nM3hGIy3Xa1v9J/qHRdZT0YzxdMqc3s/jYzTqv3+varZH4M9ZR8nzPP8meK0PohBb673g9VvD0tfZlPcTxU9rfj76r1tqWIO94MP42CddT3NfmxR+XhPlTk+pj2t92oOx2Cl86epp/Ue1T/oJX/Jha+Oe/9vvEEa/Ox9EaVvVMe0H6/knF68Ycgf9BbTN/68Ir5XwtcbYTX9Gere+2rc7r+HxVmZv2P3OGxdS3+WPcOl9xGIP+N9Z/BeJ9k3bPWKV+7BcBZPM//7vazk9/guuYO4lRxIg5U774le718qB/9SNG7yk/XOL4dh+zet9Gfnk64vh9XeezQch50Jl8mo3OtY/P5zrr/xDmQug8J7PAajOK5mHktKgeOiyjHYebpe+RUk8Y5vafivNvN+sjyHY7DqdbV3zFZ4BcnYewDF95oZvA9X5nWuznGnyHWsTmWOwSluN6rcX1R9olf5vqnM7fzIZd6/zR5936+NsPe8/PddTZljMN4+5Pz9499J/CPQ8HJIb9sG75PUe4+6+4fhdMJ1textVPeP4v2C7lQ/T08fZr9Cr+7TqmQOx2D8urlPupPj4up7feZ4EwecjNvXeD0R79lV5Loi5Z1WjtL375XN/hiMpnmcoOSdP3UfF3mnVfV2vlZzuh+MpnnMlvkY5JLR93nN6Ppu774rT7HT6v++Wm9bKpnPMZjpXf8tZPT7JVc4rZH3r81q/en4iU3396rruWdlMz8GK54/TT2t96imQW++N3RaO+x/cjP7/ZNC/LHMRX2H0PsRsuTBtHqS0X4WNm+3eu+7N3wPkkTvvfe+Th5cxb9bwe+5+3wrLGa+N1s3nDxYCasPjsLZyL8Udl8dh73kxmDl0W7YzHvSNK1KN3Tj+ncyRb/Hs29WLr/SJx50mYNeovfS7K1wNPb1+z8ukRxY8l8xu+H00Uq4cWc3HI++D1DvvSgOwvan8UlU0e85/zoW3/A977ow21cRfgjHYOJtcgd8M+d9zIT84yJR6RiMA3De7UGOt0dh63pyRzs8DuMN+xwGvTkeg5Wvq8kxeDPvslLiewB9shn2X7Qvv/fl0+2wcnsz7H61qr+XeIe5sBUO43F66YOMtsPhH8s9C514HatFtWOw2mVR/f4iPnhZ/fooOXYuRqTeG/1+fRzOM25Dp7lvKnU737vMt8PBt+vhRu89ddL3S43v+/XyKOzeSS7/5LwquUEUV+kYPEkemOccc70nJVeH6Xg5rP3+IOzE27b4/liD27a37XDyeDP//YNK3kZ1X+yElfQYHL7fZXKedl6dhP3ftcq9B208dh+vh6WsH5Oq87RKm+cxmPg5uT3MeOzRSZ5Ixfumovcb3VdHYft29o9XxrcVWX049v5ub8/D2fe7YfWjnOuKkHtaeSrcv5c2x2NwqscJSs75U/txMeGyKH87X5c5H4PRlI/ZSj/uTe+nSvyJocKnVeNtS2lzPQaztf+wlvG4bfrT6t3/Fno+VvW06nzuWdY8j8Fq509TT+t9qv0VeqM3VsUPmL6pxoTBWpp3RxXfM+R6K8RPRe29wWF84834YOj6Ulh/sB1Wx59kvDsL+58sJzea2Xez+a8KvOzk/mJyI6ifUsZ/XWo9zPo68ee/l5ODcFYH/6iRQaD0nVaJQe/1YVi7vRNORs/aSYNeovvH/bB+azm0Pk6e4N9aDRufrYTWZ/vhTDyxiOL7Zi3dPch+A9kyr9yZcB2bdP2N/73M8VDVezsG3ybHS3xvtZJPEvKOi+rH4MiPB8QnL4U/2TqOF62xj+af06A3NPtjsOp1Nd5O9f5cctt58vjyEwX56Wvx1Vm3N7L/Jbn3Pk7J5aK+l/g+NdfG3qQ8HXZ2Pk1ux3OuE+Nyr2MzUOYYrHJZTHN/Ed87Zmn8w0wGI5K4rZzqvqns7Xzv+p5cn7Jus3v/+Jb1Xrh1KnMMTjrm4n+/+ufj9WJhIfu2LfsfqkreRsVPfby9FY4y7iP7l2FynE04Ty8+0Xgh3Ejuc+Wrwmo6rTrM+hjs61//lz7bCyfpG9fHDyyIA81Scr3f/mLC/Ub8kcr0PF1YSG7TftDfY3xCspr5ap1EvB29PeHxb8HTylTx/r262R+D1R8nCHnnT93HRYHLouzt/CzM7Ric8jHbpNO+ovTjsgvFT2vK25ZazOMY1M6T525Z761Xx2kVf25U7bRqfe45hdkfg9XOn6ae1vs0k0FvcMYUP2D6Jp3peeKfLfRR4K+Pw+74qz1+SY6oeGM1/iQjeUC9+NlhPa/qeJdc+Jlrb3xQsR4OR179cEXvxjTvylWXkStp6TutSQfAQP+Nfq/8+OykQS/+K/XDqzeQ3Re7YUt+zHi8U78Zdn9O/+eUJl3HJl1/R4+NWRo9nbkdg2+T6/CnFR7s5x4XicrHYHpd/DG5Do9/snXvX8TXwp76l+34KtBP9sPZpevY+xj0ZnsMVr2u9v/cUe+B5uVPX4uvFNkJa7+7/K+pcQy6mTkG9cWxrfR1Lv642K29jPfEGDPpOjYDZY7B8pfF7O4vTh8mx8pfjV6C05xWhdv53tfS72cyFN/HNPP9UOpS5hicdMyNfK0R8XqR/x4s/beSuHL+lbyNik8sJj42in/HCf+YNtC//VwJy3f3wunYk626T2sasz0GR7zrhNMnW/JVUPF0C91v9G4/d8PqrZWw9d34fehZ2P948rF8cn+phtPKUPX+fSqzPwaHf67s44RxE86fWo+LGi6Lq7fzszGXY7CGx2yTTvuKidfHbKVOq47blqnM4xi8qv3dZs6YF01/WpOujxeqnFa9zz2nMftjsNpl0dTTep8aMujFg2dxuhu3n3bC4tidafx+st/DoKQ4TOQ+iZl0xZh05arLyJW09J1Wse+x9y8X6mXUEwa9+Cm32e+hpz7lNn4/2e+bWM7k69ikl/WefdMqdTxUNfdjsHMcdm7fCOtyVJ0g77hIVD8G42W/GBav3QzbP4orQHzl2N2xNxVOXw149UdYyj04nN7sj8Gq19Xe9eNacr4ml5n6l8fO041LHy5U5PpX6TpX8Eluz4Tr2CyUOQZLXxYzvL+It82XvpcpTqvS7Xzh05v1v2yXOQYn/GhG9yhsiT9f9Ni49OrjCrdRveOr9w+Yk5p0vl+mfhxqVqdVxUyPwULOw+Hdkvcb8sco43VRnYdXK/U9Fv3x2Wnu36cy+2OwfxolHyeMK3D+1HZc1HRZXLmdn5GZH4M1PWbrXT5lzo9C91Na6dOSKty2VDKPY/Cy9pP1cCO+qj9zzIumP60i9799VU4rnm91PfeczuzvB6tdFk09rfepnkGvfRBW5Z3TSJ/lfVRyX+Ubut6b+yZnrHiCWVS8QMd/bC9+P3UNevENpDMPpMJPYnKuXFPphuP7Fz9Oo1sKu3kfV95T7HvsXc7yNAap08p/Aq8vqxpvVItcx+IT1ZyPBD/+Kv9Nfafyvo7B+P52t+LQOukra7nHRaL6MRivL8nf+YuMjyPvvfJo/LoRry9j59l4Bc7DauZ7DFa9rvaeCCy0xHje1/vxzJHLq+hoUf52P75Zc7Hbw0nXsdpUPQbLXhazvL+Ib6A8ellMcVqVbucLn94sHixXPQb7/9izk3VsxuuFePPkosfG5du/8rdR8WsUfVuQUnrvIXN5WJ3ZaRU1r2OwiN4D/vLDc3w/n8vnYbzMZzNgXz2tMVPev5c332Ow2uOEEQXPn1qOizovi/Hb+TrN9Rgsf3uo9O6rypwfhe6ntNKnpVS8bSlm3sfgQP8955buZr+F0oVpT6vY/W9fldOa1WOUguZ6DFa8LJp6Wu9R7a/QiwdJ/4yJZ0a5f0GoekMXn0RO9fHB8WPrb179MZ/eG6knV/rpbzPjg4K8HyOK//0D+ZHbeDqDK2k8CEq9siXeiE3xPeaeXnzgtZn5HiTxk8quDj/ph1jU8LLnQtex+NHYmZ9QN+k6UJ95HYPx/QzXrq8k52/VI2/yeTLNMdj7u2T+2Xh9KnqHW/58nMo8jsGq19XebWX2MRUHv9HjcGY/clv4Ae38jrtRpY7B0pdF/LXZ3F9c/YetGZxW3nW697UmXF7xR24/mfCqmWmVPAZPH2V/4mu8b1L3HfE6MvlHbhcvveI1W871LH6Qzcd7Yz+SVoPeoDf2CYSzOq0KZnsMThbvf6o8Lo0j2+VPLu1/wv/m92W/0mRXT+vC9PfvU5rDMRhVfZxQ6vyZ8rio+7JQL2CYhfd3DJZ7zFb6uWfvfur9DXpVb1tKm9MxGD/B++jL5bD8xbPC7+1Y+bRS8bpZ9B96y59Wfc89pzWPY7DSZdHU03qPah70Rl8GHM+kck8oqt3Q9R/s6B/FLKB3QxJfbikutHhB38p/Q/7w6iCsX58wDPTuzPPf86f3ypbk766/TDccf3UzzOVDMUZ+9Dh+T+Uuj1kOesk16mF8QJP+jzFZ/y3+HXLfmPRdJxw/aGUetH3Fr2Onj1ry92X++Fnt5nMMnv+wHVofrYeDkk9yLilwXEx1DA5uqF+m/3tUfMVl4aGw3IPDqc3pGKx6Xe3dkd3Tr2i4chzGy+B28v1kHV7t+MB44erfMX7K2q3tcJzxTfR+3C/je7ikyHWsduWPwbKXRbX7i+T7+mwxrP0h48Lo/Qje1eOl9vumiYNe3odiJLfXXy2nD1BnqOwx+CZ5wPir8fdxSmT+SFj/gXbeh2KEV8mT+MxPbx+XdxvVfy/Dut//rB2fVF65HGdzWuXN/hjM0xtgbidP+Ce+0mTM2+T2+9bNq9eJ5HYs/z2lKsg6rUQt9+/TmsMx2FPhcUL586f6cVH+tKrdztfvfR6DzR30Kt+2VDGPYzB+wMtnN0LrwfHVD1XLU/V4T5UZ9KqcVjy/pn/uOa05HYMVL4umntb7UvOgl/wlhz8WGZ9YlnvJaaUburi8Fjyd85fpp9umOi+Pwu7dlbD5NOeAaid36B+thJ3n7YuPne591PxpOHy4Gpaur4a9n/LvZuLKO/nHBuMnNa2E1QdH4Wzk1RDdV8dh986NsPJoN2zOYdCLV+7BZRAvj8nf96jZDnq9B6B3NsPBz+cXl8Xb83D6ZDOsJt+zvgr0PwGr9cVBOD0f+R3Jnzt7vh82by+F1u8O8/9VqMR1bDBg7McPWkl1Xx6GzTtzugOewzHY+X4z3EgeUBxlXFDxVXVLGf/qP6rYcZGY4hjsf1Jkch4MPrwh+XPtF/FyT86jwvej8x305nYMVr2upp80uvbNyBuIn5+FowcreviJl98nm2H/xcjl1+0ft63bm2H3q1VxneuGs8frvct29/uzMDx03/RPZ7Hgk9vC17FaVTgGS18WFe8vzo/Cdu82bz+cvBo7Jm4lTwLlE86a75smDnrb4eDb9XDj051w9DK9rU8/3TieXiu5bZl0dk6ryjHYGz6/POq9YXlP8oD95NFqWM94Et97QvH7g7BzuxU2H5+E9uByHnwSZfIk/rCu26j0jfQvXe6p7pv+6S3fHvuQmZf7YeXWWth+knxvby7+zOBYX7y1GZ6p76/KadVuHsdgonMWzgb3LVG3//dbubsXTuRdUqf3fr8rn+/1rtvDTx8dOQZXHp3K63fvjeLHbw+jbif95O+lsPn96IlWO6267t+nNY9jcKDM44TK50+F46LyaVW6na/bnI5BqQGDXunblvrN/hg8C3vxPSEfn2Xcp8dXuo29CnxE1eM9KjXoJcqfVg3PPac2v2Ow0mXR1NN6T2oe9OIVJv0xqCI3ePFVGKM/0y1afzrhgPtpJywVetnjeXh2byU9vcXkTnI9bD1OnqAUuWHsnIbD++vJA+z+Jw0N/nx8oDu8kDPFhVy/nFM5f74XNj69ERZ7p7MUlu9shf2f4nkQz9v0fPls8ntCVBVvtAcvxZ98gxf/JTD9nrK6vjvxTu/k4fj7NeS8V9jbs95lsXy9/3uXbiWXw9OsO4MLvfP1zuDTjZOuL4fV3gPdAleAwtex1Plx2Pt8cF2Ln6S8G45ndYFdMftjsPeARPy+S018wFLuuJjmGOz+8TBsj32y9VGR0z0/DOujf6fYDI+9gbkeg1Wvq+/Ow/HXG5c/fe3xSfa/sKaX3+C4XfyoFdYfHvVGjIvrk3pPtfj9rco/N1nJ61htSh6DAxUui0r3F8kDktOn22E9eSB99c9lm/a+Kf92fvR63D+/Or+MHrfJ8f7pRth7nv891qXcMTjQDWfJ+bo2ckxsPRH3TSO3ub2vO3Ysxfum9fuH4bTIY5Myt1FXLvf+8bT6+U44eH75HzuH4pPIJzuX7jv7n7Q44Risclq1ms8x2P1lb3h59x9TJH+/F5OvK/Efk/fvjd6fxdPaDgcTjsHx28Pen/s4PpZNri+jT/5HlD2teu7fpzfTY1Ao+jhhqvOn5HFR72klf6cCt/P1md/94FDR28NKzz1Pwu7wuMuottOqfttSp9kfgyOPHTIbDFJKueP9/On62NceL+e5Z8nTGpjquefU5nkMVrztbeppvQf1DnrJjenatZ3+FebVfljJeRNCfJhOHiyGtW/jpRZ/lGop+w0h8WHiGLTHMWiOY9Aex6A5jkF7HIPmOAbtcQya4xj8k1L7h2IAAAAAAAAAmB0GPQAAAAAAAMAIgx4AAAAAAABghEEPAAAAAAAAMMKgBwAAAAAAABhh0AMAAAAAAACMMOgBAAAAAAAARrwHvTdvQtjeDuGf//PZd+9eCC9fpicMAAAAAAAAvB/eg14c2v4s+SvMq08+SU8YAAAAAAAAeD/+LP2/nv76r0P4x/84hKWl+fSXf5meMAAAAAAAAPB+eA96AJDn3/27EP7NvwnhX/2rqz9Gr4o/Wv83f5P+YQAAAAAAPkwMegD8xffTjMNdHOX+/M/7r6j9W3/r4sfly8SP1gMAAAAAPnDJs1cAMBI/nCb++Hsc7+KP3P8X/8XVUU719/7e1R+jV/3bf5ueEAAAAAAAH6bkWS4AfIAGr7r7i78I4Z/9s/7YNulVd/G/x9/3T/9p/8dn45+P77UJAAAAAECDJM+AAeA9GLy/XWx7u/yPy/7dv9t/hV78c4eH/VfuAQAAAADwJyB5VgwANYs/tjp4dV0c3GKDH2kt+iOyo/3Df9h/b7vBq+7iq/cAAAAAAPgTlTxTBgAhjmaDV86NFl8VNxjnphnpxoujXfxa8TTi6cbhjlfdAQAAAABwRfIsGgCE+Go4NbyVbfBhFP/kn1yMgvFDLeJgx/vbAQAAAABQWvJsGwCEOLapV+MNij8COxjoYv/qX/VHuhifFAsAAAAAwMww6AEAAAAAAABGGPQAAAAAAAAAIwx6AAAAAAAAgBEGPQAAAAAAAMAIgx4AAAAAAABghEEPAAAAAAAAMMKgBwAAAAAAABhh0AMAAAAAAACMMOgBAAAAAAAARhj0AAAAAAAAACMMegAAAAAAAIARBj0AAAAAAADACIMeAAAAAAAAYIRBDwAAAAAAADDCoAcAAAAAAAAYYdADAAAAAAAAjDDoAQAAAAAAAEYY9AAAAAAAAAAjDHoAAAAAAACAEQY9AAAAAAAAwAiDHgAAAAAAAGCEQQ8AAAAAAAAwwqAHAAAAAAAAGGHQAwAAAAAAAIww6AEAAAAAAABGGPQAAAAAAAAAIwx6AAAAAAAAgBEGPQAAAAAAAMAIgx4AAAAAAABghEEPAAAAAAAAMMKgBwAAAAAAABhh0AMAAAAAAACMMOgBAAAAAAAARhj0AAAAAAAAACMMegAAAAAAAIARBj0AAAAAAADACIMeAAAAAAAAYIRBDwAAAAAAADDCoAcAAAAAAAAYYdADAAAAAAAAjDDoAQAAAAAAAEYY9AAAAAAAAAAjDHoAAAAAAACAEQY9AAAAAAAAwAiDHgAAAAAAAGCEQQ8AAAAAAAAwwqAHAAAAAAAAGGHQAwAAAAAAAIww6AEAAAAAAABGGPQAAAAAAAAAIwx6AAAAAAAAgBEGPQAAAAAAAMAIgx4AAAAAAABghEEPAAAAAAAAMMKgBwAAAAAAABhh0PvQvD0Lh/fXw/L1hbCwkHR9Izw7T/8bmuH1QViLl23S9ov01wAAAAAAAAqa/aDXPgzr1xfC4kcb4fB1+mvQ3p6E7VvpkDdsLRxwvjULgx4AAAAAAJhCzqB3Hg5+PT4uFez+Sfo1Qjh5uDT89bUnvNQsWzccf7nYP69ubYWjdjf99Sl0noWN+PXuHSVf/cLJg3g6q+Ggnf5CQeffb4XlCQPjyf30OlCmkevLJW9Ow+GDjbB6a3AdWgw3bq+H7aenofMu/T01qfX7noRBDwAAAAAATGHmg97wFXq3N8MzXmmWbTC+LSyGrec1jHnRTzthMfmaq38YXe7a4eBXyelc2wmF56jOaTj4Xav3tSa9YrDKMLby+Oqy2P5uMyyL3zto8Xby/b9Nf3MN6vq+C2HQAwAAAAAAU8j9kdtupxM6b8Y7DftxEIqDxJdH4r8n1Ti0FPLmLBw+3grrt41/rDcd3+JgdljTCxnbf1hNvt5i2Pkp/YWoexS24un89lnopL+U6d15OHm8GVrX0ss7/f5yfwT4rbg+iNrfbvS/3s3tcDK2X3a+20jPi8XQ+t1+OHmV/obueTj7fiespN/P4t2D0K7rlXo1fN+FMegBAAAAAIApVHgPvZFX7lX9kcO6vdjufz/O7zc3/DtsF3/lXK5uOLoXv95GeDa63P2yG24mp9P65iz9BaF7Gg7vrYUbwyFvMbRuL6f/fw3n8bvTsNt7r8DFsPHd2KzYPQ5b6ekuJ9cvuZm1D8Ja7/eIPz9Led93GQx6AAAAAABgCgx6H4raB72TsBNHr18dhNEfDD3/dq13Ots/pr+gjAxOix+thd3n57Wex8NX4N3aDadjr7CL/613Ote2wnHOK+DOvlnp/75fHyTXyPnI+75LYdADAAAAAABTYND7UNQ96LUPwmry9RYfXP5qx1/1z6fcH+t9fRg2Pt0Ie9+fXXz4RF3ncfckbN+MX0e/yq3//SWNfZDHFS/3Q6v3/Yy9AnFWJnzfpTDoAQAAAACAKcx+0BuOF2oIOgnbY8NG55fDsP2b1vDHPRc/aoX1+4fh7Mr78hX40A716q3OWTjqvd/ejfR92pKuL4fWb7bDwc9TDDXddjh5sh3WP14OS8PvYSks39kIO09Owrl8RdfF3z+zgqPp8JVtVSryfno1DXrnT/qvENSvcitx3Xp3fOW6o3TbJ+Hg0iflJlW4vPO/7zHvOuHs+72wcefiujC4Hp/Gk2TQAwAAAAAAU/iABr1uOPtm7WJkG+/W9tinmpYf9LovdsY+4GGsiq84PP9hO//rxq6vh/0/jr/mrL5Br/39bth5sDNs45P452+GtS8vfm3ny7Xe++ctfLJx6ffu/VDgh1brGPTie9D1XuW2ENafqjGtE579tv/fJ75Cb2TQW/tWfP/vzsPRV4NP5s2o6OU98fsecX4Utm8vXj2tQcn14PBHBj0AAAAAAFDdBzPobX61HW4uLIfNxyehPRju3rbD8YOV4Siz+OWxHnmKjE1vnoWNdHRb/uIgnJ5ffKXum3Y4fbob1h6VH/Tie9INvr+lO7vh6OV56A5ewdX7VNbdsHq9/98XriXf3+gb2o2q9Uduz8Ph3fi1tsLR6BmWfpKuHMAmqWHQ6zxd73+Nm9mvcjv7ptX/PRPeQy/83P9wj/h7156M/X3etcPhZ4NX5C2Gla8OLj4pN9HtxMtlL2z8vtg5XeT77nmbXJ97H5oRv/+VsPP9WTgfXJe7ndB+nl4Xri0OrzMMegAAAAAAoKwPZtCLrybb/lEtON1w/NXN9PdkvF9agbFp8GEQE0eZMkZHwvvHF+83N25k6FnM+vHWOge9wavX7h5eeoVi+w+ryde/GXZ/SX+hjGkHvXdnYb/3qsGFsPI4a9VMvNoPK73TyfmU29HhLGl80LsYWZfDVpFXH+Yp+n0nTh+lnwScN9x2kssmfbVfjEEPAAAAAACU9eEMep8dZr+P2y+DV2Mthp2f0l8bVWTQG7wHWhz00l+bVvtx+kmrN7fDSd6ryRLdH7bSkSnje6xz0Es/MOLmo9G/aTcc3Ytff+xVe0VNOeh1n6d//2sb4dmb9Belbji5nw5jSfFVj4c/t0PnTSep/0rK/qvcVsLKx/3fc2nQG/nx2OVLf/9qCn/f3eOwlY67V14xOGb4ir8kBj0AAAAAAFDWBzPo5f4YaPcobKW/Tw4gRcam4Y9oLoaVRyfZr6YrrB0OftX/ni4PZxlG/g7yU1KnGPS6vxxeek+8nc/7Q2PrtyO/9mArrMWh68Zq2Br9vY+T8yL9OrmmGvQ64fCz/t8988emR71rh2dfXIx6V7rWCjsvzobXw0vn53D8rTY8Xlbi+05/nLnQp+4OjwkGPQAAAAAAUN4H9KEY6S9JE35fobHp8iu/Fq6vhI2vD8Npu8rL1aKL72nrhyJf4+J8k6/gmmLQG77vXIUKjZHRNIPe8DpwM+z+nP5aAecvDi594nH8dNrVz/fCce/0B+f/5Vdt1vpKzBLfd6nTZdADAAAAAABT+BMa9PrOn++GtY8ufwrp0p3tcHjlE2gnKfq9D0w436YY9C5LXzl4befS14k/8hu/fqUPxIimGPQufjS5vh93DueH6fXq8ivihsPa2CccV1Hm+y51ugx6AAAAAABgCn9yg95A5+VR2Pt8JSylXzd+gMLmd/kfenDZxff0vl+hd8ngR3vHPnzj9FH8YJFW2H+Z/kJZlQe9s7Cfvtdd65uz9NemNxgoFz7eT07hwnBY+9VBKHNpXlXu+y51ugx6AAAAAABgCn+yg95Q5yTsfpq+Yu/aVjgu/EK9kkPV4JNnk+QAWNegl76H3OXvafB+f9vhuOp7B1Y9j9MP6Kj86brSxXvbjX/y7HDoq/rhHwMlv+/OdxvFT3f4Pn8MegAAAAAAoDwGvah9EFZ7fz7jU3QznD6Mr3pL/lz8kcwJQ9nFp9xmfGhCTYNe/5ViY3+Pwav27h5O/nHQLBXP41n8uG03+V6We9/Lejgc/+TZN4dhvfffFsL600mfTpGt9Pc9HAAXJ75ic3i9SWLQAwAAAAAAZTVj0Bt+wmjFHykdDnol//zIj04u3z/O/uTct8n3fyv9fQ9O9Kel1jLodcPRvfg1xkZD+aq9kioNeiPXla+O01+b0qvkPE8/JGNF/n264fjLwSsuk+/1VfrLpVT5vtth/5P0z9xKLsO36S+PuRgj+zHoAQAAAACAspox6HWehY30v9+89yz0Prj2XSec/nAyfEXaycP0U21fdUJ3ZHjrvjoJu3fTAeiT/XBW8kdS20/W0jExfrjGbjh6eX7x9bvn4ez73bB6vf/f84aeega907B7M/ka4+8r923//d22f0x/oYoqg97glYFJG98Vf7XcyaO1sP3kOJy9vrisuq/PwtHXG6GVjnmLdw9Cu8CAunCtFTYfn4R252JG7Xba4fTpXtj4fcY5XfH77v60czHW3doM+y/aF9eFt+1w8niz9/2v3NtKB2QGPQAAAAAAUF4zBr3QDScPlvvf02gjnzh6cn/sv413azM8q/QpCt1w9nh95MM1dEt39sJJ3jZUy6A3Q1UGveF7xZV7/7z8y2oxtH73LHvMGzg/Ctu3L3+a8ZWyrr8Vv++o/d3mpVfgjbf85VE4b1+8spNBDwAAAAAAlNWQQS/xrhNOHm+ElY/SEef6clh/dDL8pNfuq+Nw8GAjrN6+MXxF3cK1G6F1ZyPsPDkJ55MGoklen1z9+sn3sPr5Tjh4UeCd6xo46A1eGZj5voEZOj8fhJ3PV0NrcFkmLd1qhfV7++G49/LLgpLrxNn3+2HrN61wI31l38LCUlj+eD1sPT4KZ+Pvv5eq+n0PvT4O+/fWL77/eD37zfbF9WDkR7UZ9AAAAAAAQFkVBj0AAAAAAAAA7wuDHgAAAAAAAGCEQQ8AAAAAAAAwwqAHAAAAAAAAGGHQAwAAAAAAAIww6AEAAAAAAABGGPQAAAAAAAAAIwx6AAAAAAAAgBEGPQAAAAAAAMAIgx4AAAAAAABghEEPAAAAAAAAMMKgBwAAAAAAABhh0AMAAAAAAACMMOgBAAAAAAAARhj0AAAAAAAAACMMegAAAAAAAIARBj0AAAAAAADACIMeAAAAAAAAYIRBDwAAAAAAADDCoAcAAAAAAAAYYdADAAAAAAAAjDDoAQAAAAAAAEYY9AAAAAAAAAAjDHoAAAAAAACAkdxB7+/8y8/JuL//+y/JvP/2Lx+Qcf/Tv/4/ybz/5f96Qsb9b//3X5F5/8df/0jG/ev/95TM+3/+vzYZ9zdvO2QekIdBr8GpgYi8UiMR+aQGIvJKjUTkkxqIyCs1EpFPaiAir9RIRD6pgYi8AvIw6DU4NRCRV2okIp/UQEReqZGIfFIDEXmlRiLySQ1E5JUaicgnNRCRV0AeBr0GpwYi8kqNROSTGojIKzUSkU9qICKv1EhEPqmBiLxSIxH5pAYi8grIw6DX4NRARF6pkYh8UgMReaVGIvJJDUTklRqJyCc1EJFXaiQin9RARF4BeRj0GpwaiMgrNRKRT2ogIq/USEQ+qYGIvFIjEfmkBiLySo1E5JMaiMgrIA+DXoNTAxF5pUYi8kkNROSVGonIJzUQkVdqJCKf1EBEXqmRiHxSAxF5BeRh0GtwaiAir9RIRD6pgYi8UiMR+aQGIvJKjUTkkxqIyCs1EpFPaiAir4A8DHoNTg1E5JUaicgnNRCRV2okIp/UQEReqZGIfFIDEXmlRiLySQ1E5BWQh0GvwamBiLxSIxH5pAYi8kqNROSTGojIKzUSkU9qICKv1EhEPqmBiLwC8jDoNTg1EJFXaiQin9RARF6pkYh8UgMReaVGIvJJDUTklRqJyCc1EJFXQB4GvQanBiLySo1E5JMaiMgrNRKRT2ogIq/USEQ+qYGIvFIjEfmkBiLyCsjDoNfg1EBEXqmRiHxSAxF5pUYi8kkNROSVGonIJzUQkVdqJCKf1EBEXgF5GPQanBqIyCs1EpFPaiAir9RIRD6pgYi8UiMR+aQGIvJKjUTkkxqIyCsgD4Neg1MDEXmlRiLySQ1E5JUaicgnNRCRV2okIp/UQEReqZGIfFIDEXkF5GHQa3BqICKv1EhEPqmBiLxSIxH5pAYi8kqNROSTGojIKzUSkU9qICKvgDwMeg1ODUTklRqJyCc1EJFXaiQin9RARF6pkYh8UgMReaVGIvJJDUTkFZCHQa/BqYGIvFIjEfmkBiLySo1E5JMaiMgrNRKRT2ogIq/USEQ+qYGIvALyMOg1ODUQkVdqJCKf1EBEXqmRiHxSAxF5pUYi8kkNROSVGonIJzUQkVdAHga9BqcGIvJKjUTkkxqIyCs1EpFPaiAir9RIRD6pgYi8UiMR+aQGIvIKyMOg1+DUQEReqZGIfFIDEXmlRiLySQ1E5JUaicgnNRCRV2okIp/UQEReAXkY9BqcGojIKzUSkU9qICKv1EhEPqmBiLxSIxH5pAYi8kqNROSTGojIKyAPg16DUwMReaVGIvJJDUTklRqJyCc1EJFXaiQin9RARF6pkYh8UgMReQXkYdBrcGogIq/USEQ+qYGIvFIjEfmkBiLySo1E5JMaiMgrNRKRT2ogIq+APAx6DU4NROSVGonIJzUQkVdqJCKf1EBEXqmRiHxSAxF5pUYi8kkNROQVkIdBr8GpgYi8UiMR+aQGIvJKjUTkkxqIyCs1EpFPaiAir9RIRD6pgYi8AvIw6DU4NRCRV2okIp/UQEReqZGIfFIDEXmlRiLySQ1E5JUaicgnNRCRV0AeBr0GpwYi8kqNROSTGojIKzUSkU9qICKv1EhEPqmBiLxSIxH5pAYi8grIw6DX4NRARF6pkYh8UgMReaVGIvJJDUTklRqJyCc1EJFXaiQin9RARF4BeRj0GpwaiMgrNRKRT2ogIq/USEQ+qYGIvFIjEfmkBiLySo1E5JMaiMgrIA+DXoNTAxF5pUYi8kkNROSVGonIJzUQkVdqJCKf1EBEXqmRiHxSAxF5BeRh0GtwaiAir9RIRD6pgYi8UiMR+aQGIvJKjUTkkxqIyCs1EpFPaiAir4A8DHoNTg1E5JUaicgnNRCRV2okIp/UQEReqZGIfFIDEXmlRiLySQ1E5BWQh0GvwamBiLxSIxH5pAYi8kqNROSTGojIKzUSkU9qICKv1EhEPqmBiLwC8jDoNTg1EJFXaiQin9RARF6pkYh8UgMReaVGIvJJDUTklRqJyCc1EJFXQB4GvQanBiLySo1E5JMaiMgrNRKRT2ogIq/USEQ+qYGIvFIjEfmkBiLyCsjDoNfg1EBEXqmRiHxSAxF5pUYi8kkNROSVGonIJzUQkVdqJCKf1EBEXgF5GPQanBqIyCs1EpFPaiAir9RIRD6pgYi8UiMR+aQGIvJKjUTkkxqIyCsgD4Neg1MDEXmlRiLySQ1E5JUaicgnNRCRV2okIp/UQEReqZGIfFIDEXkF5GHQa3BqICKv1EhEPqmBiLxSIxH5pAYi8kqNROSTGojIKzUSkU9qICKvgDwMeg1ODUTklRqJyCc1EJFXaiQin9RARF6pkYh8UgMReaVGIvJJDUTkFZCHQa/BqYGIvFIjEfmkBiLySo1E5JMaiMgrNRKRT2ogIq/USEQ+qYGIvALyMOg1ODUQkVdqJCKf1EBEXqmRiHxSAxF5pUYi8kkNROSVGonIJzUQkVdAHga9BqcGIvJKjUTkkxqIyCs1EpFPaiAir9RIRD6pgYi8UiMR+aQGIvIKyMOg1+DUQEReqZGIfFIDEXmlRiLySQ1E5JUaicgnNRCRV2okIp/UQEReAXkY9BqcGojIKzUSkU9qICKv1EhEPqmBiLxSIxH5pAYi8kqNROSTGojIKyAPg16DUwMReaVGIvJJDUTklRqJyCc1EJFXaiQin9RARF6pkYh8UgMReQXkYdBrcGogIq/USEQ+qYGIvFIjEfmkBiLySo1E5JMaiMgrNRKRT2ogIq+APAx6DU4NROSVGonIJzUQkVdqJCKf1EBEXqmRiHxSAxF5pUYi8kkNROQVkIdBr8GpgYi8UiMR+aQGIvJKjUTkkxqIyCs1EpFPaiAir9RIRD6pgYi8AvIw6DU4NRCRV2okIp/UQEReqZGIfFIDEXmlRiLySQ1E5JUaicgnNRCRV0AeBr0GpwYi8kqNROSTGojIKzUSkU9qICKv1EhEPqmBiLxSIxH5pAYi8grIw6DX4NRARF6pkYh8UgMReaVGIvJJDUTklRqJyCc1EJFXaiQin9RARF4BeRj0GpwaiMgrNRKRT2ogIq/USEQ+qYGIvFIjEfmkBiLySo1E5JMaiMgrIA+DXoNTAxF5pUYi8kkNROSVGonIJzUQkVdqJCKf1EBEXqmRiHxSAxF5BeRh0GtwaiAir9RIRD6pgYi8UiMR+aQGIvJKjUTkkxqIyCs1EpFPaiAir4A8DHoNTg1E5JUaicgnNRCRV2okIp/UQEReqZGIfFIDEXmlRiLySQ1E5BWQh0GvwamBiLxSIxH5pAYi8kqNROSTGojIKzUSkU9qICKv1EhEPqmBiLwC8jDoNTg1EJFXaiQin9RARF6pkYh8UgMReaVGIvJJDUTklRqJyCc1EJFXQB4GvQanBiLySo1E5JMaiMgrNRKRT2ogIq/USEQ+qYGIvFIjEfmkBiLyCsjDoNfg1EBEXqmRiHxSAxF5pUYi8kkNROSVGonIJzUQkVdqJCKf1EBEXgF5GPQanBqIyCs1EpFPaiAir9RIRD6pgYi8UiMR+aQGIvJKjUTkkxqIyCsgD4Neg1MDEXmlRiLySQ1E5JUaicgnNRCRV2okIp/UQEReqZGIfFIDEXkF5GHQa3BqICKv1EhEPqmBiLxSIxH5pAYi8kqNROSTGojIKzUSkU9qICKvgDwMeg1ODUTklRqJyCc1EJFXaiQin9RARF6pkYh8UgMReaVGIvJJDUTkFZCHQa/BqYGIvFIjEfmkBiLySo1E5JMaiMgrNRKRT2ogIq/USEQ+qYGIvALyMOg1ODUQkVdqJCKf1EBEXqmRiHxSAxF5pUYi8kkNROSVGonIJzUQkVdAHga9BqcGIvJKjUTkkxqIyCs1EpFPaiAir9RIRD6pgYi8UiMR+aQGIvIKyMOg1+DUQEReqZGIfFIDEXmlRiLySQ1E5JUaicgnNRCRV2okIp/UQEReAXkY9BqcGojIKzUSkU9qICKv1EhEPqmBiLxSIxH5pAYi8kqNROSTGojIKyAPg16DUwMReaVGIvJJDUTklRqJyCc1EJFXaiQin9RARF6pkYh8UgMReQXkYdBrcGogIq/USEQ+qYGIvFIjEfmkBiLySo1E5JMaiMgrNRKRT2ogIq+APAx6DU4NROSVGonIJzUQkVdqJCKf1EBEXqmRiHxSAxF5pUYi8kkNROQVkIdBr8GpgYi8UiMR+aQGIvJKjUTkkxqIyCs1EpFPaiAir9RIRD6pgYi8AvIw6DU4NRCRV2okIp/UQEReqZGIfFIDEXmlRiLySQ1E5JUaicgnNRCRV0AeBr0GpwYi8kqNROSTGojIKzUSkU9qICKv1EhEPqmBiLxSIxH5pAYi8grIw6DX4NRARF6pkYh8UgMReaVGIvJJDUTklRqJyCc1EJFXaiQin9RARF4BeRj0GpwaiMgrNRKRT2ogIq/USEQ+qYGIvFIjEfmkBiLySo1E5JMaiMgrIA+DXoNTAxF5pUYi8kkNROSVGonIJzUQkVdqJCKf1EBEXqmRiHxSAxF5BeRh0GtwaiAir9RIRD6pgYi8UiMR+aQGIvJKjUTkkxqIyCs1EpFPaiAir4A8DHoNTg1E5JUaicgnNRCRV2okIp/UQEReqZGIfFIDEXmlRiLySQ1E5BWQh0GvwamBiLxSIxH5pAYi8kqNROSTGojIKzUSkU9qICKv1EhEPqmBiLwC8jDoNTg1EJFXaiQin9RARF6pkYh8UgMReaVGIvJJDUTklRqJyCc1EJFXQB4GvQanBiLySo1E5JMaiMgrNRKRT2ogIq/USEQ+qYGIvFIjEfmkBiLyCsjDoNfg1EBEXqmRiHxSAxF5pUYi8kkNROSVGonIJzUQkVdqJCKf1EBEXgF5GPQanBqIyCs1EpFPaiAir9RIRD6pgYi8UiMR+aQGIvJKjUTkkxqIyCsgD4Neg1MDEXmlRiLySQ1E5JUaicgnNRCRV2okIp/UQEReqZGIfFIDEXkF5GHQa3BqICKv1EhEPqmBiLxSIxH5pAYi8kqNROSTGojIKzUSkU9qICKvgDwMeg1ODUTklRqJyCc1EJFXaiQin9RARF6pkYh8UgMReaVGIvJJDUTkFZCHQa/BqYGIvFIjEfmkBiLySo1E5JMaiMgrNRKRT2ogIq/USEQ+qYGIvALyMOg1ODUQkVdqJCKf1EBEXqmRiHxSAxF5pUYi8kkNROSVGonIJzUQkVdAHga9BqcGIvJKjUTkkxqIyCs1EpFPaiAir9RIRD6pgYi8UiMR+aQGIvIKyMOg1+DUQEReqZGIfFIDEXmlRiLySQ1E5JUaicgnNRCRV2okIp/UQEReAXkY9BqcGojIKzUSkU9qICKv1EhEPqmBiLxSIxH5pAYi8kqNROSTGojIKyAPg16DUwMReaVGIvJJDUTklRqJyCc1EJFXaiQin9RARF6pkYh8UgMReQXkYdBrcGogIq/USEQ+qYGIvFIjEfmkBiLySo1E5JMaiMgrNRKRT2ogIq+APAx6DU4NROSVGonIJzUQkVdqJCKf1EBEXqmRiHxSAxF5pUYi8kkNROQVkIdBr8GpgYi8UiMR+aQGIvJKjUTkkxqIyCs1EpFPaiAir9RIRD6pgYi8AvIw6DU4NRCRV2okIp/UQEReqZGIfFIDEXmlRiLySQ1E5JUaicgnNRCRV0AeBr0GpwYi8kqNROSTGojIKzUSkU9qICKv1EhEPqmBiLxSIxH5pAYi8grIw6DX4NRARF6pkYh8UgMReaVGIvJJDUTklRqJyCc1EJFXaiQin9RARF4BeRj0GpwaiMgrNRKRT2ogIq/USEQ+qYGIvFIjEfmkBiLySo1E5JMaiMgrIA+DXoNTAxF5pUYi8kkNROSVGonIJzUQkVdqJCKf1EBEXqmRiHxSAxF5BeRh0GtwaiAir9RIRD6pgYi8UiMR+aQGIvJKjUTkkxqIyCs1EpFPaiAir4A8DHoNTg1E5JUaicgnNRCRV2okIp/UQEReqZGIfFIDEXmlRiLySQ1E5BWQh0GvwamBiLxSIxH5pAYi8kqNROSTGojIKzUSkU9qICKv1EhEPqmBiLwC8jDoNTg1EJFXaiQin9RARF6pkYh8UgMReaVGIvJJDUTklRqJyCc1EJFXQB4GvQanBiLySo1E5JMaiMgrNRKRT2ogIq/USEQ+qYGIvFIjEfmkBiLyCsjDoNfg1EBEXqmRiHxSAxF5pUYi8kkNROSVGonIJzUQkVdqJCKf1EBEXgF5GPQanBqIyCs1EpFPaiAir9RIRD6pgYi8UiMR+aQGIvJKjUTkkxqIyCsgD4Neg1MDEXmlRiLySQ1E5JUaicgnNRCRV2okIp/UQEReqZGIfFIDEXkF5GHQa3BqICKv1EhEPqmBiLxSIxH5pAYi8kqNROSTGojIKzUSkU9qICKvgDwMeg1ODUTklRqJyCc1EJFXaiQin9RARF6pkYh8UgMReaVGIvJJDUTkFZAnd9ADAAAAAAAA8GFh0AMAAAAAAACMMOgBAAAAAAAARhj0AAAAAAAAACMMegAAAAAAAIARBj0AAAAAAADACIMeAAAAAAAAYIRBDwAAAAAAADDCoAcAAAAAAAAYmcGgdxb2bq2Fw/Pk/313Erav74ST/n+Aic5fbYalB/1L7fzJWlj7Nl6Y8MEx6I5j0B3HoDuOQXccg+44Bt1xDLrjGHTHMfinYgaDXnKFWdgIzzrJ//v6IKwtbE++8rw5C8dPdsLGpzfC4v0Jv/vFdlhYWMht7UnODc7r47D7m+Ww1Pu9S2H5N7vh+HX632pxHg5+ffV7ulyB82TEycOl9M+thYNav1ct3mjffHTa+/9P7k84P6POaTi8vx6Wr/f/fku31sP209PQeZf+9/cs/h0un/8XLT3MuSTenom/11nopv/5w1XhGBxx/u1aWIznz68Pkmtzht7XvXxeXrTev/OYhXfn4fjhxWUSW/yoFVp3dsJx/PuOK3O8T3vbUqNSx+DML4vzcPjZ4OuVuy5dMvPbXq3Q9bl2RY/BKe4v3nVD+8VB2Lu3HlofLfZ/7/XlsP7wKLTfpr+nLmVO66fd9DKe4niJp/fzYdhPTm/5+nzu98aVvh8sen9Rx/lTl/PDsJ5+LwvDx141He/v3XT3g4XV9fhHXhapudw3fXiX++Rj0PC+qczznRxFnhec/7jXP534+67dCCuf74Xjud7k1HAM5h0XI85/3A3rt/rnyeJHK2Hj8UlNz0He03Hxvh5jjyl9P1hKTc+XSzwvqPx8cKDkc5Dz5+IYnOvjmerHYOeXg7A1+N57JbeNH7fC+rft9HcIZZ+jpZp6WvNU/6CX3PgOrzAv90Mr70lU8t/Xf7URth4fhtNXyQP45IYj7wa75497Yfm3z0LW+Xf66Gb2DU47uTJfWw6bTy4ebHVfn4WjR5th90VdM00nPPtiOez+kv7PcZ1nYaPSnUI8KOfzxObkwWJ6HnbD0b2FsP2i/+tSO7mzTZ7YbSZ3nu30LOy2T8LeZ8kBklyWH8L4VelO6G1yft9eC/s/n4fu4EFB9zycfrMWWh/I3ytTmWNw3Jvk+nl9Kxx9nzyBmDjoVbkeTyM5tn67GJa/PBpe13KVPd6nuW2pWaljcF6XxTSnM5fbXqHo9bluhY/BqvcXnXD0u6XQ+t1+OHnVubiNetsOxw9WwuKt5M/UNupVO61qD/6T0/oXq2H9i51w8PwsnHeP53a/N67UMVjh/qL+J0fVxSdtVx57vZfb+BpNcz9Y1Awe/8jLYp73TR/Q5V74GHS4b6ryfGei7OcF8eu34mOlkdvm7qujsJXcTh3kPG+tVY3HoDwuUu0n62H10eiA1w1nj9fDSjpE1WLex8UHchyWuh8srY7ny+WeF0x3v1vmtLrJedcKS5/uhKOX6S33u044e7odWvEfKT/0Y/CX3bB8LT6mKbNWlXyONtDU05qz+ge9eCP08X44i/9//FfFu4eFb8DzbrCLOQv7H7fC/sv0f16SXCBfLIWN79SF2A3HD/fC6fDOYHa6P2yFhXtHySmWNcdBL7nB2/ohfofxX08Ww85P/V+/Kl7Jl5IbR3HL9K7d+7Nbz9//tb/KDfjZ18th/am6rnTC4WfLYe+P6f/8EFU+BuMddnqMxD+Xd8P/Ph5spHdMx4WO07qP97zblvoVPwYT87osKp/O+7rtLXF9rtsU94Ojqt1fJOfpVzfDyuN5PGLMPq16Bqv53e+NK3MMVrm/qOf8qUcjB72ajsFss3n8U/5xcM33TR/Q5V74GLS7b6pyOSsZt4+dZ2Hz1q7+3n9OntB+kT0O16rGYzDz/IqnIe/b4/3/qu9x8YEch6Uei9as0OOfUs8LprzfLXNacTjK+MfO7o/b4eYn+2Eum17FYzAOuat/KPkdlrwsBpp6WvNW/6A38sSp891GqTusqe/g4vp8M7kTS//nZfGObyscZdwyxNOe/fjU/xcO/eBhknk9sYk32oN/hTkNuzdzTjO5kq9fS26wMq7k9TxgmV75G/B4Hqxm/gtK+w+rH8wTManiMdj9aSe0Bjf2I19Deh8PNkqdZs3He+5tS91KHIPRvC6Lyqfzfm57S12f6zbF/eCFKe4vkgeMc7vtzTitegared3vjStzDFa7v6jn/KmHvK9+H7fxdarlGMwxo8c/pf9c3fdNH8zlXuIYNLtviqpePy7LuH2M1/2vjtP/MeZdfNXznC7fGo/BrPMrvjq1PzgJyX3T4pfH+YNQUfM+Lj6I47DkY9FaFXz8U/J8mup+t8RpxR+Jzz6dOT6uqXgMVjqfKl5nm3pa81b/oBcf3Kd3JPEGePCz90VMewfXfrySc3qT77gX0zf+vCL+7PTXG2E1fX+GhYXFcON2/31Szsr8HbvHYeta+rPsGS79vH38ue47W2H/p3jlm9cNQDsc/Grw5CSeZv73myc+kck6T7t/FD/Dfmcj7D3POdDiy5WfH4Sdz1eHP8cef4Z9/eFxOM9ZzssfwPFf3gf/KjUu/06m2z4Nh4+3wvrty5fhwS8Vz8QqqhyD75I761srF/+aOXInIFW8gSt//oy+f0lG13fF9zHF8S7k37bUreQxOMWdTeeXw7D9m1a4cW1wXi6H1d57fByHnfHbqpHT6f+5wXsOJbeHn+YduxUvi4rHe0/Z63PdprgfHCpwf5Hl9GH+K/RKXe4TZJ3W8HY3vf9cGX3vvfuH4bTQaczrfm9cmWOw2v3FVOdPlcckY+/11j+Wjno/khevo1cee1U+3pO/dZX797qVPAbrvu/Oe/xT+rLIUeS+aT6383UrcQzO/b5Jv59S8du1cpdz6ecFv+yGm4NX5Yyb5z9Olr0fLH1cxMEp5/4hXi8y/q6lb6PmfXs4cnrvT8nHojUcF0O5j3+qPi8Yud8trPppZeqN6ukHVcxamWNw5P19s1p/Ov5NVzx/mnpa71FNg149f/Eyd3BXtcP+JzezfxY/edB9+NmiHmLij0fcTR5Mqyd87Wdh83ar9/4a56PvRRHfY+Pr5IYr/t0Kfs/d51thMfN9UOLP26+E1QdH4exN+kuJ7qvjsJc8EFt5tBs2Z/nEptIVPsfb5Abrpn5vhO6LnbDyyWbYf9EOncEDqXfd0Hl1EvZ/18p+z6EHS+HG3e30vZXSX3zbDkdftcJSzsuI4w346tdHyeV18aSp96a5X+cMA72XSycP9MbO7+6L7eTXkwcI6s/Fl+Vej1+3/x4pPcnf6/zn/d777Oz8lPGosRbTHYNn36yE5dEb+kKD3lY4fHEw8sAmeZDym+1w+MeMv+e050+pBzgVj3dp0m1LTaoeg1Uui+QIO320Em7c2Q3Ho++L1u30Pvxg+9N4nIzd3qTn/8G368kD2Pi+IOn7hcXL8OVR2L2TnKY8dqtdFlWP96j09bkW9T4AyL+/yBDft+3xeljKfA+9Cpd7lgmn1Xvg/PuDsBPvP+N7jA1+T3IZnjzeLPg+MhlPWGel6jFY4f6i8vlT5TFJfK+39D730nv8Pd0OK7c3w+5Xq1f/TMXjver9ez0qHoN133fnPP6pdFlkmnTfNM/b+ZpUOQbned+U/Hr8MfrVh8lj9dcjX/HteTj7fjesflTkdi25yhV6vlP1eUH64+DfjH04S+/vlPUjxnWpeAxWOi5Ows419fdPZbwasdJt1LxvD3unV/ZxXU2qHIM1HRcDhR//pJdL0VvMSs8HB0qeVpb2H9bKP7YrZfrHouWHz0TF86eppzVvtb9Cb/ROquwZN9WgF8/w+C8xeQdkfPPb663eJ8/17uTiK0DiDc31pbD+YDusXrnjPkseLC2H7Zw3xi3zyp2T+4vJjaA+hONLYVsPs75Ocqd+fzk5CHPuuGoz8gSq6pX4bXK+JQ8a5HvLdJM74NvJEx/5ZDOKf9dWuQcc8dU4OS8Fjz8zv3QnuSMevUMdPGm6exDaGdeZ7h+TB/O3lkPr4+TO9NZq2PhsJbQ+2w9nmd97ts7T9erX7ZJKH4Ovkyczt3fCyejVfNIAEp8AXUsup+SOcXjnnT6w2fk0OcZKvpl0ofOn7PWx7PGepchtS61KHoMVLov43iRLOdd9+a+jve8lefCT9efynizUdVlEE473Stfnmk1zPziQd38x7uITDxfCjeQ2Kutfwytd7mOKnlb8ey8sZN9/5v7jyNCcB72h8veDZe8vKp0/VR6TxOPl9kb2qwF6HwqQfC/jt79VjvdZ3L9XVMcxGJW+7857/FP1ssgy4b5p7rfztSpxDE7zPZe8b4qfmr76jXztW1/8ercnP14o8nxnqucF8dVSX62EG7dbofXRjeSx7kbyfa2E7bm9wrLEMVj5uJh0/xD/+9j1pupt1LxvD2t+jF1N8WOwruNioPDjn0m3DWOqPh/sKXlaynlym5z13nqzUPV+sNJ9ZsXzp6mnNW8zGfQGZ1bZM67IHVyW+GcLfQT8lY+n3w6H8Ucq4gU2/oQveUC9+NlhPSv6u+SGMfNfkuIT1PVwOPIvcFf0rlB5d1x1GbkDrHIlfpv8XT7NeDCbiA8wJ15O6rLINeFl9zlOHy6Hzb8Sl3By53z48OqNe/fFbtjK+2jrLHFQqHjdLqvcMdj/l9wrPy42zQDy5jB5Yrunf9wjS5Hzp8r1sczxnqHwbUttpjwGR8nLIh4vN8Puz+n/LKr3vayE/Vfp/1bij/Nk/ahPDZdFX97xPoPrcwXT3A/25N5fZOv2/tV/JSzf3QunVx4wVrzcM+SfVv/vnf/+Rf0fR818/6OekScUc1XyGKxwf1Hp/KnwmCSOAjczR4G++OTpyu1vheN9Nvfv1Ux9DA6Uue+e8Pin8mWRIf++6T3dztemxDE47fdc+L4pfgDJ5Nujk/tLof++Y9niZZd/OU/3vKD7Yi/s/Th2SxFvp+7tznVMKHIMVj8uJt0/jFyHUpVvoypcx2Z2e1jlMXYlRY/B+o6LnjKPf3K/r3Iynw8OTHla7e825zrmRVXvByvdZ1Y8f5p6WvPWkEEvPnBZLHZDkeWnnbA4dqMav59W3r84lBEfiGfdaBe6sky646pL0RtwoXMcdm7fCOs5g1fvMu49aJqUON30/TVaw/cNSroeXxGxEloV36w13uGq61z81MLs90TK/pTb3nud3Bl5r5reexu1wuonyxWv2+WVOQbj339JvfR7qgEk+859qvOnzhtVcbxrNdy2lDbFMXiFuizi19/KfN+gTIVvpya8z8q4rMuiwvE+m+tzedPcD/bk3V8UoH+ko+LlPkHWj48U+XvH8yn/Fe7xe57H/d64csdglfuLKudP/N9lH5MUPZ0rt78Vjvfe1xkcq7lNc5tWTPxeyhyDU993F3j8U/mykCbdN1U83md1O19aiWNwbvdN8WuMXo+zm/pyLvx3EreP8VNuP8kYL1/uh5U5fcpt0WOw+nEx4Uduu0dha+w87H0dcXldbey8/6BuD4sNaNMregzWd1z0lHn8U+hyKSbr+eDQFKfVfrKe3J/szHXMi4oeg+PK/N6hiudPU09r3uoZ9NoHYVUcuJf6bPJHJesb7ALiv1bkfNpYEWfftK48sYjfT12DXnzj8MwrUaErS8Yddy264fj+yJNm2VLYzfu48vi+Prfik5r8Szmep0V/RPmS3kvul66+P0Oi++Yk7FW9c4tvGHrlOpd/Z6mvF/0ff1i8PfZeGVG3E86/26x23S6q4jHYO+bU7x024XKX2uHgV+PnXw3nT403qup4l2q4bSmmhmNQUpdFvC2Z5RO9cl9bXhYVj/fZXJ8Lqul+MMq9vyii995B409eK17uk8jTKvbAafJ97Czv98ZVPQar3F9UO38mn19XFT2dK7e/FY73+HUq3b/XpdIxWMN9U8HHP5UvC2XifdOHdTtfTMVjcG73TfFr1DNkTrycC/+drt725A8Ts7rsUhWOwerHRX/U3sm6T4/fy9iHYlS+jfqgbg/V47q6VDkG6zsuolKPfwpdLgXJ54MjKp1W/31Ml+7uV3q7pkpqeCxa5Ji8ouJl0dTTmrfaX6EXz6z++wHEG9rBx10XU/iBzJj4cu2pPpq8m9wY3bz6Uurem3ImV/rpb6PiS+fzXqr9Af3IbTydwR1gwVe1xPcOim8ovftzgUug9+lbe+Gs1EDS/xTBze+zvn68rlU7b/SwE5+gbWa+70V8T50rT6om/b3ieVnhul3FNMfg0DSvaOr9q+jYnXsd509dN6oZx7sy9W1LFRWOwUzqshi8kfqsfhTrk/3kFAqSl8UMjvdpz8eSpjsGJ91fFCA/Ra3i5T5Jxie2xfNg8o+ULoat53lHV3yiMIf7vXGljsEK9xeJKudPlcckM/+R29HjvdL9+2wUPganvG8q8/inzh+5nXzf9AHdzldR5hj8YO6bipv8fKf684I46C3/Pmv4T77ujRkOeiOKHoPTHBenj7I/0T3e9l45RqreRn1It4fycd0MFD4G6zsuSj/+6V0u9YwtE/+hv+xpvTsPR18uh+UvnuW/N98MVX0sGv8cg16qxuvYLNU86J2Hw7uDK0w8KMs9EK826PVvSPLfhydH74BrJRewuEOIb9R6K/8NqMOrg7B+fcKdY+9GPf/9RuIdWvanv3XD8Vc3w1w+FGPkRwzi9zTp8jj/YTu0PloPB0VvfHuXV/Z7zGjxhih5YJrxSW6dn3bDinzZffykn8Ww9oeM0+p9El1yx/Ey/d8jTh/GB+jp/xgj/1u8s8v61KL4viVfzOtHbqc7Bofy7rzjJ2Dd2g7HGQ8mej+Cd+/o8nW5jvOnjhvVvOP9iilvW6oqcwxWuSwS8evmvln6u044ftC6/EC5d/7nvSl08me+Wk4fPBSQeVlUPd5zTHpCWKspj8EC9xeTtJP7UvUjK5Uu9wmyTis+cMr70Ifwaj+sfagfilHyfrD0/UWi0vlT5TFJ7w3nk/Mw6yJt94/rK3/HSsd7lfv3WShxDE5x31T68U/Vy+KKYvdNH8TtfFVljsG53TclktvnOt4Hq8jznfj3rvS8IL56M2v4z/tvtSpxDE5zXLx5FjZ+ldxfjl/u6QcIXX0cUfE2ap63hxUf19WuzDFY03FR+vFP73Ip8ryg+vPBocKnlYgfjvTZjdB6cBwufdL0XFV/LMqgN6Liac1bzYPe6I+exAfi5f4VqNKg10luzAuezvnL9FOsUp34UeN3V8Lm05wb2/hR6h+thJ3nIx+l3vvI8dNw+HA1LF1fDXs/5d81xn9BmvxjMt3Mj6ffvXMj5+Pp6zX6Uv14eeR9353vN8ON29vhKOPYiK8mWHogLs/0jaNbv9sPJ68uX3DdN/1PG1q+vXfpBj1+gtLSpzvhuJ3+/pGPfV+6vR7Wsn7k6fwobN8eO63kz7Zf7IfNW8mNe9Yd7dvk+ntnMxz8nH40fe/XzsPpk82wqh5gxU+zSp5obT45vbiODT6uPX5a2mfVXn1a3nTH4FDuANINZ4/Xe9f93e/Pwvng6785C0fJdXhR3anXcf6UvFGtdLyPKnHbUqcyx2Cly6In3t60QuuLg3A6/EOJeJk8T46N3jFzePmBa3r+H3y7Hm4kx+LRy/TYSD95Ld5OtZLjXZ1dZS+Lysd7lrkOetMdg4XuL17uh5Vba2H7yUlov7n44t3zweW+GZ7Js7bC5V7xtHoPnH5/EHZut8Lm4+TPDq6Hg0+U+2g9HE48FN/PoFfuGEyUvb9IVD5/qjwmiX/mk/6PlA7/TLf//bVub4bdr1av3v5WPd4r3L/Xr8QxWPG+qfLjnyqXxbjC903zvZ2vU6ljcI73TVHvze3H73Oj+CPayZ/fSa7/m9/nPy8o9nyn+vOC+J5dqw+OQ3vwM+S924jjsHNnPXs4q1XJ+8Epjove8PnlUTgf/Ll3nXDyaDWsZz6+r3AbNdfbw6qP6+pV9n6wjuOi2PPlEenlMulI6qn6fHCg8Gmdhb34fqqPzzJuJ+Orp6/+VEP9qj8WZdAbUfG05q3mQS9eYdKXARc5A+K/QsR/dclp/emEM/6nnbBU6EfizsOzeyvp6cU3O14PW4+TO8n825a+wZuzf7SYfl/9Px+f4AzvQDLFhbz4y4d7b8z86Y2w2DudpbB8Zyvs/xTPg3jepufLhJ99n0a80R685HjSFb/3gGTwPWWV9YAlucM9fbod1pMbvf7fdSEsftQKq5/vhIPnlx9g9SV3cPH3D98gP543G2EvuePovOu/lLj363cOrv5IxZXTGj1fc7w9613uy9f7X3vpVnKZP826gU6cH4e9z1eGb6od/z7r9w/CSbwxjYNCetrbPxa8Ra2k5DE45uTh+Htn5Lzn2Ov4910dnj+9v+/Do4snpuMqnT8nYTf9+pnJ42GK432g8G1Lvcocg0NlL4tU/43gB5/ul3R9OTkG95IHq6NnVPyXzfS/p9enzi+HYXv4qYDJ+ftpciw+z/o+q1wWUxzvI0pdn2szzTFY4v6imzwZeLJz6fJb/GglbHxd1+U+osxpjdyv9667yeV1/PVGWBncfyantX7/MJzKkxq9rmV0fbfUbVoVlY7BovcXU50/qSqPSdI/o24jLu7L4/Ex7fGeKH3/XreSx2CF+6apHv8UvizS3z+u5H3TfG7n61XsGHwf902psfvc3n3Ux/HPJ8fu4B+iRk3xfKfq84LzH0f+3LUbYSW5zI+zzoraVbgfrHxc9B8vrKW3h/G+aetJzmP1qPBt1Hu8Paz4uK4uxY7BMWWPi0uS87rQ45+qzwsSpZ8PVjmtkeMyMz3E16vcMXj+dF18n6OpY6/aZdHU03qf6h30zg/D2rWd/hXm1X5Yufth/WUx2cmDxbD2bbzU4sv5l7LfbBYfJo5BexyD5jgG7XEMmuMYtMcxaI5j0B7HoDmOwT8ptX8oBgAAAAAAAIDZYdADAAAAAAAAjDDoAQAAAAAAAEYY9AAAAAAAAAAjDHoAAAAAAACAEQY9AAAAAAAAwAiDHgAAAAAAAGCEQQ8AAAAAAAAwwqAHAAAAAAAAGGHQAwAAAAAAAIww6AEA3r+//usQ/vk/v+jevRBevkz/IwAAAABgFIMeAOD9+Ju/CeHBgxD+yT9J7o2Su6PxPvkk/Y0AAAAAgFHJMyYAACqKo9y/+Tch/MVfXH6FXRzjlpZ0f+/vXR3vYn/7b1/+fX/5l+mJAAAAAABGJc+gzLx5E8L29uUnjh9S/IgYgCaJt7lxsDs87N/G/bN/1h/b/sE/uDrIVS1+rXi7Hk8LAAAAADBR8kzKTHxCqZ4Qfij943+cfqMAYGTwjyWDV9ZlvYourzjMjb7CLhYHwNF/9BgUX30Xh0JGPAAAAAAoLXkGZia+cXoczcafNH4o8SNiABzFD6FQI91ogx+J/fM/749y8cds4ygXf+wWAAAAADA3yTM0AMCfvNF/LFldvTzYxf8GAAAAAPhgMOgBAAAAAAAARhj0AAAAAAAAACMMegAAAAAAAIARBj0AAAAAAADACIMeAAAAAAAAYIRBDwAAAAAAADDCoAcAAAAAAAAYYdADAAAAAAAAjDDoAQAAAAAAAEYY9AAAAAAAAAAjDHoAAAAAAACAEQY9AAAAAAAAwAiDHgAAAAAAAGCEQQ8AAAAAAAAwwqAHAAAAAAAAGGHQAwAAAAAAAIww6AEAAAAAAABGGPQAAAAAAAAAIwx6AAAAAAAAgBEGPQAAAAAAAMAIgx4AAAAAAABghEEPAAAAAAAAMMKgBwAAAAAAABhh0AMAAAAAAACMMOgBAAAAAAAARhj0AAAAAAAAACMMegAAAAAAAIARBj0AAAAAAADACIMeAAAAAAAAYIRBDwAAAAAAADDCoAcAAAAAAAAYYdADAAAAAAAAjDDoAQAAAAAAAEYY9AAAAAAAAAAjDHoAAAAAAACAEQY9AAAAAAAAwAiDHgAAAAAAAGCEQQ8AAAAAAAAwwqAHAAAAAAAAGGHQAwAAAAAAAIww6AEAAAAAAABGGPQAAAAAAAAAIwx6AAAAAAAAgBEGPQAAAAAAAMAIgx4AAAAAAABghEEPAAAAAAAAMMKgBwAAAAAAABhh0AMAAAAAAACMMOgBAAAAAAAARhj0AAAAAAAAACMMegAAAAAAAIARBj0AAAAAAADACIMeAAAAAAAAYIRBDwAAAAAAADDCoAcAAAAAAAAYYdADAAAAAAAAjDDoAQAAAAAAAEYY9AAAAAAAAAAjDHoAAAAAAACAEQY9AAAAAAAAwAiDHgAAAAAAAGCEQQ8AAAAAAAAwwqAHAAAAAAAAGGHQAwAAAAAAAIww6AEAAAAAAABGGPQAAAAAAAAAIwx6AAAAAAAAgBEGPQAAAAAAAMAIgx4AAAAAAABghEEPAAAAAAAAMMKgBwAAAAAAABhh0AMAAAAAAACMMOgBAAAAAAAARhj0AAAAAAAAACMMegAAAAAAAIARBj0AAAAAAADACIMeAAAAAAAAYIRBDwAAAAAAADDCoAcAAAAAAAAYYdADAAAAAAAAjDDoAQAAAAAAAEYY9AAAAAAAAAAjDHoAAAAAAACAEQY9AAAAAAAAwAiDHgAAAAAAAGCEQQ8AAAAAAAAwwqAHAAAAAAAAGGHQAwAAAAAAAIww6AEAAAAAAABGGPQAAAAAAAAAIwx6AAAAAAAAgBEGPQAAAAAAAMAIgx4AAAAAAABghEEPAAAAAAAAMMKgBwAAAAAAABhh0AMAAAAAAACMMOgBAAAAAAAARhj0AAAAAAAAACMMegAAAAAAAIARBj0AAAAAAADACIMeAAAAAAAAYIRBDwAAAAAAADDCoAcAAAAAAAAYYdADAAAAAAAAjDDoAQAAAAAAAEYY9AAAAAAAAAAjDHoAAAAAAACAEQY9AAAAAAAAwAiDHgAAAAAAAGCEQQ8AAAAAAAAwwqAHAAAAAAAAGGHQAwAAAAAAAIww6AEAAAAAAABGGPQAAAAAAAAAIwx6AAAAAAAAgBEGPQAAAAAAAMAIgx4AAAAAAABghEEPAAAAAAAAMMKgBwAAAAAAABhh0AMAAAAAAACMMOgBAAAAAAAARhj0AAAAAAAAACMMegAAAAAAAIARBj0AAAAAAADACIMeAAAAAAAAYIRBDwAAAAAAADDCoAcAAAAAAAAYYdADAAAAAAAAjDDoAQAAAAAAAEYY9AAAAAAAAAAbIfz/OfVmJFpx47IAAAAASUVORK5CYII=;" vertex="1" parent="1">
          <mxGeometry x="39.6" y="430" width="710.4" height="337.27" as="geometry" />
        </mxCell>
      </root>
    </mxGraphModel>
  </diagram>
</mxfile>
